<svg width="120" height="121" viewBox="0 0 120 121" fill="none" xmlns="http://www.w3.org/2000/svg">
<path d="M95.2351 49.6444C94.7767 63.4324 91.6975 71.3908 84.7447 80.7244C77.7919 90.058 66.9535 96.3484 55.4311 97.9924C43.9087 99.6364 31.8319 96.6676 22.2439 90.0724C15.9559 85.7524 10.5487 79.5844 8.87109 72.1372C7.19349 64.69 10.0399 55.9636 16.7383 52.3012C22.6159 49.0852 30.4183 50.0116 35.5351 45.682C40.4551 41.5156 40.9351 34.1908 44.0167 28.5244C47.5687 21.9844 54.8383 17.818 62.2711 17.398C69.7039 16.978 78.8311 18.8212 84.2047 23.9764C84.2047 23.9764 95.7703 33.49 95.2351 49.6444Z" fill="#FAEED1"/>
<path d="M68.7456 81.4562C68.7456 81.4562 70.7592 95.6162 79.596 95.4866C85.932 95.3882 81.0528 78.1682 81.0528 78.1682L68.7456 81.4562Z" fill="#FFBF9D"/>
<g opacity="0.3">
<path d="M34.3511 98.5131C36.5567 98.4339 39.1223 98.4795 40.8815 97.1427C41.4551 96.7059 42.0239 96.1947 42.7367 96.0771C43.4903 95.9499 44.2343 96.2955 44.9615 96.5331C46.7499 97.1138 48.6839 97.0601 50.4374 96.3812C52.191 95.7023 53.6568 94.4395 54.5879 92.8059L50.2535 93.7011L44.3447 91.5939C43.9868 91.3878 43.5681 91.3136 43.1612 91.3842C42.7543 91.4547 42.385 91.6657 42.1175 91.9803C39.4583 94.2219 36.5903 95.8587 34.3511 98.5131Z" fill="black"/>
</g>
<path d="M68.7505 26.2754C69.9673 27.7946 69.9193 28.9682 69.8185 29.5778C69.7897 29.7554 69.7009 29.969 69.5185 29.9786C69.431 29.9735 69.3472 29.9417 69.2785 29.8874L64.6177 26.9666" fill="#263238"/>
<path d="M49.3392 42.3004C48.7536 39.9412 48.1752 37.5652 48.0024 35.1388C47.8296 32.7124 48.0792 30.214 49.0848 27.9988C49.236 27.6652 50.4912 25.4284 50.8536 25.4908C51.1152 25.534 50.2896 27.6508 50.4048 27.8908C51.516 30.1468 51.6744 32.7772 51.2976 35.2636C50.908 37.6746 50.2512 40.0348 49.3392 42.3004Z" fill="#263238"/>
<path d="M48.3792 55.402L49.752 33.0196C49.992 26.9236 53.7216 21.9796 59.8056 22.378L60.3671 22.4476C63.0846 22.7846 65.5756 24.1322 67.3446 26.2223C69.1136 28.3124 70.031 30.9918 69.9143 33.7276C69.6863 39.0076 69.3671 44.8396 68.9831 47.6476C68.1887 53.446 62.2631 53.626 62.2631 53.626C62.2631 53.626 61.7543 59.5564 61.6175 61.27L52.8792 60.0604L50.7959 59.6932L48.3792 55.402Z" fill="#FFBF9D"/>
<path d="M62.2679 53.6283C62.2679 53.6283 58.5815 53.3883 54.9839 50.4531C54.9839 50.4531 56.2607 55.0443 62.1191 55.2531L62.2679 53.6283Z" fill="#FF9A6C"/>
<path d="M67.2359 39.2714C67.2117 39.4878 67.1037 39.6861 66.935 39.8238C66.7663 39.9616 66.5504 40.0277 66.3335 40.0082C66.2268 40.0036 66.1221 39.9778 66.0256 39.9321C65.9291 39.8864 65.8427 39.8218 65.7715 39.7421C65.7004 39.6625 65.6459 39.5694 65.6114 39.4683C65.5768 39.3673 65.5628 39.2603 65.5703 39.1538C65.5957 38.9374 65.7044 38.7395 65.8733 38.6019C66.0422 38.4644 66.2581 38.398 66.4751 38.417C66.5817 38.4215 66.6863 38.4474 66.7827 38.4932C66.8791 38.5389 66.9654 38.6035 67.0363 38.6832C67.1073 38.7629 67.1615 38.856 67.1958 38.957C67.2301 39.0581 67.2437 39.165 67.2359 39.2714Z" fill="#263238"/>
<path d="M68.3615 36.1467C68.2463 36.2427 67.6751 35.6979 66.7823 35.5899C65.8895 35.4819 65.1791 35.8467 65.1023 35.7243C65.0591 35.6715 65.1887 35.4843 65.5007 35.3163C65.9207 35.0985 66.3973 35.0148 66.8663 35.0763C67.3303 35.1343 67.7643 35.3367 68.1071 35.6547C68.3495 35.8971 68.4191 36.1035 68.3615 36.1467Z" fill="#263238"/>
<path d="M59.46 38.4723C59.4352 38.6891 59.3268 38.8877 59.1578 39.0257C58.9888 39.1638 58.7726 39.2305 58.5552 39.2115C58.4488 39.2067 58.3443 39.1806 58.2481 39.1347C58.1518 39.0889 58.0657 39.0243 57.9948 38.9447C57.9239 38.865 57.8697 38.772 57.8353 38.6711C57.8009 38.5702 57.787 38.4635 57.7944 38.3571C57.8193 38.1408 57.9274 37.9426 58.0958 37.8046C58.2643 37.6666 58.4799 37.5997 58.6968 37.6179C58.8034 37.6228 58.908 37.6489 59.0044 37.6947C59.1007 37.7405 59.187 37.8051 59.2581 37.8847C59.3292 37.9643 59.3836 38.0572 59.4183 38.1582C59.453 38.2591 59.4672 38.3659 59.46 38.4723Z" fill="#263238"/>
<path d="M59.5872 35.2658C59.472 35.3618 58.9008 34.817 58.008 34.709C57.1152 34.601 56.4072 34.9658 56.328 34.8434C56.2872 34.7906 56.4144 34.6034 56.7264 34.4354C57.146 34.2168 57.6229 34.133 58.092 34.1954C58.5564 34.2519 58.9909 34.4544 59.3328 34.7738C59.5752 35.0162 59.6448 35.2226 59.5872 35.2658Z" fill="#263238"/>
<path d="M61.9368 42.5212C61.9368 42.4708 62.5056 42.442 63.4176 42.4396C63.6576 42.4396 63.8712 42.4276 63.9288 42.2764C63.9776 42.0428 63.9533 41.7997 63.8592 41.5804C63.7152 41.002 63.5616 40.3972 63.4008 39.7612C62.7744 37.174 62.3496 35.0596 62.4528 35.0356C62.556 35.0116 63.1512 37.0876 63.78 39.6748C63.9288 40.3132 64.0728 40.9204 64.2096 41.5012C64.2624 41.77 64.3752 42.082 64.2096 42.4108C64.1664 42.4867 64.1066 42.5517 64.0347 42.6012C63.9628 42.6507 63.8806 42.6832 63.7944 42.6964C63.6637 42.713 63.5314 42.713 63.4008 42.6964C62.496 42.6388 61.9344 42.5716 61.9368 42.5212Z" fill="#263238"/>
<path d="M60.2233 32.5106C60.0745 32.7218 59.2393 32.3762 58.1881 32.2226C57.1369 32.069 56.2369 32.1218 56.1577 31.8746C56.1265 31.757 56.3305 31.5722 56.7241 31.4354C57.2427 31.275 57.791 31.2349 58.3275 31.3181C58.8639 31.4012 59.3744 31.6055 59.8201 31.9154C60.1537 32.1722 60.2905 32.4074 60.2233 32.5106Z" fill="#263238"/>
<path d="M68.9016 33.7611C68.6928 33.9435 67.9872 33.6531 67.1136 33.5475C66.24 33.4419 65.4816 33.5091 65.3352 33.2763C65.2728 33.1659 65.4096 32.9739 65.7552 32.8179C66.2275 32.6276 66.7423 32.5679 67.2456 32.6451C67.7493 32.7031 68.2274 32.8982 68.628 33.2091C68.916 33.4515 68.9928 33.6723 68.9016 33.7611Z" fill="#263238"/>
<path d="M49.692 37.378C49.5984 37.3228 45.852 35.698 45.48 39.6868C45.108 43.6756 49.2 43.2196 49.2 43.1068C49.2 42.994 49.692 37.378 49.692 37.378Z" fill="#FFBF9D"/>
<path d="M48.1295 41.4843C48.1151 41.4699 48.0551 41.5251 47.9351 41.5683C47.7634 41.6243 47.5767 41.6114 47.4143 41.5323C47.0063 41.3379 46.7135 40.6371 46.7615 39.9171C46.7789 39.5746 46.8742 39.2405 47.0399 38.9403C47.0894 38.8202 47.1672 38.7138 47.2667 38.6303C47.3661 38.5467 47.4843 38.4884 47.6111 38.4603C47.6942 38.4471 47.7793 38.464 47.8511 38.508C47.9228 38.552 47.9765 38.6202 48.0023 38.7003C48.0455 38.8179 48.0143 38.8947 48.0335 38.9019C48.0527 38.9091 48.1271 38.8443 48.1103 38.6763C48.0971 38.5755 48.0496 38.4823 47.9759 38.4123C47.8738 38.3195 47.7394 38.2704 47.6015 38.2755C47.4347 38.2926 47.2751 38.3524 47.138 38.4491C47.001 38.5457 46.8912 38.6761 46.8191 38.8275C46.6177 39.1565 46.4999 39.5297 46.4759 39.9147C46.4279 40.7211 46.7687 41.5107 47.3303 41.7291C47.4341 41.7704 47.5458 41.7878 47.6571 41.7799C47.7685 41.772 47.8767 41.739 47.9735 41.6835C48.1151 41.5803 48.1439 41.4915 48.1295 41.4843Z" fill="#FF9A6C"/>
<path d="M67.884 26.9138C68.5584 26.6114 66.7968 24.3578 65.2704 23.5058C62.9616 22.2194 59.3568 21.245 57.0936 21.689C54.3696 22.2218 52.0536 23.369 50.5104 25.673C48.9672 27.977 48.2352 30.7658 48.0816 33.5378C48.036 34.3826 48.0504 35.2706 48.4416 36.0218C48.9216 36.9506 49.6848 37.4618 49.8 38.8058C49.836 39.2522 49.836 39.7082 50.112 40.0586C50.7768 40.8962 51.732 40.241 52.2024 39.5426C53.2104 38.0546 53.4624 36.197 53.688 34.4138C53.8488 33.1466 54.0096 31.8506 53.7528 30.5978C53.6112 29.9186 53.3496 29.2634 53.2488 28.5746C53.148 27.8858 53.232 27.1346 53.6976 26.6066C53.8043 26.4954 53.9217 26.3949 54.048 26.3066C54.6448 25.8677 55.3477 25.5955 56.0846 25.5178C56.8214 25.4402 57.5656 25.5601 58.2408 25.865C60.42 26.8466 64.1592 28.3514 65.2248 27.6722C66.756 26.6954 67.1616 26.009 67.1616 26.009L67.884 26.9138Z" fill="#263238"/>
<path d="M46.9344 36.9795C46.8648 36.9051 46.7544 36.8811 46.6944 36.8067C42.3576 31.9299 46.4544 27.9267 46.632 26.6019C46.872 24.7659 44.472 26.9139 44.3952 24.4635C44.2872 21.2187 47.8296 20.1291 52.164 19.0995C53.9808 18.6675 58.3296 18.8595 62.0664 19.9659C65.3976 20.9595 67.4592 23.5659 68.5872 25.5171C68.5872 25.5171 69.348 25.9683 69.5064 26.3379C70.0104 27.4923 69.7032 27.9219 69.7032 27.9219C69.7032 27.9219 62.532 23.4027 55.824 27.9963C49.116 32.5899 49.8744 37.0971 48.2136 37.0203L46.9344 36.9795Z" fill="#455A64"/>
<path d="M53.3136 21.9482C53.2031 21.9969 53.0882 22.0346 52.9704 22.061C52.86 22.0922 52.7304 22.133 52.5696 22.1882C52.4088 22.2434 52.236 22.2962 52.0464 22.3778C51.596 22.5503 51.1574 22.7524 50.7336 22.9826C50.2159 23.2664 49.7194 23.5872 49.248 23.9426C48.7827 24.3061 48.344 24.7023 47.9352 25.1282C47.6044 25.4792 47.2965 25.8512 47.0136 26.2418C46.8864 26.405 46.788 26.5634 46.6968 26.7002C46.6056 26.837 46.5288 26.9546 46.4712 27.0554C46.4133 27.1611 46.3476 27.2622 46.2744 27.3578C46.3162 27.2452 46.3684 27.1367 46.4304 27.0338C46.4939 26.9076 46.5644 26.785 46.6416 26.6666C46.728 26.525 46.8216 26.3618 46.9464 26.1866C47.2227 25.7861 47.5275 25.4059 47.8584 25.049C48.6702 24.1735 49.6256 23.443 50.6832 22.889C51.1135 22.6609 51.5594 22.4636 52.0176 22.2986C52.212 22.2242 52.3944 22.1762 52.5504 22.1258C52.6853 22.0828 52.8222 22.0467 52.9608 22.0178C53.0766 21.9862 53.1945 21.9629 53.3136 21.9482Z" fill="#263238"/>
<path d="M68.7745 25.6418C68.7509 25.6342 68.7283 25.6237 68.7073 25.6106L68.5129 25.5122C68.3449 25.421 68.0905 25.2962 67.7641 25.1354C67.4377 24.9746 67.0297 24.7994 66.5473 24.6194C65.9992 24.4094 65.438 24.2354 64.8673 24.0986C63.3887 23.7391 61.8605 23.6288 60.3457 23.7722C58.4895 23.9417 56.6853 24.4767 55.0369 25.3466C54.187 25.7996 53.3874 26.341 52.6513 26.9618C51.9721 27.5479 51.3494 28.1963 50.7913 28.8986C49.8577 30.099 49.0653 31.4028 48.4297 32.7842C47.8801 33.9626 47.5105 34.9442 47.2609 35.6306C47.1385 35.9666 47.0449 36.233 46.9777 36.4202C46.9465 36.5042 46.9201 36.5714 46.9033 36.6242C46.896 36.6479 46.8855 36.6705 46.8721 36.6914C46.8721 36.6914 46.8721 36.6674 46.8913 36.6194C46.9105 36.5714 46.9273 36.4994 46.9537 36.4106C47.0113 36.2282 47.0977 35.9594 47.2177 35.6162C47.4577 34.9274 47.8129 33.9362 48.3553 32.7506C48.9821 31.3561 49.7716 30.0406 50.7073 28.8314C51.2679 28.1216 51.8947 27.4667 52.5793 26.8754C53.3184 26.2475 54.123 25.7012 54.9793 25.2458C56.6401 24.3657 58.461 23.8287 60.3337 23.6666C61.8626 23.5253 63.4043 23.6438 64.8937 24.017C65.465 24.1598 66.0262 24.3402 66.5737 24.557C67.0537 24.7442 67.4617 24.9362 67.7881 25.0946C68.1145 25.253 68.3641 25.3946 68.5273 25.4906L68.7169 25.601C68.7368 25.6136 68.756 25.6272 68.7745 25.6418Z" fill="#263238"/>
<path d="M49.6655 35.2203C49.2965 35.2383 48.9289 35.1623 48.5973 34.9994C48.2657 34.8366 47.9809 34.5921 47.7695 34.2891C48.0432 34.5171 48.3373 34.7195 48.6479 34.8939C48.9765 35.0334 49.3171 35.1426 49.6655 35.2203Z" fill="#263238"/>
<path d="M52.0607 31.8603C51.9195 31.845 51.7826 31.8027 51.6575 31.7355C51.3468 31.5932 51.0614 31.4011 50.8127 31.1667C50.5637 30.9322 50.3553 30.6581 50.1959 30.3555C50.1209 30.2354 50.0704 30.1016 50.0471 29.9619C50.2805 30.3696 50.5643 30.7461 50.8919 31.0827C51.2463 31.3913 51.6392 31.6527 52.0607 31.8603Z" fill="#263238"/>
<path d="M56.0376 27.8043C55.8464 27.4026 55.6291 27.0138 55.3872 26.6403C55.1132 26.2894 54.8158 25.9574 54.4968 25.6467C54.8833 25.8875 55.2183 26.2023 55.4828 26.573C55.7472 26.9437 55.9358 27.3629 56.0376 27.8067V27.8043Z" fill="#263238"/>
<path d="M59.8031 26.2946C59.7356 25.89 59.6459 25.4894 59.5343 25.0946C59.3864 24.7162 59.2182 24.3461 59.0303 23.9858C59.5814 24.6192 59.8592 25.445 59.8031 26.2826V26.2946Z" fill="#263238"/>
<path d="M65.28 26.3956C65.3715 26.0023 65.3902 25.5956 65.3352 25.1956C65.2433 24.8015 65.0807 24.4275 64.8552 24.0916C64.8552 24.0916 64.9776 24.1708 65.1096 24.3556C65.281 24.601 65.3979 24.8802 65.4526 25.1745C65.5072 25.4688 65.4983 25.7714 65.4264 26.062C65.4054 26.1834 65.3551 26.2979 65.28 26.3956Z" fill="#263238"/>
<path d="M68.4961 27.4586C68.5752 27.153 68.6353 26.8429 68.6761 26.5298C68.6783 26.2138 68.6599 25.8979 68.6209 25.5842C68.776 25.8788 68.8355 26.2143 68.7913 26.5442C68.7867 26.8717 68.6839 27.1903 68.4961 27.4586Z" fill="#263238"/>
<path d="M71.28 23.7458C70.5024 22.5602 68.8656 22.1018 67.5072 22.5074C66.1488 22.913 65.0904 24.0602 64.56 25.3754C64.1246 25.1348 63.6176 25.0578 63.1305 25.1581C62.6433 25.2584 62.208 25.5296 61.9032 25.9226L60.168 26.1146C60.2843 26.8357 60.5118 27.5345 60.8424 28.1858C61.2072 28.817 61.8216 29.3474 62.5464 29.4266C63.2712 29.5058 64.068 29.009 64.152 28.2842C64.4808 29.525 65.772 30.2762 67.032 30.5282C68.0136 30.725 69.1104 30.677 69.912 30.0842C70.7136 29.4914 71.0808 28.2386 70.4688 27.4442C71.7264 26.7746 72.0648 24.9338 71.28 23.7458Z" fill="#263238"/>
<path d="M62.4143 44.5203L62.2751 44.3955L59.9735 43.9323C59.8503 43.8976 59.7199 43.8976 59.5967 43.9323C59.4566 43.9991 59.3481 44.1179 59.2943 44.2635C59.1835 44.5061 59.1325 44.7718 59.1459 45.0382C59.1592 45.3045 59.2364 45.5638 59.371 45.7941C59.5055 46.0244 59.6935 46.2189 59.919 46.3613C60.1446 46.5037 60.401 46.5898 60.6668 46.6122C60.9325 46.6347 61.1998 46.593 61.446 46.4905C61.6923 46.388 61.9103 46.2278 62.0816 46.0234C62.2529 45.819 62.3726 45.5764 62.4305 45.3161C62.4884 45.0557 62.4829 44.7853 62.4143 44.5275V44.5203Z" fill="#FF9A6C"/>
<path d="M61.9511 46.2243C61.9511 46.2243 61.9343 46.2459 61.8959 46.2819C61.838 46.3322 61.7762 46.378 61.7111 46.4187C61.4643 46.5636 61.1858 46.6459 60.8999 46.6587C60.4659 46.6855 60.0377 46.5485 59.6999 46.2747C59.5009 46.1024 59.3411 45.8894 59.2314 45.6501C59.1217 45.4108 59.0646 45.1507 59.0639 44.8875C59.0594 44.6117 59.129 44.3399 59.2655 44.1003C59.2999 44.0381 59.3477 43.9843 59.4053 43.9428C59.463 43.9013 59.5292 43.8731 59.5991 43.8603C59.7262 43.845 59.855 43.8548 59.9783 43.8891L61.1783 44.1819L61.9919 44.3907C62.0926 44.4111 62.1908 44.4425 62.2847 44.4843C62.182 44.4783 62.08 44.463 61.9799 44.4387L61.1591 44.2683L59.9471 44.0019C59.8386 43.9719 59.7254 43.963 59.6135 43.9755C59.5607 43.9872 59.511 44.0099 59.4675 44.0421C59.4241 44.0744 59.388 44.1155 59.3615 44.1627C59.2397 44.3828 59.1776 44.6311 59.1815 44.8827C59.1824 45.1284 59.2351 45.3713 59.3359 45.5954C59.4368 45.8195 59.5837 46.0198 59.7671 46.1835C60.0795 46.442 60.4755 46.5777 60.8807 46.5651C61.1577 46.5652 61.4311 46.502 61.6799 46.3803C61.8599 46.2843 61.9439 46.2147 61.9511 46.2243Z" fill="#263238"/>
<path d="M80.1599 71.8204C78.3959 66.226 78.3047 63.3172 76.9367 61.3372C75.5687 59.3572 62.1215 55.2436 62.1215 55.2436C62.1215 55.2436 61.8311 58.2916 56.4815 58.534C51.1319 58.7764 48.4799 53.8828 48.4799 53.8828C48.4799 53.8828 42.7199 55.3732 38.8535 56.5084C35.0351 57.6268 32.7743 58.6684 30.3767 60.466C27.5807 62.5684 23.5967 79.8052 23.5967 79.8052L34.2215 83.7076L35.0255 94.6444L34.6967 111.869L75.8639 111.922C75.8471 109.152 73.2455 81.994 73.2455 81.994L82.6055 79.726C82.6055 79.726 81.7199 76.7788 80.1599 71.8204Z" fill="#7E57C2"/>
<path d="M72.3071 66.5403C72.3227 66.591 72.3323 66.6433 72.3359 66.6963C72.3503 66.8139 72.3719 66.9627 72.3959 67.1475C72.4463 67.5411 72.5063 68.1075 72.5711 68.8131C72.7055 70.2195 72.8375 72.1731 72.9191 74.3331C73.0007 76.4931 73.0247 78.4395 73.0295 79.8531C73.0295 80.5467 73.0295 81.1155 73.0295 81.5331C73.0295 81.7203 73.0295 81.8715 73.0295 81.9867C73.0338 82.0394 73.0338 82.0924 73.0295 82.1451C73.0184 82.093 73.0136 82.0399 73.0151 81.9867C73.0151 81.8715 73.0103 81.7203 73.0007 81.5331C73.0007 81.1227 72.9791 80.5563 72.9647 79.8531C72.9359 78.4419 72.8975 76.4931 72.8159 74.3331C72.7343 72.1731 72.6143 70.2315 72.5063 68.8251C72.4487 68.1315 72.4031 67.5675 72.3695 67.1571C72.3535 66.9715 72.3415 66.8203 72.3335 66.7035C72.3185 66.6503 72.3096 66.5955 72.3071 66.5403Z" fill="#263238"/>
<path d="M33.36 69.1372C33.3731 69.1963 33.3804 69.2566 33.3816 69.3172C33.3816 69.4468 33.4056 69.6196 33.42 69.8332C33.4512 70.2964 33.492 70.942 33.5424 71.734C33.6504 73.3492 33.7992 75.5596 33.96 78.0004C34.1208 80.4412 34.2624 82.6684 34.3416 84.274C34.3824 85.078 34.4112 85.726 34.4256 86.1772C34.4256 86.3908 34.4256 86.5636 34.44 86.6932C34.4468 86.7538 34.4468 86.815 34.44 86.8756C34.4283 86.8162 34.4211 86.7561 34.4184 86.6956C34.4184 86.566 34.3968 86.3932 34.38 86.1796C34.3512 85.7164 34.3104 85.0708 34.2576 84.2788C34.152 82.6636 34.0032 80.4532 33.84 78.01C33.6768 75.5668 33.54 73.3444 33.4608 71.7388C33.42 70.9348 33.3912 70.2844 33.3768 69.8356C33.3768 69.6196 33.3768 69.4492 33.3624 69.3172C33.3574 69.2573 33.3566 69.1972 33.36 69.1372Z" fill="#263238"/>
<path d="M81.6216 52.7332L84.2616 52.6804C84.6576 51.8668 85.2768 51.1996 85.8 50.4748C86.3232 49.75 86.784 48.91 86.7864 48.0052C86.7962 47.7453 86.741 47.4871 86.6256 47.254C86.5683 47.1402 86.485 47.0416 86.3824 46.9661C86.2798 46.8906 86.1608 46.8404 86.0352 46.8196C85.8893 46.8185 85.7447 46.847 85.6102 46.9036C85.4757 46.9601 85.3541 47.0434 85.2528 47.1484C84.6264 47.674 84.1944 48.4012 83.772 49.1116L81.6216 52.7332Z" fill="#FF9A6C"/>
<path d="M92.5368 46.918C92.5368 46.918 92.964 47.7532 89.3664 48.838C85.7688 49.9228 82.0224 51.034 81.3984 51.274C80.6029 51.5711 79.8885 52.0513 79.3128 52.6756C78.7551 53.3385 78.0483 53.8598 77.2503 54.1969C76.4522 54.534 75.5857 54.6772 74.7216 54.6148C72.1488 54.4972 71.316 53.3692 71.2992 53.0716C71.2824 52.774 72.5328 52.4236 74.1792 52.4332C75.8256 52.4428 77.7792 52.5892 78.0816 52.57C78.4198 52.5374 78.7389 52.3988 78.9936 52.174C78.9936 52.174 80.124 51.0292 80.964 50.7676C81.804 50.506 86.724 48.7348 86.724 48.7348C86.724 48.7348 91.7832 46.906 92.0304 46.8508C92.2776 46.7956 92.4792 46.6756 92.5368 46.918Z" fill="#E0E0E0"/>
<path d="M77.6544 53.285C76.7606 52.8968 75.7945 52.703 74.82 52.7162C73.8465 52.7315 72.8814 52.8983 71.9592 53.2106C72.8359 53.7144 73.8424 53.9466 74.8512 53.8778C76.6296 53.7938 77.6544 53.285 77.6544 53.285Z" fill="#7E57C2"/>
<path d="M71.7815 53.206C71.7815 53.1844 72.1343 53.3884 72.7415 53.5612C73.5415 53.7647 74.3677 53.8456 75.1919 53.8012C76.0148 53.7921 76.8288 53.6293 77.5919 53.3212C78.1751 53.0812 78.4991 52.8412 78.5111 52.8652C78.4465 52.9327 78.372 52.9902 78.2903 53.0356C78.0793 53.1763 77.8569 53.2991 77.6255 53.4028C76.8569 53.7421 76.0272 53.9209 75.1871 53.9284C74.3546 53.9729 73.5206 53.8771 72.7199 53.6452C72.4784 53.5687 72.2439 53.4715 72.0191 53.3548C71.9336 53.316 71.8537 53.266 71.7815 53.206Z" fill="#263238"/>
<path d="M83.6664 61.2724L83.8464 64.858L77.04 63.8332C77.04 63.8332 77.0952 61.0636 77.2296 59.9116C77.328 59.0668 79.7664 56.3308 79.7664 56.3308C79.7664 56.3308 78.9288 55.09 79.008 54.4588C79.0872 53.8276 80.7024 52.57 80.7024 52.57C80.7384 51.4684 82.584 51.1996 82.584 51.1996C82.6128 50.29 83.8032 50.2396 84.2904 50.5924C84.7776 50.9452 86.2344 52.0804 86.2344 52.0804L86.04 50.6836L84.6168 49.93L83.2104 50.2204C83.1544 50.2198 83.0987 50.2118 83.0448 50.1964C82.8721 50.143 82.7269 50.0245 82.64 49.8659C82.553 49.7073 82.5313 49.5211 82.5792 49.3468C82.6368 49.0372 84.42 48.2812 84.7392 48.13C85.0584 47.9788 87.432 48.5356 88.0272 49.0324C88.6224 49.5292 89.0256 54.598 89.0256 54.598C88.6704 55.7956 83.6664 61.2724 83.6664 61.2724Z" fill="#FFBF9D"/>
<path d="M80.2391 55.2218C80.5103 55.553 80.8079 55.7355 80.7911 55.7667C80.5381 55.6677 80.3147 55.5053 80.1424 55.2952C79.9701 55.0851 79.8546 54.8342 79.8071 54.5667C79.8407 54.5667 79.9703 54.893 80.2391 55.2218Z" fill="#FF9A6C"/>
<path d="M79.7521 55.126C79.9321 55.126 80.0545 55.03 80.0833 55.0492C80.1121 55.0684 79.9873 55.2364 79.7593 55.2508C79.5313 55.2652 79.3921 55.114 79.4185 55.0924C79.4449 55.0708 79.5745 55.1356 79.7521 55.126Z" fill="#FF9A6C"/>
<path d="M81.2784 52.8148C81.6917 53.0311 82.0542 53.333 82.3416 53.7004C82.5641 53.9827 82.737 54.3009 82.8528 54.6412L82.824 54.61C83.1031 54.7105 83.3723 54.8366 83.628 54.9868C83.339 54.9171 83.0564 54.8232 82.7832 54.706H82.764V54.682C82.6395 54.3589 82.4672 54.0563 82.2528 53.7844C81.9761 53.4286 81.6339 53.1288 81.2448 52.9012C80.9448 52.726 80.7504 52.6612 80.748 52.6348C80.9343 52.6619 81.1141 52.7229 81.2784 52.8148Z" fill="#FF9A6C"/>
<path d="M85.3273 53.9211C85.202 53.8515 85.0669 53.8013 84.9265 53.7723C84.706 53.7296 84.4962 53.6431 84.3097 53.5179C84.1034 53.3396 83.9131 53.1437 83.7409 52.9323C83.3617 52.5051 83.0209 52.1115 82.7809 51.8235C82.6395 51.6772 82.514 51.5163 82.4065 51.3435C82.5667 51.471 82.7139 51.6141 82.8457 51.7707C83.1121 52.0443 83.4505 52.4259 83.8321 52.8555C84.0009 53.0615 84.1846 53.2548 84.3817 53.4339C84.5552 53.5541 84.7486 53.6427 84.9529 53.6955C85.0994 53.7336 85.2371 53.7996 85.3585 53.8899C85.4036 53.9226 85.4406 53.9654 85.4665 54.0147C85.4665 54.0147 85.4161 53.9835 85.3273 53.9211Z" fill="#FF9A6C"/>
<path d="M86.9064 52.9059C87.1745 53.138 87.462 53.3467 87.7656 53.5299C87.409 53.4352 87.0825 53.2507 86.8174 52.994C86.5523 52.7373 86.3574 52.4169 86.2512 52.0635C86.4457 52.3621 86.6649 52.6439 86.9064 52.9059Z" fill="#FF9A6C"/>
<path d="M79.9031 56.2731C80.0865 56.2417 80.275 56.2757 80.4359 56.3691L80.3447 56.4219V56.3907C80.3429 56.1975 80.3847 56.0063 80.4671 55.8315C80.5415 55.6995 80.6207 55.6491 80.6327 55.6635C80.6447 55.6779 80.5895 55.7451 80.5463 55.8723C80.4935 56.0417 80.4668 56.2181 80.4671 56.3955V56.5299L80.3807 56.4795C80.2356 56.3943 80.0688 56.3534 79.9007 56.3619C79.7759 56.3619 79.6919 56.3835 79.6919 56.3619C79.6919 56.3403 79.7615 56.2899 79.9031 56.2731Z" fill="#FF9A6C"/>
<path d="M77.0401 63.8331L76.2169 74.3355C76.2169 74.3355 75.1969 84.1323 74.8993 85.7427C74.6017 87.3531 71.6689 94.2147 77.8009 95.4459C82.7137 96.4347 84.9865 89.6259 84.9049 86.7627C84.8449 84.7059 83.6497 60.7947 83.6497 60.7947L77.0401 63.8331Z" fill="#FFBF9D"/>
<path d="M77.0112 66.5955C77.0448 66.5955 76.5552 71.6043 75.9168 77.7723C75.2784 83.9403 74.7312 88.9419 74.6952 88.9395C74.6592 88.9371 75.1512 83.9307 75.792 77.7603C76.4328 71.5899 76.9776 66.5931 77.0112 66.5955Z" fill="#FF9A6C"/>
<path d="M88.2961 55.7666C88.2349 55.8622 88.1633 55.9508 88.0825 56.0306L87.4825 56.7266L85.5121 59.0354L83.5489 61.349L82.9441 62.045C82.872 62.1325 82.7916 62.2129 82.7041 62.285C82.7601 62.1865 82.826 62.094 82.9009 62.009C83.0329 61.8362 83.2273 61.5914 83.4721 61.289C83.9521 60.6842 84.6433 59.849 85.4113 58.949C86.1793 58.049 86.8849 57.2378 87.4081 56.6618C87.6697 56.3762 87.8881 56.1482 88.0417 55.9922C88.1193 55.9093 88.2045 55.8338 88.2961 55.7666Z" fill="#FF9A6C"/>
<path d="M38.3568 86.9571L34.1304 87.5235L34.212 83.7075L24.612 80.1819C23.8296 84.8739 22.452 93.8619 22.7112 96.1803C22.992 98.7339 25.7376 101.508 30.6816 100.188C33.1776 99.5211 42.2328 92.5467 42.2328 92.5467L38.3568 86.9571Z" fill="#FFBF9D"/>
<path d="M34.3392 87.4611C34.3392 87.4899 33.7896 87.4107 32.8992 87.4611C32.6579 87.4739 32.4175 87.5004 32.1792 87.5403C31.92 87.5715 31.6512 87.6387 31.3656 87.7011C30.7516 87.8592 30.1538 88.0745 29.58 88.3443C29.0119 88.6252 28.4719 88.9595 27.9672 89.3427C27.7471 89.5104 27.5357 89.689 27.3336 89.8779C27.155 90.04 26.9852 90.2114 26.8248 90.3915C26.2272 91.0467 25.9488 91.5243 25.9248 91.5099C25.9799 91.3926 26.0449 91.2802 26.1192 91.1739C26.1974 91.0444 26.284 90.9202 26.3784 90.8019C26.4888 90.6603 26.604 90.4947 26.7576 90.3219C26.9161 90.1364 27.0852 89.9601 27.264 89.7939C27.4644 89.5988 27.6751 89.4145 27.8952 89.2419C28.9078 88.443 30.0835 87.876 31.3392 87.5811C31.6114 87.5157 31.887 87.4652 32.1648 87.4299C32.4032 87.3928 32.6437 87.3704 32.8848 87.3627C33.0855 87.3521 33.2865 87.3521 33.4872 87.3627C33.6388 87.3633 33.7903 87.3729 33.9408 87.3915C34.0752 87.4045 34.2084 87.4278 34.3392 87.4611Z" fill="#FF9A6C"/>
<path d="M61.6696 82.9601C61.7306 80.8548 56.2444 78.9876 49.4157 78.7897C42.587 78.5919 37.0018 80.1381 36.9408 82.2434C36.8798 84.3487 42.3661 86.2158 49.1947 86.4137C56.0234 86.6116 61.6086 85.0654 61.6696 82.9601Z" fill="#CBB2E4"/>
<path d="M36.9601 82.1763C36.7969 87.8211 42.2761 92.8611 49.1305 93.0579C55.9849 93.2547 61.5289 88.4211 61.6921 82.7835L36.9601 82.1763Z" fill="#CBB2E4"/>
<path d="M60.72 83.0572C60.684 84.334 55.6536 85.9108 48.936 85.7164C42.672 85.534 38.268 83.854 37.956 82.678C37.476 80.8684 43.3584 79.2772 49.6224 79.438C55.9488 79.6036 60.7656 81.8428 60.72 83.0572Z" fill="#B57FEC"/>
<path d="M38.3999 83.1004C40.1663 84.5044 44.3639 85.5148 49.1999 85.6564C54.4799 85.81 58.9919 84.8092 60.5111 83.2948C59.4983 81.538 55.0487 80.1148 49.6775 79.9588C43.8983 79.7908 39.0311 81.2092 38.3999 83.1004Z" fill="#EEC866"/>
<path d="M51.528 89.7458C51.4392 89.7431 51.3508 89.7318 51.264 89.7122C50.8481 89.586 50.4608 89.3798 50.124 89.105C49.668 88.7858 49.2 88.4594 48.7344 88.5002C48.4295 88.5549 48.1417 88.6807 47.8944 88.8674C47.6001 89.0969 47.2423 89.2301 46.8696 89.249C46.4448 89.2274 46.1256 88.9394 45.8208 88.6706C45.582 88.4095 45.2741 88.2215 44.9328 88.1282C44.532 88.061 44.1576 88.2602 43.7592 88.4738C43.3608 88.6874 42.9 88.9274 42.432 88.8098C41.964 88.6922 41.6952 88.2698 41.4456 87.8642C41.196 87.4586 40.9848 87.125 40.6008 86.9882C40.2867 86.9069 39.9577 86.9011 39.6408 86.9714C39.2136 87.0266 38.7744 87.089 38.4264 86.7914C38.341 86.7096 38.2668 86.6167 38.2056 86.5154C38.0616 86.2898 37.9464 86.1482 37.8048 86.2058L37.7424 86.0762C38.0136 85.9634 38.1912 86.2322 38.3352 86.4386C38.3891 86.5262 38.4536 86.6068 38.5272 86.6786C38.8224 86.9186 39.2112 86.8778 39.6216 86.8202C39.9637 86.7453 40.3191 86.756 40.656 86.8514C41.0904 87.0074 41.3376 87.4034 41.5752 87.7898C41.8128 88.1762 42.0552 88.5626 42.4728 88.6682C42.8904 88.7738 43.2744 88.5626 43.6872 88.3442C44.1 88.1258 44.5056 87.905 44.9592 87.9818C45.328 88.0801 45.6611 88.2816 45.9192 88.5626C46.2048 88.817 46.5072 89.0834 46.8792 89.1026C47.221 89.0824 47.548 88.9566 47.8152 88.7426C48.0843 88.5413 48.398 88.4079 48.7296 88.3538C49.2504 88.3058 49.7448 88.6514 50.2152 88.985C50.537 89.2459 50.905 89.4437 51.3 89.5682C51.9192 89.7002 52.332 89.3666 52.7688 89.0138C53.2056 88.661 53.64 88.3082 54.3048 88.3682C54.6551 88.4337 54.9883 88.5701 55.284 88.769C55.5504 88.9544 55.8559 89.0759 56.1768 89.1242C56.6448 89.1242 56.9592 88.7354 57.2928 88.337C57.5856 87.989 57.8856 87.6338 58.308 87.5018C58.788 87.3506 59.508 87.6218 59.988 87.8018L59.9352 87.9362C59.508 87.7802 58.7976 87.5042 58.3656 87.6386C57.9864 87.7586 57.6984 88.1018 57.42 88.433C57.0792 88.841 56.7264 89.261 56.1912 89.273C55.8912 89.273 55.56 89.093 55.212 88.8962C54.9353 88.7106 54.6245 88.5817 54.2976 88.517C53.6976 88.4642 53.2968 88.7858 52.872 89.129C52.476 89.441 52.08 89.7626 51.528 89.7458Z" fill="#7F1FE0"/>
<path d="M56.0689 88.1858C56.1177 88.1878 56.1654 88.1705 56.2018 88.1378C56.2381 88.1051 56.2602 88.0594 56.2633 88.0106C56.258 87.9643 56.2359 87.9215 56.2012 87.8905C56.1664 87.8594 56.1215 87.8423 56.0749 87.8423C56.0283 87.8423 55.9833 87.8594 55.9486 87.8905C55.9138 87.9215 55.8917 87.9643 55.8865 88.0106C55.8895 88.0573 55.9098 88.1012 55.9436 88.1336C55.9774 88.1661 56.0221 88.1847 56.0689 88.1858Z" fill="#7F1FE0"/>
<path d="M51.5137 88.6396H51.5449C51.5695 88.6417 51.5943 88.6376 51.6169 88.6276C51.6394 88.6196 51.6602 88.6072 51.6779 88.5912C51.6956 88.5751 51.71 88.5557 51.7201 88.534C51.7329 88.514 51.7388 88.4904 51.7369 88.4668V88.4188C51.729 88.3875 51.7124 88.3592 51.6889 88.3372L51.6529 88.3084C51.6246 88.2914 51.5923 88.2823 51.5593 88.282H51.5233C51.4976 88.2793 51.4717 88.2843 51.4489 88.2964C51.4254 88.303 51.404 88.3154 51.3865 88.3324C51.3683 88.3468 51.3542 88.3659 51.3457 88.3876C51.3342 88.4089 51.3284 88.4329 51.3289 88.4572V88.5052C51.3358 88.5355 51.3517 88.5631 51.3745 88.5844L51.4105 88.6132C51.4399 88.6299 51.4727 88.6398 51.5065 88.642L51.5137 88.6396Z" fill="#7F1FE0"/>
<path d="M54.1656 89.6859C54.2009 89.6854 54.2352 89.6746 54.2644 89.6547C54.2936 89.6349 54.3163 89.6069 54.3296 89.5742C54.343 89.5416 54.3465 89.5057 54.3397 89.4711C54.3329 89.4364 54.316 89.4046 54.2912 89.3795C54.2664 89.3544 54.2348 89.3371 54.2003 89.3298C54.1657 89.3225 54.1298 89.3255 54.097 89.3385C54.0642 89.3515 54.0359 89.3738 54.0156 89.4027C53.9954 89.4316 53.9841 89.4658 53.9832 89.5011C53.9829 89.5253 53.9873 89.5492 53.9964 89.5716C54.0054 89.5941 54.0188 89.6144 54.0357 89.6316C54.0527 89.6488 54.0729 89.6625 54.0952 89.6718C54.1175 89.6811 54.1414 89.6859 54.1656 89.6859Z" fill="#7F1FE0"/>
<path d="M60.0433 87.077C60.0785 87.0765 60.1129 87.0657 60.1421 87.0458C60.1713 87.026 60.1939 86.998 60.2073 86.9653C60.2207 86.9327 60.2242 86.8968 60.2174 86.8622C60.2106 86.8276 60.1937 86.7957 60.1689 86.7706C60.1441 86.7455 60.1125 86.7282 60.078 86.7209C60.0434 86.7136 60.0075 86.7167 59.9747 86.7296C59.9419 86.7426 59.9136 86.7649 59.8933 86.7938C59.8731 86.8227 59.8618 86.8569 59.8609 86.8922C59.8605 86.9164 59.865 86.9404 59.874 86.9628C59.8831 86.9852 59.8965 87.0056 59.9134 87.0228C59.9304 87.0399 59.9506 87.0536 59.9729 87.0629C59.9952 87.0722 60.0191 87.077 60.0433 87.077Z" fill="#7F1FE0"/>
<path d="M58.4807 88.841C58.5047 88.8423 58.5286 88.8389 58.5513 88.8309C58.5739 88.8229 58.5947 88.8105 58.6126 88.7945C58.6304 88.7784 58.6449 88.759 58.6552 88.7373C58.6655 88.7157 58.6715 88.6922 58.6727 88.6682C58.6727 88.6194 58.6537 88.5725 58.6196 88.5375C58.5855 88.5026 58.5391 88.4823 58.4903 88.481C58.4416 88.4797 58.3942 88.4971 58.358 88.5297C58.3218 88.5623 58.2996 88.6076 58.2959 88.6562C58.2959 88.7052 58.3154 88.7522 58.35 88.7869C58.3847 88.8216 58.4317 88.841 58.4807 88.841Z" fill="#7F1FE0"/>
<path d="M48.8327 89.6042C48.8569 89.6058 48.8811 89.6026 48.904 89.5948C48.9269 89.587 48.9481 89.5746 48.9662 89.5585C48.9842 89.5425 48.999 89.5229 49.0094 89.5011C49.0199 89.4793 49.0259 89.4556 49.0271 89.4314C49.0305 89.3936 49.0224 89.3556 49.0039 89.3224C48.9854 89.2893 48.9574 89.2624 48.9235 89.2453C48.8896 89.2283 48.8513 89.2218 48.8137 89.2267C48.776 89.2316 48.7407 89.2478 48.7123 89.273C48.6839 89.2982 48.6638 89.3314 48.6545 89.3682C48.6452 89.405 48.6471 89.4438 48.6601 89.4795C48.6731 89.5152 48.6965 89.5461 48.7272 89.5684C48.758 89.5906 48.7948 89.6031 48.8327 89.6042Z" fill="#7F1FE0"/>
<path d="M46.6945 88.1404C46.7185 88.1417 46.7425 88.1382 46.7651 88.1303C46.7877 88.1223 46.8085 88.1099 46.8264 88.0938C46.8442 88.0778 46.8587 88.0584 46.869 88.0367C46.8793 88.0151 46.8853 87.9916 46.8865 87.9676C46.8899 87.9297 46.8818 87.8916 46.8632 87.8584C46.8446 87.8251 46.8165 87.7982 46.7824 87.7812C46.7483 87.7642 46.7099 87.7578 46.6722 87.7629C46.6344 87.7681 46.5991 87.7844 46.5708 87.8099C46.5425 87.8354 46.5225 87.8688 46.5135 87.9058C46.5044 87.9428 46.5067 87.9816 46.5201 88.0173C46.5334 88.0529 46.5572 88.0838 46.5883 88.1057C46.6194 88.1277 46.6564 88.1398 46.6945 88.1404Z" fill="#7F1FE0"/>
<path d="M44.6017 89.2779C44.6503 89.2799 44.6978 89.2626 44.7337 89.2298C44.7697 89.1969 44.7912 89.1513 44.7937 89.1027C44.7961 89.0655 44.7873 89.0284 44.7684 88.9962C44.7496 88.964 44.7215 88.9381 44.6879 88.922C44.6542 88.9059 44.6165 88.9001 44.5796 88.9056C44.5427 88.911 44.5083 88.9273 44.4807 88.9525C44.4531 88.9776 44.4337 89.0104 44.4249 89.0467C44.4162 89.083 44.4184 89.121 44.4314 89.156C44.4444 89.191 44.4676 89.2213 44.4979 89.243C44.5283 89.2647 44.5644 89.2769 44.6017 89.2779Z" fill="#7F1FE0"/>
<path d="M42.7439 87.55C42.7681 87.5512 42.7922 87.5477 42.815 87.5396C42.8378 87.5314 42.8587 87.5189 42.8766 87.5025C42.8945 87.4862 42.9089 87.4666 42.9191 87.4446C42.9293 87.4227 42.935 87.3989 42.9359 87.3748C42.9362 87.3506 42.9318 87.3266 42.9227 87.3042C42.9137 87.2818 42.9003 87.2614 42.8834 87.2442C42.8664 87.227 42.8462 87.2134 42.8239 87.2041C42.8016 87.1947 42.7777 87.19 42.7535 87.19C42.7294 87.1887 42.7052 87.1922 42.6824 87.2003C42.6596 87.2085 42.6387 87.2211 42.6208 87.2374C42.603 87.2537 42.5885 87.2734 42.5783 87.2953C42.5682 87.3172 42.5624 87.341 42.5615 87.3652C42.5615 87.4138 42.5807 87.4604 42.6148 87.495C42.6489 87.5296 42.6953 87.5493 42.7439 87.55Z" fill="#7F1FE0"/>
<path d="M40.116 88.0587C40.1513 88.0582 40.1857 88.0474 40.2148 88.0275C40.244 88.0077 40.2667 87.9797 40.2801 87.947C40.2935 87.9144 40.297 87.8785 40.2901 87.8439C40.2833 87.8092 40.2664 87.7774 40.2417 87.7523C40.2169 87.7272 40.1852 87.7099 40.1507 87.7026C40.1162 87.6953 40.0803 87.6983 40.0474 87.7113C40.0146 87.7243 39.9863 87.7466 39.9661 87.7755C39.9458 87.8044 39.9346 87.8386 39.9336 87.8739C39.9333 87.8981 39.9378 87.922 39.9468 87.9444C39.9558 87.9669 39.9692 87.9872 39.9862 88.0044C40.0031 88.0216 40.0234 88.0353 40.0456 88.0446C40.0679 88.0539 40.0919 88.0587 40.116 88.0587Z" fill="#7F1FE0"/>
<path d="M39.12 86.3428C39.1443 86.344 39.1686 86.3405 39.1915 86.3324C39.2145 86.3243 39.2355 86.3118 39.2536 86.2955C39.2717 86.2792 39.2863 86.2595 39.2968 86.2376C39.3072 86.2156 39.3132 86.1918 39.3144 86.1676C39.3173 86.1298 39.3088 86.092 39.29 86.0591C39.2712 86.0262 39.243 85.9997 39.209 85.983C39.175 85.9663 39.1367 85.9602 39.0992 85.9654C39.0617 85.9707 39.0266 85.987 38.9985 86.0124C38.9703 86.0377 38.9504 86.071 38.9413 86.1077C38.9322 86.1445 38.9344 86.1832 38.9475 86.2187C38.9605 86.2543 38.984 86.2851 39.0147 86.3072C39.0455 86.3293 39.0822 86.3417 39.12 86.3428Z" fill="#7F1FE0"/>
<path d="M61.68 82.9636C61.673 82.7935 61.6381 82.6256 61.5768 82.4668C61.4982 82.27 61.3852 82.0888 61.2432 81.9316C61.0485 81.7087 60.8259 81.5119 60.5808 81.346C59.8861 80.884 59.1321 80.5182 58.3392 80.2588C57.2836 79.8929 56.2011 79.6096 55.1016 79.4116C53.7623 79.1635 52.4095 78.9944 51.0504 78.9052C49.4911 78.7972 47.9268 78.7804 46.3656 78.8548C45.5424 78.8956 44.7 78.9676 43.8456 79.0756C42.9744 79.1815 42.1098 79.3361 41.256 79.5388C40.3771 79.7341 39.5224 80.0255 38.7072 80.4076C38.3018 80.5978 37.9253 80.8442 37.5888 81.1396C37.4254 81.2847 37.2861 81.4548 37.176 81.6436C37.0632 81.8252 37.0004 82.0335 36.9941 82.2472C36.9878 82.4609 37.0381 82.6724 37.14 82.8604C37.2405 83.0549 37.37 83.2329 37.524 83.3884C37.8451 83.7031 38.2086 83.9713 38.604 84.1852C39.3964 84.6126 40.2324 84.9538 41.0976 85.2028C41.9388 85.4525 42.7928 85.6568 43.656 85.8148C44.5032 85.9756 45.336 86.0908 46.1616 86.1796C47.7159 86.3452 49.2786 86.4197 50.8416 86.4028C52.2057 86.3913 53.5681 86.2999 54.9216 86.1292C56.0312 85.9956 57.1289 85.7766 58.2048 85.474C59.0105 85.2579 59.7838 84.935 60.504 84.514C60.7591 84.3631 60.9931 84.1791 61.2 83.9668C61.3504 83.8181 61.4739 83.6443 61.5648 83.4532C61.6339 83.3014 61.6777 83.1392 61.6944 82.9732V83.1028C61.6944 83.122 61.6944 83.146 61.6944 83.1724C61.6914 83.2021 61.6842 83.2312 61.6728 83.2588C61.6728 83.2876 61.6536 83.3236 61.6464 83.3596L61.5984 83.47C61.5102 83.6642 61.3874 83.8407 61.236 83.9908C61.0293 84.2061 60.7953 84.3933 60.54 84.5476C59.8189 84.9732 59.044 85.3001 58.236 85.5196C57.1596 85.8263 56.0611 86.0494 54.9504 86.1868C53.5893 86.3635 52.2188 86.4589 50.8464 86.4724C49.2803 86.4917 47.7144 86.4196 46.1568 86.2564C45.336 86.1676 44.496 86.05 43.6464 85.8916C42.7798 85.735 41.9225 85.5307 41.0784 85.2796C40.2063 85.0284 39.3639 84.684 38.5656 84.2524C38.154 84.0345 37.7751 83.7598 37.44 83.4364C37.2805 83.2755 37.1469 83.091 37.044 82.8892C36.9374 82.6915 36.8846 82.4693 36.8909 82.2448C36.8972 82.0203 36.9624 81.8014 37.08 81.61C37.1949 81.4156 37.339 81.2399 37.5072 81.0892C37.8526 80.789 38.2379 80.5378 38.652 80.3428C39.4736 79.9611 40.3337 79.6682 41.2176 79.4692C42.0798 79.2711 42.9523 79.1213 43.8312 79.0204C44.688 78.9076 45.5328 78.8428 46.3584 78.802C47.9229 78.728 49.4904 78.7464 51.0528 78.8572C52.4114 78.9486 53.7634 79.1209 55.1016 79.3732C56.2032 79.5725 57.288 79.8557 58.3464 80.2204C59.1399 80.4857 59.894 80.857 60.588 81.3244C60.8346 81.493 61.0581 81.6931 61.2528 81.9196C61.3949 82.0786 61.5063 82.2625 61.5816 82.462C61.5984 82.5004 61.6128 82.5388 61.6248 82.5748C61.6338 82.608 61.641 82.6417 61.6464 82.6756C61.6464 82.7044 61.6584 82.7356 61.6632 82.762C61.6657 82.7859 61.6657 82.8101 61.6632 82.834C61.6714 82.8768 61.677 82.9201 61.68 82.9636Z" fill="#263238"/>
<path d="M42.1105 82.5843C42.2197 82.5923 42.3241 82.6322 42.4108 82.6991C42.4976 82.7659 42.5628 82.8568 42.5983 82.9603C42.6339 83.0639 42.6383 83.1756 42.6109 83.2816C42.5836 83.3877 42.5257 83.4833 42.4445 83.5568C42.3632 83.6302 42.2622 83.6782 42.154 83.6947C42.0457 83.7113 41.935 83.6957 41.8355 83.6499C41.7361 83.6041 41.6523 83.5301 41.5945 83.4371C41.5367 83.344 41.5075 83.2361 41.5105 83.1267C41.5142 83.0516 41.5326 82.978 41.5648 82.9101C41.5969 82.8422 41.6422 82.7814 41.6979 82.731C41.7537 82.6806 41.8188 82.6417 41.8896 82.6165C41.9604 82.5913 42.0354 82.5804 42.1105 82.5843Z" fill="#455A64"/>
<path d="M41.8079 83.3571C41.7762 83.3334 41.75 83.3031 41.7311 83.2683C41.6838 83.1859 41.6694 83.0887 41.6908 82.9961C41.7122 82.9036 41.7677 82.8225 41.8463 82.7691C41.8765 82.743 41.9128 82.7248 41.9519 82.7163C41.9195 82.7359 41.889 82.7584 41.8607 82.7835C41.7949 82.8421 41.7481 82.919 41.7263 83.0043C41.7131 83.1277 41.7418 83.252 41.8079 83.3571Z" fill="white"/>
<path d="M41.1527 82.9587C41.377 83.1185 41.6376 83.2195 41.911 83.2526C42.1843 83.2858 42.4616 83.2499 42.7175 83.1483C42.8039 83.1123 42.9191 83.0691 42.9887 83.1339C43.0093 83.1525 43.0238 83.1769 43.0303 83.2039C43.0367 83.2309 43.0348 83.2593 43.0247 83.2851C43.0023 83.336 42.9696 83.3818 42.9287 83.4195C42.7372 83.5946 42.4977 83.7082 42.2411 83.7459C41.9844 83.7835 41.7224 83.7434 41.4887 83.6307C41.3749 83.5769 41.2773 83.4941 41.2055 83.3907C41.171 83.3413 41.1491 83.2842 41.1416 83.2245C41.1341 83.1647 41.1412 83.104 41.1623 83.0475" fill="#F2D58C"/>
<path d="M54.5161 84.1588C54.518 84.2757 54.4848 84.3905 54.4208 84.4884C54.3569 84.5863 54.2651 84.6628 54.1573 84.7081C54.0495 84.7533 53.9306 84.7653 53.8159 84.7424C53.7012 84.7195 53.5961 84.6628 53.5139 84.5796C53.4317 84.4964 53.3764 84.3905 53.3549 84.2755C53.3335 84.1606 53.3469 84.0419 53.3935 83.9346C53.4402 83.8274 53.5178 83.7366 53.6165 83.6739C53.7152 83.6111 53.8304 83.5794 53.9473 83.5828C54.099 83.584 54.244 83.6453 54.3506 83.7533C54.4572 83.8612 54.5167 84.007 54.5161 84.1588Z" fill="#455A64"/>
<path d="M53.6449 84.353C53.6126 84.3309 53.5863 84.3012 53.5681 84.2666C53.5207 84.1842 53.5058 84.0872 53.5263 83.9945C53.5467 83.9017 53.6009 83.8199 53.6785 83.765C53.7081 83.7384 53.7447 83.7209 53.7841 83.7146C53.7512 83.7335 53.7207 83.756 53.6929 83.7818C53.6241 83.8385 53.5764 83.9166 53.5572 84.0036C53.5381 84.0906 53.5487 84.1815 53.5873 84.2618C53.6185 84.3194 53.6497 84.3506 53.6449 84.353Z" fill="white"/>
<path d="M52.9897 83.957C53.2138 84.1162 53.474 84.2168 53.7469 84.25C54.0197 84.2831 54.2965 84.2475 54.5521 84.1466C54.6433 84.1106 54.7561 84.0698 54.8281 84.1322C54.8473 84.1518 54.8606 84.1763 54.8665 84.203C54.8725 84.2297 54.8708 84.2576 54.8617 84.2834C54.8392 84.3343 54.8066 84.3801 54.7657 84.4178C54.5742 84.5929 54.3347 84.7065 54.0781 84.7442C53.8214 84.7818 53.5594 84.7417 53.3257 84.629C53.2119 84.5752 53.1143 84.4924 53.0425 84.389C53.0078 84.3397 52.986 84.2825 52.9789 84.2226C52.9717 84.1627 52.9796 84.102 53.0017 84.0458" fill="#7E57C2"/>
<path d="M45.3601 84.0194C45.3615 84.1096 45.3359 84.198 45.2865 84.2735C45.2371 84.3489 45.1663 84.4078 45.0831 84.4426C45 84.4774 44.9083 84.4865 44.8199 84.4687C44.7316 84.4509 44.6505 84.4071 44.5873 84.3428C44.5241 84.2786 44.4816 84.1968 44.4652 84.1082C44.4489 84.0195 44.4595 83.928 44.4956 83.8454C44.5318 83.7629 44.5919 83.693 44.6681 83.6449C44.7443 83.5967 44.8332 83.5726 44.9233 83.5754C44.9812 83.5757 45.0384 83.5875 45.0918 83.61C45.1451 83.6325 45.1934 83.6653 45.234 83.7066C45.2746 83.7479 45.3067 83.7967 45.3283 83.8504C45.3499 83.9041 45.3607 83.9615 45.3601 84.0194Z" fill="#455A64"/>
<path d="M44.6977 84.1707C44.6722 84.1539 44.6516 84.1307 44.6377 84.1035C44.6015 84.0405 44.5901 83.9663 44.6056 83.8954C44.6212 83.8244 44.6625 83.7617 44.7217 83.7195C44.7447 83.6993 44.773 83.686 44.8033 83.6812C44.764 83.7021 44.7295 83.7309 44.7017 83.7656C44.6739 83.8003 44.6535 83.8403 44.6416 83.8831C44.6297 83.926 44.6266 83.9708 44.6325 84.0149C44.6385 84.0589 44.6533 84.1014 44.6761 84.1395L44.6977 84.1707Z" fill="white"/>
<path d="M44.1985 83.8684C44.3708 83.9903 44.571 84.0669 44.7807 84.0912C44.9904 84.1155 45.2028 84.0868 45.3985 84.0076C45.4657 83.9812 45.5521 83.9476 45.6073 84.0076C45.6222 84.0223 45.6325 84.041 45.6372 84.0614C45.6419 84.0818 45.6407 84.1031 45.6337 84.1228C45.6177 84.1621 45.5931 84.1974 45.5617 84.226C45.4157 84.359 45.2333 84.4454 45.0379 84.4741C44.8424 84.5027 44.6429 84.4723 44.4649 84.3868C44.3794 84.3462 44.3053 84.2852 44.2489 84.2092C44.2229 84.1709 44.2064 84.127 44.201 84.081C44.1956 84.0351 44.2013 83.9885 44.2177 83.9452" fill="#F2D58C"/>
<path d="M55.8407 82.0924C55.9242 82.0985 56.004 82.1291 56.0703 82.1802C56.1366 82.2314 56.1864 82.3009 56.2135 82.3801C56.2406 82.4593 56.2438 82.5447 56.2228 82.6257C56.2017 82.7068 56.1574 82.7798 56.0952 82.8359C56.0329 82.8919 55.9556 82.9284 55.8729 82.9409C55.7901 82.9533 55.7055 82.9412 55.6295 82.9059C55.5536 82.8707 55.4896 82.8139 55.4457 82.7427C55.4017 82.6714 55.3797 82.5888 55.3823 82.5052C55.3885 82.3897 55.4402 82.2814 55.5262 82.204C55.6121 82.1266 55.7252 82.0865 55.8407 82.0924Z" fill="#455A64"/>
<path d="M55.6079 82.6803C55.5828 82.664 55.5622 82.6418 55.5479 82.6155C55.5107 82.5528 55.4986 82.4782 55.5142 82.407C55.5298 82.3357 55.5719 82.273 55.6319 82.2315C55.6547 82.211 55.6831 82.1976 55.7135 82.1931C55.6741 82.2136 55.6394 82.242 55.6114 82.2764C55.5835 82.3109 55.5629 82.3507 55.5509 82.3935C55.539 82.4363 55.536 82.481 55.5421 82.525C55.5482 82.569 55.5632 82.6112 55.5863 82.6491L55.6079 82.6803Z" fill="white"/>
<path d="M55.1087 82.3804C55.281 82.5022 55.4811 82.579 55.6907 82.6037C55.9003 82.6285 56.1128 82.6004 56.3087 82.522C56.3759 82.4932 56.4599 82.462 56.5175 82.5076C56.5322 82.5229 56.5422 82.5421 56.5465 82.5629C56.5507 82.5837 56.549 82.6053 56.5415 82.6252C56.5257 82.6646 56.5011 82.6999 56.4695 82.7284C56.3241 82.8615 56.1421 82.948 55.947 82.9766C55.7519 83.0053 55.5527 82.9748 55.3751 82.8892C55.2869 82.8497 55.2113 82.7866 55.1567 82.7068C55.1295 82.6695 55.1123 82.6259 55.1069 82.5801C55.1014 82.5342 55.1078 82.4878 55.1255 82.4452" fill="#7E57C2"/>
<path d="M48.3192 84.1947C48.3225 84.3768 48.2711 84.5558 48.1718 84.7085C48.0724 84.8612 47.9296 84.9806 47.7617 85.0514C47.5938 85.1222 47.4086 85.1411 47.2299 85.1056C47.0511 85.0702 46.8871 84.982 46.759 84.8525C46.6309 84.7229 46.5445 84.558 46.5109 84.3789C46.4774 84.1998 46.4983 84.0148 46.5709 83.8477C46.6435 83.6806 46.7644 83.5391 46.9182 83.4413C47.072 83.3436 47.2515 83.2942 47.4336 83.2995C47.5505 83.3001 47.6662 83.3237 47.774 83.3691C47.8818 83.4144 47.9796 83.4805 48.0618 83.5636C48.1441 83.6468 48.2091 83.7453 48.2533 83.8535C48.2974 83.9618 48.3198 84.0777 48.3192 84.1947Z" fill="#FF9A6C"/>
<g opacity="0.3">
<path d="M48.3192 84.1947C48.3225 84.3768 48.2711 84.5558 48.1718 84.7085C48.0724 84.8612 47.9296 84.9806 47.7617 85.0514C47.5938 85.1222 47.4086 85.1411 47.2299 85.1056C47.0511 85.0702 46.8871 84.982 46.759 84.8525C46.6309 84.7229 46.5445 84.558 46.5109 84.3789C46.4774 84.1998 46.4983 84.0148 46.5709 83.8477C46.6435 83.6806 46.7644 83.5391 46.9182 83.4413C47.072 83.3436 47.2515 83.2942 47.4336 83.2995C47.5505 83.3001 47.6662 83.3237 47.774 83.3691C47.8818 83.4144 47.9796 83.4805 48.0618 83.5636C48.1441 83.6468 48.2091 83.7453 48.2533 83.8535C48.2974 83.9618 48.3198 84.0777 48.3192 84.1947Z" fill="#7E57C2"/>
</g>
<path d="M48.1415 84.19C48.1443 84.372 48.0926 84.5508 47.9929 84.7032C47.8932 84.8556 47.7502 84.9746 47.5823 85.0451C47.4143 85.1155 47.2292 85.134 47.0506 85.0983C46.8721 85.0625 46.7083 84.9741 46.5804 84.8445C46.4525 84.7149 46.3664 84.55 46.333 84.3709C46.2997 84.1919 46.3207 84.007 46.3934 83.8401C46.4661 83.6731 46.587 83.5317 46.7408 83.4341C46.8945 83.3365 47.0739 83.2871 47.2559 83.2924C47.4923 83.2943 47.7183 83.3898 47.8843 83.5581C48.0503 83.7264 48.1428 83.9536 48.1415 84.19Z" fill="#FF9A6C"/>
<g opacity="0.3">
<path d="M47.7601 84.1779C47.7559 84.3179 47.6964 84.4506 47.5944 84.5466C47.4925 84.6427 47.3565 84.6944 47.2165 84.6903C47.0765 84.6861 46.9438 84.6265 46.8477 84.5246C46.7516 84.4226 46.7 84.2867 46.7041 84.1467C46.7082 84.0066 46.7678 83.874 46.8698 83.7779C46.9717 83.6818 47.1077 83.6301 47.2477 83.6343C47.3877 83.6384 47.5204 83.698 47.6165 83.7999C47.7126 83.9019 47.7642 84.0378 47.7601 84.1779Z" fill="white"/>
</g>
<path d="M47.5801 84.1731C47.581 84.2406 47.5617 84.3069 47.5247 84.3634C47.4876 84.4198 47.4346 84.4639 47.3722 84.49C47.3099 84.516 47.2413 84.5228 47.175 84.5095C47.1088 84.4962 47.0481 84.4634 47.0007 84.4153C46.9533 84.3672 46.9214 84.306 46.909 84.2396C46.8967 84.1732 46.9045 84.1046 46.9314 84.0427C46.9584 83.9808 47.0032 83.9284 47.0602 83.8921C47.1172 83.8559 47.1838 83.8376 47.2513 83.8395C47.2948 83.8398 47.3378 83.8487 47.3779 83.8656C47.4179 83.8826 47.4543 83.9072 47.4848 83.9382C47.5153 83.9692 47.5394 84.0059 47.5558 84.0462C47.5722 84.0865 47.5804 84.1296 47.5801 84.1731Z" fill="#FF9A6C"/>
<path d="M48.96 84.4275C48.9274 84.366 48.8769 84.3158 48.8152 84.2837C48.7535 84.2515 48.6834 84.2389 48.6144 84.2475C48.2016 84.2475 47.844 84.5787 47.4288 84.5667C47.1913 84.5292 46.9587 84.4656 46.7352 84.3771C46.5298 84.3265 46.3158 84.3218 46.1084 84.3633C45.901 84.4047 45.7053 84.4914 45.5352 84.6171L45.5784 84.6747C46.0169 85.0489 46.5681 85.2654 47.144 85.2897C47.7199 85.3141 48.2874 85.1449 48.756 84.8091C48.8856 84.7083 49.0128 84.5715 48.96 84.4275Z" fill="#F2D58C"/>
<path d="M52.4951 81.5596C52.5819 81.2765 52.7755 81.0383 53.0349 80.8954C53.2942 80.7525 53.599 80.7162 53.8847 80.794C54.0256 80.8266 54.1586 80.887 54.2758 80.9718C54.393 81.0567 54.492 81.1641 54.5669 81.2878C54.6419 81.4116 54.6913 81.5491 54.7122 81.6922C54.7331 81.8353 54.7251 81.9812 54.6887 82.1212C54.6024 82.4047 54.4089 82.6433 54.1494 82.7862C53.8899 82.9292 53.5848 82.9653 53.2991 82.8868C53.1581 82.8543 53.0251 82.7938 52.908 82.709C52.7908 82.6242 52.6918 82.5167 52.6168 82.393C52.5419 82.2693 52.4925 82.1318 52.4716 81.9886C52.4507 81.8455 52.4587 81.6996 52.4951 81.5596Z" fill="#FF9A6C"/>
<g opacity="0.3">
<path d="M52.4951 81.5596C52.5819 81.2765 52.7755 81.0383 53.0349 80.8954C53.2942 80.7525 53.599 80.7162 53.8847 80.794C54.0256 80.8266 54.1586 80.887 54.2758 80.9718C54.393 81.0567 54.492 81.1641 54.5669 81.2878C54.6419 81.4116 54.6913 81.5491 54.7122 81.6922C54.7331 81.8353 54.7251 81.9812 54.6887 82.1212C54.6024 82.4047 54.4089 82.6433 54.1494 82.7862C53.8899 82.9292 53.5848 82.9653 53.2991 82.8868C53.1581 82.8543 53.0251 82.7938 52.908 82.709C52.7908 82.6242 52.6918 82.5167 52.6168 82.393C52.5419 82.2693 52.4925 82.1318 52.4716 81.9886C52.4507 81.8455 52.4587 81.6996 52.4951 81.5596Z" fill="#7E57C2"/>
</g>
<path d="M52.2743 81.5498C52.3616 81.2672 52.5554 81.0295 52.8147 80.8871C53.074 80.7447 53.3785 80.7087 53.6639 80.7866C53.8048 80.8192 53.9378 80.8797 54.055 80.9645C54.1722 81.0493 54.2712 81.1567 54.3461 81.2805C54.4211 81.4042 54.4705 81.5417 54.4914 81.6848C54.5123 81.828 54.5043 81.9738 54.4679 82.1138C54.3816 82.3968 54.1885 82.6349 53.9295 82.7778C53.6705 82.9208 53.3661 82.9572 53.0807 82.8794C52.9394 82.8469 52.8061 82.7863 52.6887 82.7014C52.5712 82.6165 52.4719 82.5088 52.3968 82.3849C52.3216 82.2609 52.272 82.1232 52.251 81.9798C52.2299 81.8363 52.2379 81.6901 52.2743 81.5498Z" fill="#FF9A6C"/>
<g opacity="0.3">
<path d="M53.3975 81.202C53.5202 81.2114 53.6374 81.2566 53.7346 81.3321C53.8319 81.4075 53.9048 81.5097 53.9445 81.6262C53.9842 81.7427 53.9888 81.8683 53.9578 81.9873C53.9268 82.1064 53.8615 82.2138 53.7701 82.2961C53.6787 82.3785 53.5651 82.4322 53.4434 82.4506C53.3218 82.4691 53.1974 82.4514 53.0857 82.3998C52.9739 82.3482 52.8798 82.265 52.8149 82.1604C52.7501 82.0559 52.7173 81.9346 52.7207 81.8116C52.73 81.6411 52.8064 81.4813 52.9333 81.3671C53.0601 81.2528 53.227 81.1935 53.3975 81.202Z" fill="white"/>
</g>
<path d="M53.7983 81.8427C53.7959 81.8966 53.7828 81.9495 53.7598 81.9983C53.7369 82.0472 53.7046 82.0911 53.6647 82.1274C53.6248 82.1637 53.5781 82.1918 53.5273 82.2101C53.4765 82.2284 53.4226 82.2365 53.3687 82.2339C53.3133 82.2366 53.258 82.2279 53.2061 82.2083C53.1543 82.1887 53.107 82.1586 53.0673 82.1199C53.0276 82.0812 52.9963 82.0347 52.9754 81.9834C52.9545 81.9321 52.9443 81.877 52.9457 81.8215C52.947 81.7661 52.9597 81.7116 52.9831 81.6613C53.0065 81.611 53.0399 81.5661 53.0814 81.5293C53.1229 81.4926 53.1716 81.4648 53.2243 81.4477C53.277 81.4305 53.3327 81.4245 53.3879 81.4299C53.442 81.4299 53.4956 81.4406 53.5455 81.4613C53.5955 81.4821 53.6408 81.5126 53.679 81.5509C53.7171 81.5893 53.7473 81.6348 53.7678 81.6849C53.7882 81.735 53.7986 81.7886 53.7983 81.8427Z" fill="#FF9A6C"/>
<path d="M55.5265 82.1618C55.4872 82.0848 55.425 82.0218 55.3486 81.9815C55.2721 81.9411 55.185 81.9253 55.0993 81.9362C54.5833 81.9362 54.1393 82.349 53.6233 82.3322C53.3263 82.2854 53.0356 82.2049 52.7569 82.0922C52.5017 82.0257 52.2349 82.0168 51.9759 82.0662C51.7168 82.1156 51.472 82.222 51.2593 82.3778L51.3145 82.4498C51.8608 82.9155 52.5472 83.185 53.2643 83.2155C53.9815 83.2459 54.6883 83.0355 55.2721 82.6178C55.4401 82.5122 55.5865 82.3394 55.5265 82.1618Z" fill="#F2D58C"/>
<path d="M52.1784 83.6594C52.1784 83.9474 51.7608 84.1562 51.2616 84.1394C50.7624 84.1226 50.352 83.8802 50.3592 83.5922C50.3592 83.489 50.3592 83.333 50.3592 83.333C50.6314 83.1344 50.9562 83.0208 51.2928 83.0066C51.6888 83.0186 52.1328 83.0858 52.1856 83.3858L52.1784 83.6594Z" fill="#FF9A6C"/>
<g opacity="0.3">
<path d="M52.1784 83.6594C52.1784 83.9474 51.7608 84.1562 51.2616 84.1394C50.7624 84.1226 50.352 83.8802 50.3592 83.5922C50.3592 83.489 50.3592 83.333 50.3592 83.333C50.6314 83.1344 50.9562 83.0208 51.2928 83.0066C51.6888 83.0186 52.1328 83.0858 52.1856 83.3858L52.1784 83.6594Z" fill="#7E57C2"/>
</g>
<path d="M52.1856 83.4148C52.1856 83.7028 51.7584 83.9236 51.2544 83.9092C50.7504 83.8948 50.3448 83.65 50.3544 83.362C50.364 83.074 50.7792 82.8532 51.2832 82.8676C51.7872 82.882 52.1928 83.1268 52.1856 83.4148Z" fill="#FF9A6C"/>
<g opacity="0.3">
<path d="M51.816 83.4052C51.816 83.5708 51.576 83.698 51.276 83.6908C50.976 83.6836 50.7504 83.5396 50.7552 83.374C50.76 83.2084 50.9952 83.0788 51.2952 83.086C51.5952 83.0932 51.8208 83.2372 51.816 83.4052Z" fill="white"/>
</g>
<path d="M51.6191 83.3978C51.6191 83.5034 51.4631 83.5875 51.2735 83.5827C51.0839 83.5779 50.9351 83.4842 50.9375 83.3786C50.9399 83.273 51.0935 83.1914 51.2831 83.1962C51.4727 83.201 51.6215 83.2922 51.6191 83.3978Z" fill="#FF9A6C"/>
<path d="M57.5616 83.8996C57.5616 84.1876 57.1464 84.3988 56.6448 84.3796C56.1432 84.3604 55.7352 84.118 55.7448 83.83C55.7448 83.7292 55.7448 83.5732 55.7448 83.5732C56.0169 83.3725 56.3429 83.258 56.6808 83.2444C57.072 83.2564 57.5184 83.3236 57.5736 83.6212C57.5712 83.626 57.564 83.8372 57.5616 83.8996Z" fill="#FF9A6C"/>
<g opacity="0.3">
<path d="M57.5616 83.8996C57.5616 84.1876 57.1464 84.3988 56.6448 84.3796C56.1432 84.3604 55.7352 84.118 55.7448 83.83C55.7448 83.7292 55.7448 83.5732 55.7448 83.5732C56.0169 83.3725 56.3429 83.258 56.6808 83.2444C57.072 83.2564 57.5184 83.3236 57.5736 83.6212C57.5712 83.626 57.564 83.8372 57.5616 83.8996Z" fill="#7E57C2"/>
</g>
<path d="M57.5688 83.6546C57.5688 83.9426 57.144 84.1634 56.6376 84.149C56.1312 84.1346 55.7304 83.8898 55.7376 83.6018C55.7448 83.3138 56.1624 83.0954 56.6688 83.1218C57.1752 83.1482 57.5784 83.369 57.5688 83.6546Z" fill="#FF9A6C"/>
<g opacity="0.3">
<path d="M57.1944 83.6452C57.1944 83.8108 56.9544 83.9404 56.6544 83.9308C56.3544 83.9212 56.1264 83.7796 56.1312 83.614C56.136 83.4484 56.3712 83.3188 56.6736 83.3284C56.976 83.338 57.1992 83.4844 57.1944 83.6452Z" fill="white"/>
</g>
<path d="M57.0025 83.6402C57.0025 83.7458 56.8465 83.8274 56.6593 83.8226C56.4721 83.8178 56.3209 83.7266 56.3233 83.6186C56.3257 83.5106 56.4793 83.4314 56.6689 83.4362C56.8585 83.441 57.0049 83.5322 57.0025 83.6402Z" fill="#FF9A6C"/>
<path d="M46.4232 82.5483C46.4088 83.0091 45.756 83.3451 44.9448 83.3211C44.1336 83.2971 43.4856 82.9059 43.5048 82.4427C43.5048 82.2795 43.5048 82.0275 43.5048 82.0275C43.941 81.7056 44.4632 81.5209 45.0048 81.4971C45.636 81.5139 46.356 81.6243 46.4448 82.1043C46.4352 82.1091 46.4256 82.4523 46.4232 82.5483Z" fill="#FF9A6C"/>
<g opacity="0.3">
<path d="M46.4232 82.5483C46.4088 83.0091 45.756 83.3451 44.9448 83.3211C44.1336 83.2971 43.4856 82.9059 43.5048 82.4427C43.5048 82.2795 43.5048 82.0275 43.5048 82.0275C43.941 81.7056 44.4632 81.5209 45.0048 81.4971C45.636 81.5139 46.356 81.6243 46.4448 82.1043C46.4352 82.1091 46.4256 82.4523 46.4232 82.5483Z" fill="#7E57C2"/>
</g>
<path d="M46.4329 82.1547C46.4209 82.6155 45.7513 82.9707 44.9401 82.9467C44.1289 82.9227 43.4833 82.5315 43.5001 82.0707C43.5169 81.6099 44.1817 81.2523 44.9929 81.2763C45.8041 81.3003 46.4473 81.6939 46.4329 82.1547Z" fill="#FF9A6C"/>
<g opacity="0.3">
<path d="M44.9952 81.6291C45.4752 81.6435 45.8424 81.8691 45.8352 82.1379C45.828 82.4067 45.4392 82.6179 44.9688 82.5963C44.4984 82.5747 44.1216 82.3563 44.1288 82.0875C44.136 81.8187 44.5248 81.6147 44.9952 81.6291Z" fill="white"/>
</g>
<path d="M44.9903 81.8042C45.2927 81.8042 45.5303 81.9578 45.5255 82.1282C45.5207 82.2986 45.2735 82.4306 44.9735 82.421C44.6735 82.4114 44.4335 82.2674 44.4383 82.097C44.4431 81.9266 44.6903 81.7946 44.9903 81.8042Z" fill="#FF9A6C"/>
<path d="M49.2505 84.6362C49.2371 84.64 49.2246 84.6465 49.2137 84.6553C49.2029 84.6641 49.194 84.675 49.1874 84.6873C49.1809 84.6996 49.177 84.7132 49.1759 84.7271C49.1747 84.741 49.1764 84.755 49.1809 84.7682C49.1901 84.7952 49.2098 84.8174 49.2354 84.83C49.261 84.8426 49.2906 84.8446 49.3177 84.8354C49.3337 84.8311 49.3484 84.823 49.3606 84.8117C49.3727 84.8004 49.3819 84.7863 49.3873 84.7706C49.3912 84.7561 49.3921 84.7409 49.3899 84.726C49.3878 84.7112 49.3826 84.6969 49.3748 84.6841C49.3669 84.6713 49.3565 84.6602 49.3442 84.6516C49.3319 84.6429 49.318 84.6369 49.3033 84.6338H49.2697" fill="#455A64"/>
<path d="M57.6696 82.6443C57.6554 82.6446 57.6414 82.6477 57.6284 82.6534C57.6155 82.6591 57.6037 82.6674 57.5939 82.6776C57.5841 82.6879 57.5764 82.6999 57.5713 82.7132C57.5662 82.7264 57.5637 82.7405 57.564 82.7547C57.5664 82.7836 57.5801 82.8103 57.6021 82.8292C57.6241 82.848 57.6527 82.8575 57.6816 82.8555C57.6961 82.8555 57.7104 82.8526 57.7237 82.8468C57.737 82.8411 57.749 82.8326 57.7589 82.8221C57.7688 82.8115 57.7765 82.799 57.7813 82.7853C57.7862 82.7717 57.7882 82.7571 57.7872 82.7427C57.785 82.7173 57.774 82.6935 57.756 82.6755C57.7379 82.6575 57.7142 82.6465 57.6888 82.6443" fill="#455A64"/>
<path d="M45.564 80.626C45.5503 80.6308 45.5377 80.6383 45.527 80.6481C45.5162 80.6579 45.5075 80.6698 45.5015 80.683C45.4954 80.6962 45.4921 80.7105 45.4917 80.7251C45.4914 80.7396 45.4939 80.754 45.4992 80.7676C45.5042 80.7788 45.5107 80.7893 45.5184 80.7988C45.5406 80.8194 45.5698 80.8308 45.6 80.8308C45.6303 80.8308 45.6595 80.8194 45.6816 80.7988C45.6897 80.7904 45.6962 80.7806 45.7008 80.77C45.706 80.7558 45.7082 80.7407 45.7072 80.7257C45.7061 80.7107 45.702 80.696 45.695 80.6827C45.688 80.6694 45.6783 80.6576 45.6665 80.6483C45.6547 80.6389 45.641 80.6322 45.6264 80.6284C45.6121 80.6261 45.5976 80.6261 45.5832 80.6284" fill="#455A64"/>
<path d="M49.3777 81.5812C49.3643 81.585 49.3518 81.5915 49.3409 81.6003C49.3301 81.6091 49.3212 81.62 49.3146 81.6323C49.3081 81.6446 49.3042 81.6582 49.3031 81.6721C49.3019 81.686 49.3036 81.6999 49.3081 81.7132C49.3184 81.74 49.3385 81.7619 49.3643 81.7744C49.3902 81.7868 49.4199 81.789 49.4473 81.7804C49.463 81.7754 49.4774 81.7671 49.4894 81.7558C49.5014 81.7446 49.5108 81.7309 49.5169 81.7156C49.5213 81.7012 49.5228 81.6862 49.5213 81.6712C49.5198 81.6563 49.5154 81.6418 49.5082 81.6286C49.5011 81.6155 49.4913 81.6038 49.4796 81.5944C49.4679 81.5851 49.4545 81.5781 49.4401 81.574H49.3993" fill="#455A64"/>
<path d="M55.0033 83.2275C54.9898 83.2314 54.9773 83.2378 54.9663 83.2466C54.9554 83.2553 54.9464 83.2662 54.9397 83.2784C54.933 83.2907 54.9288 83.3042 54.9273 83.3181C54.9259 83.332 54.9272 83.3461 54.9313 83.3595C54.941 83.3867 54.9611 83.409 54.9871 83.4215C55.0132 83.4341 55.0431 83.4359 55.0705 83.4267C55.0863 83.4221 55.1009 83.4138 55.113 83.4026C55.1251 83.3913 55.1343 83.3774 55.1401 83.3619C55.1436 83.3474 55.1443 83.3323 55.142 83.3176C55.1397 83.3028 55.1345 83.2887 55.1266 83.2759C55.1188 83.2632 55.1086 83.2522 55.0964 83.2434C55.0843 83.2347 55.0706 83.2285 55.0561 83.2251H55.0225" fill="#455A64"/>
<path d="M42.7488 83.9282C42.7347 83.9285 42.7209 83.9316 42.708 83.9374C42.6952 83.9431 42.6836 83.9514 42.674 83.9617C42.6643 83.972 42.6569 83.9841 42.652 83.9973C42.6472 84.0105 42.645 84.0246 42.6456 84.0386C42.6465 84.053 42.6503 84.0671 42.6567 84.08C42.6632 84.093 42.6722 84.1045 42.6831 84.1139C42.6941 84.1233 42.7068 84.1304 42.7206 84.1348C42.7343 84.1391 42.7488 84.1407 42.7632 84.1394C42.7775 84.1391 42.7916 84.1359 42.8046 84.13C42.8176 84.1241 42.8293 84.1157 42.839 84.1051C42.8486 84.0946 42.856 84.0822 42.8607 84.0687C42.8655 84.0552 42.8674 84.0409 42.8664 84.0266C42.8647 84.0011 42.8538 83.977 42.8357 83.9589C42.8176 83.9408 42.7936 83.9299 42.768 83.9282" fill="#455A64"/>
<g opacity="0.2">
<path d="M42.72 81.1323C42.5345 81.0891 42.3416 81.0891 42.156 81.1323C41.4076 81.293 40.6924 81.5812 40.0416 81.9843C39.9037 82.0601 39.7824 82.1629 39.6851 82.2866C39.5878 82.4103 39.5164 82.5524 39.4752 82.7043C39.4627 82.8282 39.4777 82.9533 39.5192 83.0707C39.5607 83.1881 39.6276 83.2949 39.7152 83.3835C39.8945 83.5665 40.1116 83.7082 40.3512 83.7987C40.4716 83.8572 40.6039 83.8867 40.7376 83.8851C40.8028 83.8843 40.8663 83.8649 40.9207 83.8292C40.9752 83.7935 41.0182 83.7429 41.0448 83.6835C41.1456 83.3859 40.6416 83.1435 40.7112 82.8363C40.7808 82.5291 41.3016 82.5651 41.4792 82.2987C41.5416 82.2075 41.556 82.0899 41.6184 81.9987C41.7672 81.7899 42.0864 81.8115 42.3384 81.8307C42.5904 81.8499 42.9408 81.7971 42.9936 81.5523C43.0054 81.4612 42.9843 81.3688 42.9342 81.2919C42.884 81.2149 42.8081 81.1583 42.72 81.1323Z" fill="white"/>
</g>
<g opacity="0.2">
<path d="M43.8265 83.806C43.8274 83.8606 43.812 83.9143 43.7822 83.96C43.7524 84.0058 43.7095 84.0416 43.6592 84.0628C43.6089 84.084 43.5533 84.0897 43.4998 84.0791C43.4462 84.0685 43.397 84.0421 43.3586 84.0033C43.3201 83.9645 43.2942 83.9151 43.284 83.8614C43.2739 83.8078 43.2801 83.7523 43.3018 83.7021C43.3234 83.652 43.3596 83.6095 43.4056 83.5801C43.4517 83.5507 43.5055 83.5358 43.5601 83.5372C43.595 83.5375 43.6296 83.5447 43.6618 83.5584C43.694 83.5721 43.7232 83.592 43.7477 83.6169C43.7722 83.6419 43.7916 83.6714 43.8047 83.7039C43.8178 83.7363 43.8244 83.771 43.8241 83.806H43.8265Z" fill="white"/>
</g>
<g opacity="0.2">
<path d="M48.0313 85.0611C47.9457 85.0275 47.8505 85.0275 47.7649 85.0611C47.6809 85.0875 47.5993 85.1307 47.5105 85.1523C47.3186 85.1788 47.1233 85.1452 46.9513 85.0563C46.7809 84.9691 46.5991 84.9061 46.4113 84.8691C46.3177 84.8505 46.2207 84.8601 46.1326 84.8969C46.0445 84.9337 45.9694 84.9959 45.9169 85.0755C45.8809 85.2123 46.3825 85.2195 46.6729 85.2411L47.8561 85.3395C47.9497 85.3395 48.0625 85.3395 48.1129 85.2699C48.1219 85.2509 48.127 85.2303 48.1278 85.2093C48.1285 85.1883 48.125 85.1674 48.1173 85.1478C48.1097 85.1283 48.0981 85.1105 48.0833 85.0955C48.0685 85.0806 48.0508 85.0689 48.0313 85.0611Z" fill="black"/>
</g>
<g opacity="0.2">
<path d="M52.32 84.0604C52.2485 84.1067 52.1866 84.1661 52.1376 84.2356C51.9547 84.447 51.7248 84.6124 51.4664 84.7187C51.208 84.825 50.9282 84.8692 50.6496 84.8476H50.5968C50.5608 84.7876 50.4456 84.8476 50.4552 84.9148C50.4648 84.982 50.532 85.03 50.6016 85.0612C50.7928 85.1393 51.0057 85.1462 51.2016 85.0804C51.3 85.0468 51.3888 84.9964 51.4872 84.9652C51.6208 84.9336 51.7579 84.9199 51.8952 84.9244C52.0993 84.9296 52.3017 84.886 52.4856 84.7972C52.5758 84.7552 52.6511 84.6869 52.7017 84.6012C52.7522 84.5155 52.7756 84.4165 52.7688 84.3172C52.7581 84.2698 52.7377 84.2251 52.7088 84.1859C52.6799 84.1468 52.6431 84.1141 52.6009 84.09C52.5587 84.0658 52.5119 84.0507 52.4635 84.0456C52.4152 84.0405 52.3663 84.0456 52.32 84.0604Z" fill="black"/>
</g>
<g opacity="0.2">
<path d="M54.3456 82.6947C54.258 82.6882 54.1699 82.6988 54.0864 82.7259C53.5464 82.8627 53.0808 82.9923 52.5288 82.9035C52.488 82.8819 52.4376 82.9395 52.4496 82.9827C52.4688 83.0276 52.5051 83.0629 52.5504 83.0811C52.7086 83.1908 52.898 83.2463 53.0904 83.2395C53.2158 83.2046 53.3385 83.1604 53.4576 83.1075C53.7432 83.0259 54.06 83.1411 54.3432 83.0451C54.4392 83.0139 54.5376 82.9347 54.528 82.8363C54.516 82.7967 54.4921 82.7618 54.4594 82.7364C54.4267 82.711 54.3869 82.6965 54.3456 82.6947Z" fill="black"/>
</g>
<g opacity="0.2">
<path d="M48.8568 80.266L49.0536 80.2972C48.1819 80.2811 47.3104 80.3349 46.4472 80.458C46.38 80.47 46.296 80.4868 46.272 80.542C46.2593 80.5767 46.2603 80.6151 46.2751 80.649C46.2898 80.683 46.3171 80.71 46.3512 80.7244C46.4217 80.7506 46.4972 80.7605 46.572 80.7532L48.6648 80.6836C49.0224 80.6692 49.4448 80.6236 49.6248 80.3284C49.3744 80.263 49.1145 80.2419 48.8568 80.266Z" fill="black"/>
</g>
<g opacity="0.2">
<path d="M59.2536 82.5242C58.8291 82.1728 58.3399 81.9078 57.8136 81.7442L56.1336 81.0938C55.908 81.0074 55.6296 80.9258 55.4448 81.0746V81.2186C55.8113 81.2466 56.1601 81.3875 56.4432 81.6218C56.5217 81.7329 56.6211 81.8274 56.736 81.9002C56.976 82.0058 57.2976 81.8186 57.5136 81.965C57.6216 82.0394 57.6576 82.1762 57.768 82.2602C57.9264 82.3826 58.164 82.325 58.3656 82.3874C58.4247 82.4102 58.4787 82.4445 58.5245 82.4883C58.5702 82.532 58.6069 82.5844 58.6323 82.6424C58.6578 82.7004 58.6715 82.7629 58.6727 82.8262C58.6738 82.8895 58.6625 82.9525 58.6392 83.0114C58.6189 83.0578 58.5914 83.1008 58.5576 83.1386C58.4352 83.2562 58.2216 83.357 58.26 83.5202C58.2984 83.6834 58.5312 83.6954 58.7064 83.6714C59.0304 83.6234 59.4072 83.5298 59.5128 83.237C59.5383 83.1058 59.5276 82.9702 59.482 82.8447C59.4363 82.7191 59.3574 82.6083 59.2536 82.5242Z" fill="black"/>
</g>
<path d="M61.6799 82.7692V82.8604C61.6799 82.9204 61.6799 83.0115 61.6799 83.1267C61.6799 83.2419 61.6631 83.3884 61.6439 83.5564C61.6388 83.6481 61.6284 83.7394 61.6127 83.83C61.5983 83.9284 61.5791 84.0316 61.5599 84.142C61.3255 85.3875 60.8467 86.5744 60.1511 87.634C59.0952 89.2354 57.6716 90.561 55.9991 91.5004C55.5114 91.7715 55.0072 92.0119 54.4895 92.2204C53.9423 92.4373 53.381 92.6169 52.8095 92.7579C52.2171 92.8995 51.6157 93.0005 51.0095 93.0604C50.3828 93.1107 49.7533 93.118 49.1255 93.082C46.7392 92.9366 44.421 92.2294 42.3599 91.0179C42.2399 90.9483 42.1199 90.8764 42.0143 90.8044L41.6783 90.586C41.4647 90.4348 41.2463 90.2859 41.0471 90.1251C40.6534 89.8216 40.2776 89.4954 39.9215 89.1484C39.2913 88.5285 38.7362 87.8365 38.2679 87.0867C37.5992 86.0089 37.1665 84.8016 36.9983 83.5444C36.9839 83.4316 36.9695 83.3284 36.9599 83.23C36.9503 83.1316 36.9599 83.0404 36.9431 82.954C36.9308 82.8103 36.926 82.6661 36.9287 82.522C36.9287 82.4068 36.9287 82.318 36.9287 82.2556C36.9287 82.2268 36.9287 82.1955 36.9287 82.1667V82.2556V82.522C36.9287 82.6396 36.9287 82.7836 36.9503 82.954C36.9503 83.038 36.9647 83.1316 36.9695 83.2276C36.9743 83.3236 36.9983 83.4291 37.0127 83.5395C37.1907 84.7898 37.6299 85.9886 38.3015 87.0579C38.7693 87.8045 39.3235 88.4933 39.9527 89.11C40.3075 89.4514 40.6817 89.7719 41.0735 90.07C41.2751 90.2308 41.4887 90.37 41.7023 90.526L42.0383 90.742C42.1484 90.8191 42.263 90.8896 42.3815 90.9532C44.4343 92.1553 46.7414 92.8567 49.1159 93.0004C49.7397 93.0364 50.3652 93.0291 50.9879 92.9788C51.5977 92.928 52.2031 92.8349 52.7999 92.7004C53.364 92.5592 53.9187 92.3829 54.4607 92.1723C54.9753 91.964 55.4763 91.7235 55.9607 91.4523C57.6234 90.5183 59.04 89.202 60.0935 87.6123C60.7897 86.5591 61.2739 85.3804 61.5191 84.142C61.5383 84.034 61.5575 83.9307 61.5743 83.8323C61.5911 83.7339 61.5983 83.6452 61.6079 83.5612C61.6295 83.3908 61.6487 83.2468 61.6511 83.1316C61.6535 83.0164 61.6655 82.9275 61.6679 82.8651C61.6688 82.8328 61.6728 82.8007 61.6799 82.7692Z" fill="#263238"/>
<path d="M53.3303 83.4554C53.3303 83.4554 52.7567 83.813 52.9751 84.2402C53.1935 84.6674 53.7767 85.2458 54.8951 84.809C56.0135 84.3722 55.3751 83.0882 55.3751 83.0882C55.3751 83.0882 54.6767 82.6202 53.3303 83.4554Z" fill="#E0E0E0"/>
<g opacity="0.21">
<path d="M54.5951 84.226C54.8003 84.1355 54.9822 83.9994 55.1269 83.828C55.2716 83.6567 55.3754 83.4546 55.4303 83.2372C55.4137 83.1871 55.3937 83.1382 55.3703 83.0908C55.3703 83.0908 54.6767 82.6108 53.3303 83.4628C53.3303 83.4628 52.7567 83.8204 52.9751 84.25L53.0231 84.3388C53.5426 84.5005 54.104 84.4602 54.5951 84.226Z" fill="#263238"/>
</g>
<path d="M53.28 83.1243L53.5584 83.9259C53.7111 83.9718 53.8716 83.9862 54.03 83.968C54.1885 83.9499 54.3416 83.8996 54.48 83.8203C54.8952 83.5539 54.7944 83.3979 54.7944 83.3979L54.5184 82.5747C54.1887 82.5515 53.8586 82.6117 53.5584 82.7499C53.1168 82.9827 53.28 83.1243 53.28 83.1243Z" fill="#E0E0E0"/>
<g opacity="0.15">
<path d="M53.6255 83.8202C53.5847 83.837 53.4863 83.705 53.4191 83.5178C53.3519 83.3306 53.3543 83.1602 53.3999 83.1554C53.4455 83.1506 53.5055 83.2898 53.5703 83.4698C53.6351 83.6498 53.6687 83.7938 53.6255 83.8202Z" fill="white"/>
</g>
<g opacity="0.15">
<path d="M54.3697 82.6826C54.3697 82.7018 54.3145 82.7354 54.2161 82.7594C54.1177 82.7834 53.9761 82.8074 53.8321 82.8362C53.7648 82.8493 53.6983 82.8662 53.6329 82.8866C53.5806 82.9016 53.53 82.9217 53.4817 82.9466C53.4025 82.9898 53.3545 83.0306 53.3281 83.0186C53.3017 83.0066 53.3281 82.9394 53.4049 82.8602C53.4533 82.8166 53.5084 82.781 53.5681 82.7546C53.6387 82.7229 53.7128 82.6995 53.7889 82.685C53.9217 82.6594 54.0568 82.6481 54.1921 82.6514C54.3025 82.6514 54.3649 82.6586 54.3697 82.6826Z" fill="white"/>
</g>
<g opacity="0.14">
<path d="M55.4401 84.269C55.4401 84.269 55.4401 84.317 55.4137 84.3794C55.3625 84.457 55.2974 84.5246 55.2217 84.5786C55.1201 84.6626 55.008 84.7328 54.8881 84.7874C54.8209 84.821 54.7513 84.8498 54.6769 84.881L54.5665 84.9218C54.5248 84.9363 54.4823 84.9483 54.4393 84.9578C54.2804 84.9846 54.1181 84.9846 53.9593 84.9578C53.8234 84.9354 53.6925 84.8891 53.5729 84.821C53.4887 84.7784 53.4084 84.7286 53.3329 84.6722C53.2849 84.629 53.2585 84.5978 53.2633 84.5882C53.2681 84.5786 53.3041 84.5882 53.3617 84.6122C53.4193 84.6362 53.5009 84.677 53.6017 84.7178C53.7161 84.7639 53.8365 84.7938 53.9593 84.8066C54.1056 84.8293 54.2545 84.8293 54.4009 84.8066C54.4383 84.7995 54.4752 84.7899 54.5113 84.7778L54.6217 84.737C54.6937 84.713 54.7633 84.6866 54.8281 84.6602C54.9432 84.6132 55.0547 84.5579 55.1617 84.4946C55.2338 84.4546 55.3021 84.408 55.3657 84.3554C55.4041 84.3002 55.4401 84.2642 55.4401 84.269Z" fill="#263238"/>
</g>
<path d="M41.5439 81.3987C41.5439 81.3987 40.8599 81.3987 40.8047 81.8787C40.7495 82.3587 40.9175 83.1339 42.1031 83.3379C43.2887 83.5419 43.4759 82.1379 43.4759 82.1379C43.4759 82.1379 43.1519 81.3819 41.5439 81.3987Z" fill="#E0E0E0"/>
<g opacity="0.21">
<path d="M42.1824 82.6971C42.4096 82.7239 42.64 82.7016 42.8578 82.6316C43.0756 82.5616 43.2758 82.4457 43.4448 82.2915C43.4664 82.1979 43.476 82.1331 43.476 82.1331C43.476 82.1331 43.152 81.3819 41.5416 81.3987C41.5416 81.3987 40.8552 81.3987 40.8 81.8787V81.9771C41.1511 82.386 41.6462 82.6438 42.1824 82.6971Z" fill="#263238"/>
</g>
<path d="M41.6855 81.0915L41.4719 81.9075C41.577 82.0245 41.7049 82.1188 41.8476 82.1849C41.9904 82.2509 42.1451 82.2871 42.3023 82.2915C42.8015 82.2795 42.8063 82.0995 42.8063 82.0995L43.0343 81.2667C42.7647 81.0736 42.4497 80.9538 42.1199 80.9187C41.6279 80.8923 41.6855 81.0915 41.6855 81.0915Z" fill="#E0E0E0"/>
<g opacity="0.15">
<path d="M41.5944 81.85C41.5512 81.85 41.5416 81.682 41.5944 81.49C41.6472 81.298 41.7408 81.1564 41.7816 81.1756C41.8224 81.1948 41.796 81.3412 41.7528 81.526C41.7096 81.7108 41.64 81.8572 41.5944 81.85Z" fill="white"/>
</g>
<g opacity="0.15">
<path d="M42.8592 81.2788C42.8592 81.298 42.7848 81.2932 42.6864 81.262C42.588 81.2308 42.4464 81.1804 42.3168 81.13C42.2531 81.1064 42.1882 81.0863 42.1224 81.07C42.0694 81.0583 42.0156 81.0503 41.9616 81.046C41.8704 81.046 41.8104 81.046 41.7984 81.0316C41.7864 81.0172 41.8368 80.9644 41.952 80.938C42.0162 80.9259 42.0821 80.9259 42.1464 80.938C42.2231 80.9482 42.2987 80.9659 42.372 80.9908C42.4984 81.0386 42.6198 81.0989 42.7344 81.1708C42.8184 81.2164 42.8688 81.2572 42.8592 81.2788Z" fill="white"/>
</g>
<g opacity="0.14">
<path d="M42.8687 83.1652C42.8687 83.1652 42.8495 83.2108 42.7871 83.2444C42.6995 83.2829 42.6063 83.3072 42.5111 83.3164C42.3787 83.3308 42.2451 83.3308 42.1127 83.3164C42.036 83.3118 41.9598 83.3013 41.8847 83.2852L41.7671 83.266C41.7228 83.2572 41.6794 83.2444 41.6375 83.2276C41.4876 83.1726 41.3486 83.0913 41.2271 82.9876C41.1293 82.8986 41.048 82.793 40.9871 82.6756C40.9447 82.599 40.9093 82.5187 40.8815 82.4356C40.8623 82.3732 40.8575 82.3372 40.8671 82.33C40.8767 82.3228 40.9007 82.3492 40.9367 82.402C40.9727 82.4548 41.0183 82.5268 41.0807 82.6132C41.1515 82.7116 41.2364 82.7989 41.3327 82.8724C41.4491 82.9627 41.5775 83.0362 41.7143 83.0908C41.7488 83.1029 41.7841 83.1126 41.8199 83.1196L41.9375 83.1436L42.1559 83.1844C42.279 83.2037 42.4033 83.2133 42.5279 83.2132C42.613 83.2181 42.6983 83.2132 42.7823 83.1988C42.8327 83.17 42.8639 83.1556 42.8687 83.1652Z" fill="#263238"/>
</g>
<path d="M44.3329 91.9203L40.4929 88.7571L40.3057 90.5379C40.3057 90.5379 41.6833 92.3955 42.6241 93.5427C43.2257 94.2429 44.0088 94.7636 44.8873 95.0475C46.2793 95.9835 49.4329 95.2131 50.1217 94.9347C50.8105 94.6563 55.0249 92.3571 56.0233 91.1883C57.0217 90.0195 54.9265 90.5235 54.9265 90.5235L55.0033 90.2235L54.8737 90.0483C54.4321 89.8083 53.9257 89.9811 53.5057 90.2211C52.7735 90.6811 52.0757 91.1937 51.4177 91.7547C51.4239 91.5085 51.3542 91.2664 51.2181 91.0611C51.082 90.8559 50.8861 90.6975 50.6569 90.6075C49.8553 90.3051 46.2673 92.3043 46.2673 92.3043L44.3329 91.9203Z" fill="#FFBF9D"/>
<path d="M37.6968 88.8604C37.6338 89.2761 37.7187 89.7008 37.9368 90.0604C38.2224 90.454 38.7456 90.586 39.2256 90.6676C39.6732 90.772 40.1388 90.772 40.5864 90.6676C40.8094 90.6104 41.0107 90.4889 41.1651 90.3182C41.3196 90.1475 41.4205 89.9351 41.4552 89.7076C41.4552 89.5148 41.4121 89.3244 41.329 89.1504C41.246 88.9764 41.1251 88.8232 40.9752 88.702C40.7016 88.4332 40.2936 88.39 39.9888 88.1548C39.9888 88.1548 39.4872 87.1492 39.0288 86.794C38.8488 86.6236 38.4216 86.7532 38.2416 86.9212C38.0719 87.1038 37.9578 87.3311 37.9128 87.5764C37.8014 87.9968 37.7291 88.4266 37.6968 88.8604Z" fill="#FFBF9D"/>
<path d="M52.8289 93.0147C53.2371 92.6557 53.6137 92.2623 53.9545 91.8387C54.2947 91.4172 54.5975 90.9666 54.8593 90.4923C54.9023 90.4195 54.9263 90.3369 54.9289 90.2523C54.9291 90.2202 54.9228 90.1883 54.9104 90.1586C54.898 90.1289 54.8798 90.102 54.8569 90.0795C54.8171 90.0373 54.7634 90.0108 54.7057 90.0051C54.7057 90.0051 54.7849 89.9595 54.8905 90.0411C54.952 90.0922 54.9909 90.1655 54.9985 90.2451C55.0077 90.3473 54.9868 90.4499 54.9385 90.5403C54.6956 91.0354 54.3977 91.5016 54.0505 91.9299C53.7041 92.3583 53.3131 92.7485 52.8841 93.0939C52.7133 93.245 52.5238 93.3732 52.3201 93.4755C52.4802 93.3118 52.6502 93.158 52.8289 93.0147Z" fill="#FF9A6C"/>
<path d="M46.116 94.7763C46.5044 94.7237 46.8885 94.6435 47.2656 94.5363C47.7244 94.4014 48.1721 94.2313 48.6048 94.0275C49.0337 93.8161 49.4439 93.5688 49.8312 93.2883C50.1466 93.0565 50.445 92.8022 50.724 92.5275C51.204 92.0475 51.444 91.7283 51.4584 91.7307C51.4163 91.8173 51.3631 91.898 51.3 91.9707C51.2357 92.0665 51.1652 92.1579 51.0888 92.2443C50.9938 92.3629 50.8928 92.4767 50.7864 92.5851C50.5126 92.8722 50.2165 93.137 49.9008 93.3771C49.508 93.667 49.0903 93.9215 48.6528 94.1379C48.2126 94.3462 47.7548 94.5149 47.2848 94.6419C46.9025 94.7446 46.5124 94.8153 46.1184 94.8531C45.9504 94.8747 45.7944 94.8723 45.6624 94.8795C45.5304 94.8867 45.4224 94.8795 45.3192 94.8795C45.221 94.8792 45.123 94.8703 45.0264 94.8531C45.0264 94.8363 45.444 94.8603 46.116 94.7763Z" fill="#FF9A6C"/>
<path d="M40.2312 90.7299C40.4379 90.6879 40.6329 90.6011 40.8024 90.4755C41.0071 90.3224 41.1576 90.108 41.232 89.8635C41.3088 89.6201 41.2969 89.3573 41.1984 89.1219C41.1125 88.9295 40.9766 88.7637 40.8048 88.6419C40.6388 88.5335 40.4565 88.4525 40.2648 88.4019H40.428C40.579 88.4262 40.7235 88.4809 40.8528 88.5627C41.0523 88.6831 41.2124 88.8591 41.3136 89.0691C41.4286 89.3295 41.4456 89.6227 41.3616 89.8947C41.2813 90.1654 41.1122 90.4013 40.8816 90.5643C40.6963 90.694 40.4821 90.7764 40.2576 90.8043C40.1091 90.8295 39.9573 90.8295 39.8088 90.8043C39.7532 90.7993 39.6993 90.783 39.6504 90.7563C39.8444 90.7641 40.0387 90.7553 40.2312 90.7299Z" fill="#FF9A6C"/>
<path d="M39.84 90.7659C39.7674 90.7808 39.693 90.7849 39.6192 90.7779C39.4183 90.7769 39.2177 90.7609 39.0192 90.7299C38.7173 90.6908 38.4284 90.5833 38.1744 90.4155C37.8655 90.1916 37.6515 89.8603 37.5744 89.4867C37.4959 89.122 37.5091 88.7435 37.6128 88.3851C37.6964 88.0969 37.814 87.8198 37.9632 87.5595C38.088 87.3363 38.2032 87.1659 38.28 87.0483C38.316 86.9843 38.3613 86.9261 38.4144 86.8755C38.4336 86.8755 38.2704 87.1539 38.0424 87.5955C37.9078 87.8548 37.8008 88.1274 37.7232 88.4091C37.631 88.7508 37.622 89.1096 37.6968 89.4555C37.7673 89.7995 37.961 90.1059 38.2416 90.3171C38.4794 90.4801 38.7495 90.5898 39.0336 90.6387C39.5232 90.7347 39.84 90.7419 39.84 90.7659Z" fill="#FF9A6C"/>
<path d="M42.2399 93.1178C42.1054 93.0366 41.9874 92.9307 41.8919 92.8058C41.6433 92.5208 41.4438 92.1963 41.3015 91.8458C41.1572 91.4966 41.0713 91.1261 41.0471 90.749C41.0259 90.5936 41.0348 90.4355 41.0735 90.2834C41.1224 90.8009 41.2377 91.3099 41.4167 91.7978C41.635 92.2705 41.9115 92.7139 42.2399 93.1178Z" fill="#FF9A6C"/>
<path d="M50.5512 82.9755C50.3546 82.7991 50.1805 82.5992 50.0328 82.3803C49.7016 81.9267 49.9104 81.2643 49.9104 81.2643L49.5888 81.2427C49.5375 81.5244 49.5182 81.811 49.5312 82.0971L49.092 81.4995L48.6936 81.7899L49.1544 82.4211C48.905 82.2801 48.6267 82.198 48.3408 82.1811L48.2112 82.4979C48.585 82.5223 48.9406 82.6681 49.224 82.9131" fill="#455A64"/>
<g opacity="0.3">
<path d="M50.5512 82.9755C50.3546 82.7991 50.1805 82.5992 50.0328 82.3803C49.7016 81.9267 49.9104 81.2643 49.9104 81.2643L49.5888 81.2427C49.5375 81.5244 49.5182 81.811 49.5312 82.0971L49.092 81.4995L48.6936 81.7899L49.1544 82.4211C48.905 82.2801 48.6267 82.198 48.3408 82.1811L48.2112 82.4979C48.585 82.5223 48.9406 82.6681 49.224 82.9131" fill="black"/>
</g>
<path d="M48.2664 82.9442C48.1994 83.015 48.1165 83.0687 48.0246 83.1009C47.9327 83.1331 47.8345 83.143 47.738 83.1296C47.6415 83.1162 47.5496 83.08 47.47 83.024C47.3903 82.9679 47.3252 82.8937 47.28 82.8074C47.1265 82.8587 46.9593 82.8507 46.8114 82.785C46.6635 82.7193 46.5456 82.6006 46.4808 82.4522C46.424 82.2888 46.4325 82.1097 46.5045 81.9523C46.5765 81.795 46.7064 81.6714 46.8672 81.6074C46.761 81.4965 46.6922 81.3551 46.6706 81.2031C46.6489 81.0511 46.6754 80.8962 46.7464 80.76C46.8174 80.6239 46.9293 80.5134 47.0663 80.4441C47.2034 80.3748 47.3587 80.3503 47.5104 80.3738C47.4937 80.1871 47.5355 79.9997 47.63 79.8377C47.7245 79.6757 47.867 79.5471 48.0378 79.4696C48.2086 79.3921 48.3992 79.3696 48.5833 79.4052C48.7675 79.4408 48.936 79.5327 49.0656 79.6682C49.0897 79.5969 49.1276 79.5309 49.1772 79.4742C49.2268 79.4175 49.2871 79.3711 49.3546 79.3376C49.4221 79.3042 49.4956 79.2844 49.5708 79.2794C49.646 79.2743 49.7214 79.2841 49.7928 79.3082C49.8642 79.3324 49.9301 79.3703 49.9868 79.4199C50.0436 79.4695 50.09 79.5298 50.1234 79.5973C50.1568 79.6648 50.1766 79.7383 50.1817 79.8134C50.1867 79.8886 50.1769 79.9641 50.1528 80.0354C50.2809 80.0187 50.4111 80.0428 50.5248 80.1043C50.6384 80.1658 50.7298 80.2616 50.7859 80.378C50.842 80.4945 50.86 80.6256 50.8372 80.7528C50.8144 80.8801 50.7522 80.9969 50.6592 81.0866C50.5778 81.1765 50.4692 81.2372 50.3501 81.2598C50.231 81.2823 50.1078 81.2653 49.9992 81.2114C49.9644 81.2949 49.9076 81.3673 49.8349 81.4209C49.7622 81.4746 49.6763 81.5076 49.5864 81.5162C49.5005 81.5289 49.4128 81.5166 49.3336 81.4809C49.2545 81.4451 49.1873 81.3874 49.14 81.3146C49.1516 81.4238 49.1358 81.5341 49.0938 81.6356C49.0519 81.737 48.9853 81.8264 48.9 81.8954C48.7416 82.0442 48.5928 82.0418 48.3216 81.9962C48.5592 82.3802 48.564 82.6706 48.2664 82.9442Z" fill="#455A64"/>
<g opacity="0.3">
<path d="M49.2288 80.3955C49.2055 80.38 49.1831 80.3631 49.1616 80.3451C49.099 80.303 49.0276 80.2759 48.9528 80.2659C48.8428 80.251 48.731 80.2766 48.6384 80.3379C48.5846 80.3779 48.5404 80.4295 48.5092 80.4889C48.4781 80.5484 48.4607 80.6141 48.4584 80.6811C48.4544 80.7584 48.4709 80.8355 48.5064 80.9043L48.5472 80.9787L48.48 80.9403C48.4344 80.9151 48.3837 80.9008 48.3317 80.8983C48.2797 80.8958 48.2278 80.9052 48.18 80.9259C48.1024 80.9608 48.0413 81.0245 48.0096 81.1035C47.9821 81.1804 47.9747 81.263 47.988 81.3435C47.9751 81.3251 47.9676 81.3035 47.9664 81.2811C47.9554 81.2217 47.9604 81.1604 47.9808 81.1035C47.9956 81.0588 48.0191 81.0176 48.05 80.9821C48.0809 80.9467 48.1186 80.9178 48.1608 80.8971C48.2149 80.872 48.2742 80.8599 48.3339 80.862C48.3935 80.8641 48.4518 80.8802 48.504 80.9091L48.4728 80.9403C48.433 80.8667 48.4132 80.784 48.4152 80.7003C48.4191 80.626 48.4394 80.5534 48.4747 80.4878C48.51 80.4223 48.5593 80.3653 48.6192 80.3211C48.7218 80.2557 48.8453 80.2317 48.9648 80.2539C49.0443 80.267 49.1188 80.3009 49.1808 80.3523C49.2168 80.3667 49.2312 80.3931 49.2288 80.3955Z" fill="black"/>
</g>
<g opacity="0.3">
<path d="M47.2249 82.6203C47.2249 82.6203 47.1961 82.5987 47.1793 82.5459C47.1582 82.4769 47.1633 82.4025 47.1937 82.3371C47.2208 82.2699 47.271 82.2146 47.3353 82.1811C47.3857 82.1571 47.4217 82.1595 47.4217 82.1643C47.4217 82.1691 47.3929 82.1835 47.3545 82.2099C47.3037 82.2475 47.2639 82.298 47.2393 82.3563C47.2143 82.4136 47.2051 82.4766 47.2129 82.5387C47.2201 82.5867 47.2321 82.6203 47.2249 82.6203Z" fill="black"/>
</g>
</svg>
