<svg width="180" height="121" viewBox="0 0 180 121" fill="none" xmlns="http://www.w3.org/2000/svg">
<path d="M172.58 44.7578C167.853 38.5113 160.413 35.5892 153.63 37.3185C149.422 38.3891 145.62 41.0645 141.69 43.201C137.76 45.3374 133.399 46.9829 129.207 45.8356C124.925 44.6596 121.481 40.7411 118.782 36.4778C116.083 32.2144 113.888 27.4529 110.873 23.5249C104.488 15.2017 94.4691 11.403 85.3953 13.8628C76.3216 16.3227 68.5197 24.95 65.5527 35.8096C61.6284 50.76 65.3799 68.0266 74.1449 79.4299C82.9099 90.8332 95.24 97.2258 107.723 100.34C127.335 105.24 153.316 104.411 165.879 91.8415C171.669 86.0453 175.48 76.5533 177.286 68.6086C179.145 60.3622 177.306 50.9996 172.58 44.7578Z" fill="#FAEED1"/>
<path d="M173.561 111.638C173.561 111.671 136.039 111.7 89.7648 111.7C43.4904 111.7 5.95923 111.671 5.95923 111.638C5.95923 111.604 43.4736 111.573 89.7648 111.573C136.056 111.573 173.561 111.602 173.561 111.638Z" fill="#263238"/>
<path d="M133.05 54.2729L122.034 70.2066H127.137L136.245 57.3762L133.05 54.2729Z" fill="#FFBE9D"/>
<path d="M150.234 84.6953H129.966V60.8297C129.966 60.197 130.217 59.5902 130.665 59.1428C131.112 58.6955 131.719 58.4441 132.352 58.4441H147.849C148.481 58.4441 149.088 58.6955 149.535 59.1428C149.983 59.5902 150.234 60.197 150.234 60.8297V84.6953Z" fill="#455A64"/>
<path d="M129.155 88.9626H151.043C152.143 88.9626 153.035 88.0708 153.035 86.9706V86.5843C153.035 85.4841 152.143 84.5922 151.043 84.5922H129.155C128.055 84.5922 127.163 85.4841 127.163 86.5843V86.9706C127.163 88.0708 128.055 88.9626 129.155 88.9626Z" fill="#455A64"/>
<path d="M130.523 110.999H131.857V88.4489H130.523V110.999Z" fill="#455A64"/>
<path d="M148.573 111.734H150.234V88.504H148.573V111.734Z" fill="#455A64"/>
<path d="M131.471 101.325H149.91V100.228H131.471V101.325Z" fill="#455A64"/>
<path d="M142.328 44.7209C142.299 44.8155 142.297 44.9166 142.324 45.012C142.351 45.1073 142.406 45.1925 142.481 45.2572C142.556 45.3218 142.649 45.363 142.747 45.3756C142.845 45.3882 142.945 45.3717 143.034 45.3281C143.37 45.1625 143.418 44.7041 143.358 44.3345C143.298 43.9649 143.176 43.5689 143.334 43.2305C143.491 42.9903 143.688 42.7792 143.917 42.6065C144.095 42.4301 144.229 42.2151 144.309 41.9781C144.39 41.7412 144.414 41.4889 144.38 41.2409C144.342 40.9937 144.235 40.762 144.073 40.5715C143.911 40.3809 143.699 40.2388 143.461 40.1609C142.981 40.0193 142.364 40.1609 142.004 39.8033C141.743 39.5417 141.731 39.1193 141.524 38.8097C141.212 38.3297 140.54 38.2457 139.972 38.3153C139.403 38.3849 138.822 38.5553 138.268 38.4161C137.804 38.2961 137.428 37.9673 136.996 37.7633C136.523 37.5392 135.992 37.4687 135.477 37.5615C134.962 37.6544 134.488 37.906 134.124 38.2812C133.759 38.6564 133.52 39.1363 133.442 39.6537C133.363 40.1711 133.449 40.7001 133.686 41.1665C133.856 41.5001 134.192 42.4577 135.258 42.4577" fill="#263238"/>
<path d="M142.549 40.737L142.535 41.5002L142.381 52.9362C142.365 54.2634 141.208 55.305 139.787 55.2762C138.347 55.245 137.185 54.1338 137.181 52.7922C137.181 51.3858 137.147 49.9122 137.147 49.9122C137.147 49.9122 135.333 49.6122 134.958 47.2458C134.771 46.0674 134.829 44.1402 134.929 42.561C134.95 42.2246 135.039 41.8958 135.19 41.5946C135.341 41.2934 135.552 41.026 135.81 40.8085C136.067 40.5909 136.366 40.4278 136.688 40.3289C137.01 40.23 137.349 40.1973 137.685 40.233L142.549 40.737Z" fill="#FFBE9D"/>
<path d="M135.414 43.8952C135.413 43.9746 135.443 44.0513 135.498 44.1088C135.552 44.1663 135.628 44.1999 135.707 44.2024C135.745 44.2054 135.784 44.2006 135.821 44.1883C135.858 44.1761 135.891 44.1567 135.92 44.1312C135.949 44.1057 135.973 44.0747 135.99 44.04C136.007 44.0052 136.017 43.9674 136.019 43.9288C136.02 43.8496 135.989 43.7733 135.935 43.7159C135.88 43.6586 135.805 43.6247 135.726 43.6216C135.687 43.6184 135.649 43.6229 135.612 43.635C135.575 43.6471 135.541 43.6665 135.512 43.6921C135.483 43.7176 135.459 43.7488 135.442 43.7837C135.425 43.8186 135.416 43.8565 135.414 43.8952Z" fill="#263238"/>
<path d="M135.347 43.5569C135.385 43.5953 135.616 43.4249 135.942 43.4273C136.269 43.4297 136.509 43.5905 136.542 43.5497C136.576 43.5089 136.523 43.4609 136.417 43.3865C136.277 43.2875 136.109 43.2354 135.937 43.2377C135.765 43.2341 135.596 43.2872 135.457 43.3889C135.364 43.4657 135.33 43.5377 135.347 43.5569Z" fill="#263238"/>
<path d="M138.683 43.8952C138.682 43.9746 138.712 44.0513 138.766 44.1088C138.821 44.1663 138.896 44.1999 138.976 44.2024C139.014 44.2054 139.053 44.2006 139.09 44.1883C139.126 44.1761 139.16 44.1567 139.189 44.1312C139.218 44.1057 139.242 44.0747 139.259 44.04C139.276 44.0052 139.286 43.9674 139.288 43.9288C139.288 43.8496 139.258 43.7733 139.204 43.7159C139.149 43.6586 139.074 43.6247 138.995 43.6216C138.956 43.6184 138.917 43.6229 138.881 43.635C138.844 43.6471 138.81 43.6665 138.781 43.6921C138.752 43.7176 138.728 43.7488 138.711 43.7837C138.694 43.8186 138.685 43.8565 138.683 43.8952Z" fill="#263238"/>
<path d="M138.558 43.6168C138.594 43.6552 138.825 43.4872 139.151 43.4872C139.477 43.4872 139.717 43.6504 139.753 43.612C139.789 43.5736 139.732 43.5232 139.629 43.4464C139.488 43.3486 139.32 43.2966 139.149 43.2976C138.976 43.2962 138.808 43.3501 138.669 43.4512C138.573 43.528 138.539 43.6 138.558 43.6168Z" fill="#263238"/>
<path d="M137.373 46.0386C137.2 45.9846 137.022 45.9523 136.842 45.9426C136.758 45.9426 136.679 45.9186 136.665 45.861C136.66 45.7771 136.68 45.6936 136.722 45.621L136.962 44.985C137.191 44.4473 137.377 43.8919 137.517 43.3242C137.246 43.8432 137.017 44.3825 136.83 44.937L136.59 45.5754C136.537 45.6764 136.522 45.793 136.547 45.9042C136.559 45.9337 136.577 45.96 136.601 45.9813C136.625 46.0025 136.653 46.018 136.684 46.0266C136.73 46.0381 136.778 46.0446 136.825 46.0458C137.007 46.067 137.191 46.0646 137.373 46.0386Z" fill="#263238"/>
<path d="M137.147 49.9027C138.261 49.92 139.358 49.6275 140.315 49.0579C140.315 49.0579 139.547 50.6827 137.178 50.4619L137.147 49.9027Z" fill="#EB996E"/>
<path d="M138.332 46.2642C138.28 46.2642 138.28 46.617 137.975 46.8666C137.67 47.1162 137.296 47.0802 137.293 47.1306C137.291 47.181 137.377 47.1978 137.533 47.2026C137.741 47.2051 137.943 47.1346 138.104 47.0034C138.258 46.8776 138.357 46.6969 138.38 46.4994C138.4 46.3506 138.356 46.2618 138.332 46.2642Z" fill="#263238"/>
<path d="M138.474 42.3379C138.505 42.4267 138.832 42.3835 139.213 42.4291C139.595 42.4747 139.907 42.5803 139.957 42.5011C139.981 42.4627 139.926 42.3787 139.801 42.2947C139.635 42.1884 139.447 42.1219 139.251 42.1003C139.055 42.0786 138.856 42.1024 138.671 42.1699C138.529 42.2251 138.46 42.2947 138.474 42.3379Z" fill="#263238"/>
<path d="M135.467 42.6114C135.525 42.6858 135.75 42.6114 136.021 42.6114C136.293 42.6114 136.521 42.6618 136.573 42.585C136.595 42.5466 136.559 42.4722 136.461 42.4026C136.326 42.3163 136.169 42.2736 136.009 42.2802C135.851 42.2819 135.697 42.334 135.57 42.429C135.474 42.4986 135.443 42.5754 135.467 42.6114Z" fill="#263238"/>
<path d="M134.85 41.4258C134.85 41.4258 136.05 42.0594 137.682 41.313C138.745 40.821 139.974 40.605 140.238 40.833C140.502 41.061 140.524 42.1338 141.551 42.4818C141.551 42.4818 141.414 44.541 142.24 44.493C143.065 44.445 142.938 40.3146 142.938 40.3146L140.673 40.1946L138.491 39.7146L136.211 39.9906L134.598 40.377L134.85 41.4258Z" fill="#263238"/>
<path d="M142.993 39.7985C143.005 39.7673 142.811 39.6953 142.583 39.7769C142.355 39.8585 142.252 40.0385 142.28 40.0553C142.309 40.0721 142.434 39.9593 142.626 39.8945C142.818 39.8297 142.986 39.8297 142.993 39.7985Z" fill="#263238"/>
<path d="M142.312 39.0977C142.273 39.0977 142.285 39.3377 142.242 39.6209C142.199 39.9041 142.081 40.1009 142.11 40.1249C142.139 40.1489 142.319 39.9545 142.365 39.6449C142.412 39.462 142.394 39.2681 142.312 39.0977Z" fill="#263238"/>
<path d="M142.192 43.7129C142.225 43.6961 143.56 43.2329 143.572 44.6249C143.584 46.0169 142.199 45.7337 142.196 45.6929C142.194 45.6521 142.192 43.7129 142.192 43.7129Z" fill="#FFBE9D"/>
<path d="M142.612 45.1674C142.612 45.1674 142.636 45.1842 142.676 45.201C142.734 45.2243 142.799 45.2243 142.856 45.201C142.945 45.1436 143.017 45.0635 143.064 44.9689C143.112 44.8744 143.133 44.7688 143.125 44.6634C143.128 44.5452 143.104 44.4279 143.056 44.3202C143.042 44.2773 143.019 44.2383 142.987 44.2066C142.955 44.1748 142.916 44.1512 142.873 44.1378C142.846 44.1306 142.816 44.1334 142.79 44.1457C142.764 44.158 142.744 44.179 142.732 44.205C142.712 44.2434 142.732 44.2722 142.715 44.2746C142.698 44.277 142.686 44.2506 142.696 44.1954C142.702 44.1605 142.721 44.129 142.748 44.1066C142.787 44.078 142.835 44.0651 142.883 44.0706C142.939 44.0817 142.992 44.1068 143.036 44.1438C143.08 44.1807 143.114 44.2282 143.135 44.2818C143.195 44.4007 143.226 44.5325 143.224 44.6658C143.231 44.7887 143.203 44.9111 143.141 45.0179C143.08 45.1246 142.988 45.2108 142.878 45.2658C142.841 45.2766 142.802 45.2793 142.764 45.2735C142.726 45.2677 142.689 45.2536 142.657 45.2322C142.614 45.201 142.607 45.1698 142.612 45.1674Z" fill="#EB996E"/>
<path d="M148.451 58.588C148.451 58.588 148.998 75.0784 148.96 76.6696L131.737 76.468L133.153 67.7152V62.6296L131.593 64.9552L126.887 61.06L131.927 54.58C132.827 53.6409 133.934 52.925 135.16 52.4896C135.81 52.2561 136.493 52.125 137.183 52.1008C138.775 52.6036 140.483 52.6036 142.074 52.1008C142.271 52.1272 142.554 52.1536 142.895 52.1944H142.957C144.411 52.3774 145.754 53.066 146.751 54.1398C147.748 55.2136 148.335 56.6039 148.41 58.0672L148.451 58.588Z" fill="#7E57C2"/>
<path d="M133.199 62.085C133.136 61.3299 133.115 60.572 133.136 59.8146C133.115 59.0572 133.136 58.2992 133.199 57.5442C133.261 58.2993 133.282 59.0572 133.261 59.8146C133.281 60.572 133.261 61.3299 133.199 62.085Z" fill="#263238"/>
<path d="M142.909 52.1897C142.909 52.1897 148.712 52.2329 149.432 58.3625L149.792 62.9225L144.532 62.8193L142.909 52.1897Z" fill="#7E57C2"/>
<g opacity="0.3">
<path d="M144.116 57.4841L143.281 64.7993L145.163 65.9345L144.978 62.8241L144.469 62.8145L144.116 57.4841Z" fill="black"/>
</g>
<path d="M115.825 96.3426L116.91 94.0986L121.12 96.105L119.567 99.4026L119.298 99.2946C118.098 98.8146 113.264 96.7242 112.6 96.1194C111.86 95.445 115.825 96.3426 115.825 96.3426Z" fill="#455A64"/>
<path d="M119.68 99.3329L119.603 99.3065L119.389 99.2201L118.607 98.8889C117.949 98.6057 117.047 98.2001 116.058 97.7321C115.069 97.2641 114.184 96.8201 113.548 96.4889L112.797 96.0929L112.593 95.9825L112.525 95.9417C112.552 95.9484 112.577 95.9589 112.6 95.9729L112.806 96.0737L113.565 96.4529C114.205 96.7745 115.093 97.2137 116.082 97.6817C117.071 98.1497 117.971 98.5601 118.624 98.8529L119.399 99.2009L119.608 99.2969L119.68 99.3329Z" fill="#263238"/>
<path d="M113.944 96.7505C113.97 96.6081 113.98 96.4632 113.975 96.3185C113.951 96.175 113.91 96.0348 113.853 95.9009C113.952 96.0166 114.014 96.1598 114.03 96.3115C114.046 96.4632 114.016 96.6163 113.944 96.7505Z" fill="#263238"/>
<path d="M115.487 96.7122C115.451 96.6424 115.432 96.5651 115.432 96.4866C115.415 96.3594 115.415 96.2466 115.432 96.2466C115.467 96.3167 115.486 96.3938 115.487 96.4722C115.504 96.6066 115.504 96.7098 115.487 96.7122Z" fill="#263238"/>
<path d="M115.914 96.693C115.9 96.693 115.854 96.6234 115.813 96.5226C115.772 96.4218 115.748 96.3378 115.763 96.333C115.777 96.3282 115.823 96.4026 115.866 96.501C115.909 96.5994 115.928 96.6786 115.914 96.693Z" fill="#263238"/>
<path d="M116.32 96.3978C116.235 96.392 116.152 96.3656 116.08 96.321C116.001 96.2947 115.929 96.2513 115.868 96.1938C115.953 96.1999 116.036 96.2262 116.108 96.2706C116.231 96.3258 116.32 96.3834 116.32 96.3978Z" fill="#263238"/>
<path d="M116.526 96.1531C116.431 96.1661 116.334 96.1502 116.248 96.1075C116.099 96.0499 116.008 95.9659 116.008 95.9539C116.179 96.0222 116.351 96.0886 116.524 96.1531H116.526Z" fill="#263238"/>
<path d="M115.518 96.2753C115.422 96.2483 115.331 96.2044 115.249 96.1457C115.157 96.0863 115.07 96.0188 114.99 95.9441C114.941 95.9004 114.897 95.8513 114.858 95.7977C114.846 95.7813 114.838 95.7626 114.833 95.7428C114.829 95.723 114.828 95.7025 114.832 95.6825C114.836 95.6604 114.848 95.6402 114.864 95.6244C114.88 95.6086 114.901 95.598 114.923 95.5938C115.005 95.5938 115.086 95.6119 115.16 95.6467C115.234 95.6815 115.3 95.7321 115.352 95.7951C115.405 95.8581 115.443 95.9318 115.463 96.011C115.484 96.0903 115.487 96.1732 115.472 96.2537C115.468 96.281 115.458 96.3072 115.444 96.3305C115.455 96.2336 115.45 96.1355 115.429 96.0401C115.404 95.9399 115.348 95.8496 115.271 95.7809C115.181 95.6955 115.061 95.6482 114.937 95.6489C114.88 95.6609 114.872 95.7185 114.906 95.7689C114.941 95.8191 114.982 95.8658 115.026 95.9081C115.101 95.9821 115.181 96.0503 115.266 96.1122C115.42 96.2178 115.523 96.2681 115.518 96.2753Z" fill="#263238"/>
<path d="M115.444 96.2561C115.444 96.2561 115.429 96.1697 115.501 96.0521C115.544 95.9859 115.601 95.9308 115.669 95.8913C115.711 95.8616 115.759 95.8431 115.81 95.8376C115.861 95.8322 115.913 95.8399 115.96 95.8601C115.984 95.8787 116 95.9063 116.005 95.9368C116.009 95.9673 116.002 95.9984 115.984 96.0233C115.957 96.0644 115.922 96.0989 115.88 96.1241C115.816 96.1671 115.747 96.2017 115.674 96.2273C115.609 96.2539 115.538 96.2662 115.468 96.2633C115.468 96.2633 115.544 96.2393 115.66 96.1889C115.727 96.1601 115.792 96.1239 115.852 96.0809C115.914 96.0401 115.988 95.9513 115.926 95.9057C115.886 95.8914 115.844 95.8868 115.802 95.8922C115.76 95.8976 115.721 95.913 115.686 95.9369C115.623 95.971 115.569 96.0185 115.528 96.0761C115.493 96.1331 115.465 96.1934 115.444 96.2561Z" fill="#263238"/>
<path d="M120.141 98.1403C120.141 98.1403 120.025 98.0707 119.824 98.0035C119.562 97.9138 119.28 97.8988 119.01 97.9603C118.742 98.0257 118.497 98.1636 118.302 98.3587C118.151 98.5075 118.086 98.6275 118.079 98.6203C118.072 98.6131 118.079 98.5891 118.117 98.5363C118.162 98.4624 118.214 98.3932 118.273 98.3299C118.466 98.1184 118.719 97.9704 118.998 97.9053C119.277 97.8402 119.569 97.861 119.836 97.9651C119.92 97.9949 120 98.0335 120.076 98.0803C120.1 98.0972 120.122 98.1174 120.141 98.1403Z" fill="#263238"/>
<path d="M120.536 96.177C120.43 96.4787 120.304 96.7736 120.162 97.0602C120.037 97.3556 119.894 97.6433 119.735 97.9218C119.842 97.6201 119.967 97.3252 120.109 97.0386C120.235 96.7432 120.377 96.4555 120.536 96.177Z" fill="#263238"/>
<path d="M117.726 97.9792C117.502 97.9275 117.285 97.8468 117.081 97.7392C116.87 97.6504 116.671 97.536 116.488 97.3984C116.488 97.384 116.764 97.5328 117.105 97.6888C117.445 97.8448 117.731 97.9624 117.726 97.9792Z" fill="#263238"/>
<path d="M118.552 98.3704C118.552 98.3848 118.501 98.4184 118.444 98.4688C118.386 98.5192 118.343 98.5672 118.328 98.5576C118.314 98.548 118.328 98.4809 118.408 98.4257C118.487 98.3705 118.547 98.3584 118.552 98.3704Z" fill="#263238"/>
<path d="M119.046 98.1306C119.046 98.145 119.005 98.1762 118.941 98.2002C118.876 98.2242 118.818 98.2314 118.813 98.217C118.809 98.2026 118.857 98.1714 118.921 98.1474C118.986 98.1234 119.041 98.1186 119.046 98.1306Z" fill="#263238"/>
<path d="M119.577 98.1665C119.577 98.1785 119.512 98.1521 119.44 98.1449C119.368 98.1377 119.305 98.1449 119.301 98.1329C119.296 98.1209 119.356 98.0777 119.445 98.0873C119.533 98.0969 119.586 98.1545 119.577 98.1665Z" fill="#263238"/>
<path d="M119.934 98.2337C119.934 98.2481 119.898 98.2577 119.857 98.2553C119.817 98.2529 119.783 98.236 119.783 98.2216C119.783 98.2072 119.819 98.1952 119.86 98.2C119.901 98.2048 119.934 98.2169 119.934 98.2337Z" fill="#263238"/>
<path d="M128.764 110.531L128.8 108.04L133.465 108.074L133.453 111.719L133.165 111.736C131.877 111.798 126.609 111.959 125.752 111.693C124.792 111.393 128.764 110.531 128.764 110.531Z" fill="#455A64"/>
<path d="M133.521 111.614H133.441L133.201 111.626L132.352 111.657C131.632 111.678 130.645 111.693 129.551 111.686C128.457 111.678 127.465 111.652 126.75 111.623L125.903 111.58L125.663 111.566H125.581H125.68H125.92L126.769 111.59C127.489 111.609 128.476 111.63 129.568 111.638C130.66 111.645 131.651 111.638 132.368 111.623H133.216H133.456L133.521 111.614Z" fill="#263238"/>
<path d="M127.232 111.698C127.177 111.409 127.02 111.15 126.791 110.966C126.935 111.02 127.054 111.126 127.124 111.263C127.214 111.389 127.252 111.545 127.232 111.698Z" fill="#263238"/>
<path d="M128.615 111.009C128.601 111.009 128.536 110.937 128.469 110.829C128.42 110.767 128.386 110.695 128.37 110.618C128.385 110.618 128.449 110.692 128.517 110.798C128.565 110.86 128.599 110.932 128.615 111.009Z" fill="#263238"/>
<path d="M128.994 110.812C128.982 110.824 128.91 110.774 128.831 110.702C128.752 110.63 128.694 110.56 128.704 110.548C128.713 110.536 128.788 110.587 128.869 110.659C128.951 110.731 129.004 110.8 128.994 110.812Z" fill="#263238"/>
<path d="M129.237 110.373C129.16 110.4 129.078 110.409 128.997 110.402C128.916 110.409 128.834 110.4 128.757 110.375C128.833 110.348 128.915 110.338 128.997 110.347C129.078 110.336 129.16 110.345 129.237 110.373Z" fill="#263238"/>
<path d="M129.321 110.063C129.239 110.116 129.144 110.143 129.047 110.14C128.952 110.158 128.854 110.144 128.769 110.099C128.86 110.087 128.952 110.081 129.045 110.083C129.136 110.066 129.228 110.06 129.321 110.063Z" fill="#263238"/>
<path d="M128.459 110.599C128.359 110.615 128.258 110.615 128.159 110.599C128.05 110.584 127.944 110.56 127.84 110.527C127.776 110.507 127.715 110.481 127.657 110.45C127.64 110.44 127.624 110.426 127.612 110.41C127.599 110.394 127.59 110.376 127.585 110.356C127.58 110.334 127.582 110.311 127.59 110.289C127.598 110.268 127.612 110.25 127.631 110.236C127.705 110.201 127.786 110.182 127.868 110.182C127.95 110.182 128.032 110.2 128.106 110.235C128.18 110.27 128.246 110.322 128.298 110.385C128.35 110.449 128.387 110.524 128.406 110.603C128.412 110.63 128.412 110.658 128.406 110.685C128.378 110.592 128.332 110.505 128.272 110.428C128.205 110.349 128.117 110.29 128.017 110.26C127.959 110.239 127.898 110.231 127.836 110.234C127.775 110.238 127.715 110.254 127.66 110.282C127.612 110.315 127.628 110.373 127.681 110.404C127.735 110.434 127.791 110.458 127.849 110.476C127.95 110.513 128.053 110.541 128.159 110.56C128.344 110.599 128.459 110.599 128.459 110.599Z" fill="#263238"/>
<path d="M128.382 110.615C128.346 110.552 128.334 110.478 128.348 110.406C128.357 110.328 128.386 110.252 128.432 110.188C128.456 110.145 128.491 110.108 128.533 110.081C128.575 110.055 128.623 110.04 128.672 110.037C128.688 110.04 128.702 110.046 128.715 110.055C128.727 110.064 128.738 110.075 128.747 110.088C128.755 110.1 128.761 110.115 128.764 110.13C128.767 110.145 128.767 110.161 128.764 110.176C128.757 110.224 128.74 110.27 128.713 110.31C128.673 110.376 128.625 110.437 128.569 110.49C128.523 110.544 128.463 110.586 128.396 110.61C128.396 110.61 128.456 110.558 128.54 110.462C128.589 110.407 128.632 110.348 128.668 110.284C128.708 110.219 128.737 110.106 128.668 110.092C128.598 110.078 128.514 110.159 128.468 110.219C128.425 110.277 128.396 110.343 128.382 110.414C128.375 110.481 128.375 110.548 128.382 110.615Z" fill="#263238"/>
<path d="M133.434 110.335C133.434 110.347 133.3 110.335 133.088 110.347C132.814 110.376 132.553 110.482 132.335 110.651C132.117 110.823 131.951 111.051 131.855 111.311C131.783 111.511 131.776 111.645 131.764 111.645C131.758 111.613 131.758 111.581 131.764 111.549C131.772 111.467 131.79 111.387 131.816 111.309C131.901 111.035 132.068 110.793 132.293 110.616C132.518 110.438 132.792 110.334 133.079 110.315C133.164 110.307 133.25 110.307 133.336 110.315C133.369 110.317 133.402 110.323 133.434 110.335Z" fill="#263238"/>
<path d="M132.964 108.391C132.995 108.71 133.006 109.03 132.997 109.351C133.009 109.671 133.002 109.991 132.976 110.311C132.945 109.992 132.933 109.671 132.942 109.351C132.931 109.03 132.938 108.71 132.964 108.391Z" fill="#263238"/>
<path d="M131.178 111.211C130.728 111.294 130.266 111.294 129.815 111.211C129.815 111.194 130.12 111.211 130.497 111.211C130.873 111.211 131.176 111.196 131.178 111.211Z" fill="#263238"/>
<path d="M132.093 111.215C132.093 111.227 132.069 111.28 132.035 111.35C132.001 111.419 131.987 111.482 131.97 111.482C131.953 111.482 131.946 111.407 131.985 111.326C132.023 111.244 132.083 111.206 132.093 111.215Z" fill="#263238"/>
<path d="M132.44 110.791C132.452 110.791 132.421 110.848 132.373 110.899C132.325 110.949 132.275 110.978 132.265 110.966C132.256 110.954 132.284 110.906 132.332 110.858C132.38 110.81 132.428 110.779 132.44 110.791Z" fill="#263238"/>
<path d="M132.935 110.599C132.935 110.615 132.87 110.615 132.8 110.639C132.731 110.663 132.683 110.697 132.671 110.687C132.659 110.678 132.697 110.613 132.784 110.584C132.87 110.555 132.94 110.582 132.935 110.599Z" fill="#263238"/>
<path d="M133.288 110.507C133.288 110.522 133.266 110.546 133.228 110.56C133.189 110.575 133.151 110.575 133.146 110.56C133.141 110.546 133.168 110.522 133.206 110.507C133.244 110.493 133.28 110.493 133.288 110.507Z" fill="#263238"/>
<path d="M148.305 76.8402C148.305 76.8402 126.918 70.6002 124.989 71.5146C123.059 72.429 115.057 94.7946 115.057 94.7946L121.192 97.7826L128.999 78.7026C128.999 78.7026 144.191 84.6162 146.627 84.1146C149.063 83.613 148.305 76.8402 148.305 76.8402Z" fill="#263238"/>
<path d="M139.278 76.2065C138.973 76.3073 127.249 80.1449 126.436 81.6641C125.622 83.1833 126.817 110.491 126.817 110.491L134.43 110.476L133.914 84.4625L146.749 84.1409L139.278 76.2065Z" fill="#263238"/>
<path d="M146.817 84.1385C146.753 84.1377 146.689 84.1297 146.627 84.1145L146.092 84.0185C145.626 83.9345 144.954 83.8001 144.129 83.6225C142.475 83.2721 140.197 82.7417 137.718 82.0289C136.477 81.6665 135.306 81.2921 134.25 80.9273C133.194 80.5625 132.253 80.2073 131.476 79.8665C131.082 79.7057 130.734 79.5497 130.429 79.4105C130.125 79.2713 129.861 79.1513 129.649 79.0433L129.169 78.8033C129.112 78.7781 129.057 78.7467 129.006 78.7097C129.067 78.7262 129.127 78.7487 129.184 78.7769L129.681 78.9977C129.894 79.0961 130.161 79.2113 130.47 79.3409C130.78 79.4705 131.128 79.6217 131.521 79.7753C132.304 80.0945 133.249 80.4353 134.303 80.8025C135.357 81.1697 136.53 81.5225 137.766 81.8897C140.243 82.6097 142.511 83.1497 144.16 83.5265L146.104 83.9585L146.632 84.0809C146.695 84.0934 146.757 84.1127 146.817 84.1385Z" fill="#455A64"/>
<path d="M126.258 87.6809C126.226 87.5568 126.206 87.4297 126.198 87.3017L126.09 86.2673C126.049 85.8185 126.001 85.3073 125.951 84.7289C125.863 84.0975 125.863 83.4571 125.951 82.8257C126.082 82.1874 126.419 81.6098 126.911 81.1817C127.302 80.8351 127.745 80.5517 128.224 80.3417C128.627 80.1593 128.965 80.0417 129.198 79.9601C129.317 79.9129 129.44 79.8775 129.565 79.8545C129.577 79.8809 129.059 80.0609 128.269 80.4377C127.809 80.6561 127.383 80.9407 127.004 81.2825C126.543 81.6963 126.225 82.2473 126.1 82.8545C126.019 83.4735 126.019 84.1003 126.1 84.7193C126.14 85.2905 126.176 85.8089 126.208 86.2577C126.239 86.7065 126.253 87.0209 126.268 87.2969C126.277 87.4249 126.274 87.5535 126.258 87.6809Z" fill="#455A64"/>
<path d="M135.392 64.6792L141.956 70.6432C143.531 72.0832 146.384 72.4312 148.153 71.2528C149.214 70.5448 149.428 69.2488 149.641 67.9912C150.037 65.6704 149.708 62.9176 149.708 62.9176L144.978 62.824L145.11 65.8312L137.2 61.3624L137.058 61.1896C136.969 60.9688 136.873 60.7096 136.775 60.3928C136.689 60.1198 136.65 59.8341 136.66 59.548C136.663 59.2249 136.701 58.9032 136.772 58.588C136.779 58.5651 136.787 58.5427 136.796 58.5208C136.826 58.4584 136.836 58.3888 136.826 58.3206C136.816 58.2524 136.786 58.1887 136.74 58.1375C136.694 58.0862 136.633 58.0497 136.567 58.0325C136.5 58.0154 136.43 58.0182 136.364 58.0408C136.124 58.1848 135.82 58.9 135.815 59.8312C135.814 59.8456 135.814 59.8601 135.815 59.8744C135.784 60.8176 134.908 59.6344 134.584 59.2144C134.26 58.7944 133.187 57.5344 132.978 57.5344C132.676 57.5344 132.618 57.868 132.954 58.2832C133.29 58.6984 134.209 60.0184 133.984 60.1864C133.758 60.3544 132.126 58.168 132.126 58.168C132.126 58.168 131.85 57.6448 131.581 57.8272C131.101 58.1608 133 60.3472 133.184 60.5512C133.314 60.6928 133.074 60.8824 132.944 60.724C132.815 60.5656 131.365 58.5088 130.868 58.8424C130.487 59.0968 132.419 60.6568 132.486 61.2424C132.553 61.828 131.14 59.9056 130.784 60.1672C130.652 60.2632 130.568 60.3544 131.536 61.3432C132.33 62.0825 133.164 62.7779 134.034 63.4264L135.392 64.6792Z" fill="#FFBE9D"/>
<path d="M149.793 62.9178C149.759 62.9224 149.725 62.9224 149.692 62.9178H149.399H148.297L144.457 62.865H144.405V62.8098C144.347 61.9362 144.282 60.9786 144.215 59.9778C144.143 58.8522 144.064 57.7842 144.018 56.805C143.993 56.3375 144.029 55.8687 144.126 55.4106C144.215 55.0094 144.392 54.6326 144.642 54.3066C144.849 54.0359 145.126 53.8268 145.444 53.7018C145.684 53.6098 145.941 53.5729 146.197 53.5938C146.358 53.6079 146.514 53.6519 146.658 53.7234C146.696 53.7411 146.732 53.762 146.766 53.7858C146.79 53.8026 146.802 53.8098 146.8 53.8122C146.61 53.7167 146.404 53.6596 146.193 53.6442C145.946 53.6303 145.7 53.6721 145.473 53.7666C145.171 53.8931 144.909 54.0988 144.714 54.3618C144.478 54.6805 144.315 55.0465 144.234 55.4346C144.145 55.884 144.113 56.3429 144.141 56.8002C144.193 57.7602 144.275 58.845 144.347 59.9706C144.412 60.969 144.472 61.9266 144.529 62.8026L144.472 62.7474L148.312 62.8458L149.411 62.8842L149.704 62.8986C149.734 62.9022 149.764 62.9087 149.793 62.9178Z" fill="#263238"/>
<path d="M105.908 60.9027L106.947 61.0611C107.907 61.1235 108.435 61.1931 108.74 60.9867C109.148 60.7083 108.716 60.2979 108.716 60.2979C108.716 60.2979 109.436 60.1755 109.436 59.7507C109.436 59.4603 109.122 59.3739 109.122 59.3739C109.122 59.3739 109.762 59.2371 109.923 59.0067C110.142 58.6923 109.746 58.4403 109.746 58.4403C110.65 58.0683 110.658 57.5547 110.466 57.4803C110.274 57.4059 109.594 57.5907 109.594 57.5907C109.03 57.6555 107.48 57.8643 108.154 57.1395C108.829 56.4147 109.086 55.6035 108.999 55.3371C108.974 55.2772 108.931 55.2268 108.875 55.1931C108.82 55.1593 108.755 55.1438 108.69 55.1489C108.625 55.1539 108.564 55.1792 108.514 55.2212C108.465 55.2631 108.429 55.3196 108.414 55.3827C108.276 55.6881 108.096 55.9732 107.881 56.2299C107.714 56.4427 107.513 56.626 107.286 56.7723C107.019 56.9403 106.789 57.0723 106.59 57.1803L105.519 57.9195L105.908 60.9027Z" fill="#B78876"/>
<path d="M111.771 58.8269C111.74 58.8557 111.634 58.7981 111.469 58.6805C111.303 58.5629 111.075 58.3805 110.782 58.2005C110.472 57.9981 110.103 57.9059 109.734 57.9389C109.278 58.0116 108.852 58.2131 108.507 58.5197C108.162 58.8171 107.93 59.2251 107.852 59.6741C107.801 60.0507 107.851 60.434 107.996 60.7853C108.248 61.4069 108.615 61.6973 108.555 61.7741C108.531 61.8029 108.411 61.7741 108.231 61.6541C107.978 61.4755 107.766 61.2437 107.612 60.9749C107.371 60.5624 107.262 60.0857 107.3 59.6093C107.365 59.0131 107.653 58.4637 108.106 58.0709C108.545 57.6772 109.099 57.4363 109.686 57.3845C109.952 57.3687 110.219 57.413 110.466 57.5141C110.669 57.5983 110.858 57.7123 111.027 57.8525C111.259 58.0428 111.465 58.2641 111.637 58.5101C111.754 58.6877 111.8 58.7981 111.771 58.8269Z" fill="#EBEBEB"/>
<path d="M111.771 58.8267C111.807 58.8267 111.711 58.6083 111.442 58.3035C111.281 58.1155 111.098 57.9471 110.897 57.8019C110.636 57.6092 110.329 57.4862 110.007 57.4443C109.585 57.4239 109.164 57.5076 108.781 57.688C108.399 57.8683 108.066 58.1398 107.813 58.4787C107.507 58.8724 107.345 59.3597 107.355 59.8587C107.373 60.3908 107.576 60.9 107.929 61.2987C108.018 61.3989 108.118 61.4898 108.226 61.5699C108.28 61.6083 108.336 61.6427 108.394 61.6731L108.478 61.7091H108.517C108.517 61.7091 108.517 61.7091 108.502 61.7259C108.488 61.7427 108.502 61.7259 108.476 61.6947L108.421 61.6155L108.301 61.4499C108.221 61.3394 108.149 61.2239 108.085 61.1043C107.819 60.6496 107.721 60.1166 107.806 59.5971C107.903 59.1321 108.157 58.7148 108.526 58.4163C108.843 58.1556 109.22 57.9775 109.623 57.8979C109.96 57.8406 110.307 57.898 110.607 58.0611C110.829 58.1793 111.04 58.3166 111.238 58.4715C111.402 58.5963 111.526 58.6947 111.617 58.7523C111.709 58.8099 111.762 58.8147 111.762 58.8099C111.762 58.8051 111.749 58.8267 111.721 58.8099C111.679 58.8 111.64 58.7838 111.603 58.7619C111.467 58.6822 111.336 58.5948 111.21 58.5003C111.009 58.3539 110.797 58.2239 110.576 58.1115C110.288 57.9619 109.959 57.9129 109.64 57.9723C109.255 58.0549 108.895 58.2304 108.593 58.4835C108.243 58.768 108.001 59.1647 107.91 59.6067C107.83 60.1039 107.927 60.6132 108.183 61.0467C108.246 61.1609 108.316 61.2715 108.392 61.3779L108.512 61.5411L108.572 61.6299C108.583 61.6466 108.593 61.6643 108.601 61.6827C108.609 61.6987 108.613 61.7164 108.613 61.7343C108.613 61.7522 108.609 61.7699 108.601 61.7859C108.595 61.7973 108.586 61.8073 108.576 61.8152C108.565 61.823 108.553 61.8286 108.541 61.8315C108.526 61.8337 108.512 61.8337 108.497 61.8315C108.475 61.8295 108.454 61.8247 108.433 61.8171C108.397 61.8064 108.363 61.7928 108.33 61.7763C108.265 61.7436 108.203 61.705 108.145 61.6611C108.028 61.5767 107.921 61.4801 107.826 61.3731C107.451 60.9496 107.237 60.4073 107.223 59.8419C107.21 59.3169 107.38 58.8037 107.703 58.3899C107.968 58.0379 108.317 57.7573 108.717 57.5734C109.118 57.3895 109.558 57.308 109.997 57.3363C110.333 57.3852 110.65 57.519 110.919 57.7251C111.12 57.8781 111.302 58.0555 111.459 58.2531C111.561 58.3746 111.651 58.5065 111.726 58.6467C111.746 58.6842 111.759 58.7247 111.766 58.7667C111.788 58.8147 111.771 58.8291 111.771 58.8267Z" fill="#263238"/>
<path d="M110.295 58.1379C110.335 58.1136 110.363 58.0748 110.374 58.0298C110.384 57.9848 110.377 57.9374 110.353 57.8979C110.301 57.8198 110.221 57.7648 110.13 57.7443C109.762 57.6339 109.369 57.7827 109.014 57.9315C108.658 58.0606 108.323 58.2418 108.02 58.4691C107.936 58.5387 107.852 58.6395 107.883 58.7451C107.9 58.7856 107.927 58.821 107.962 58.8483C107.996 58.8756 108.037 58.8937 108.08 58.9011C108.278 58.9568 108.49 58.9345 108.673 58.8387C108.39 58.897 108.128 59.0324 107.917 59.2299C107.876 59.2613 107.842 59.3012 107.818 59.3467C107.794 59.3923 107.78 59.4425 107.778 59.4939C107.79 59.5545 107.824 59.6088 107.872 59.6477C107.92 59.6866 107.98 59.7078 108.042 59.7075C108.166 59.7015 108.287 59.6661 108.394 59.6043C108.138 59.633 107.897 59.7413 107.706 59.9139C107.648 59.9583 107.607 60.0223 107.593 60.0939C107.576 60.2379 107.742 60.3339 107.886 60.3483C108.029 60.3364 108.174 60.3364 108.318 60.3483C108.171 60.3417 108.024 60.3705 107.89 60.4323C107.757 60.4941 107.64 60.5871 107.55 60.7035C107.482 60.7923 107.434 60.9267 107.511 61.0083C107.568 61.0548 107.64 61.0772 107.713 61.0707H108.022C108.19 61.0866 108.358 61.0744 108.522 61.0347C108.603 61.0141 108.679 60.9742 108.742 60.9182C108.805 60.8622 108.854 60.7919 108.884 60.7131C108.909 60.6332 108.902 60.5466 108.865 60.4718C108.827 60.3969 108.762 60.3397 108.682 60.3123C108.903 60.2636 109.099 60.1387 109.237 59.9595C109.268 59.9143 109.29 59.8628 109.299 59.8087C109.309 59.7545 109.307 59.6988 109.294 59.6454C109.281 59.592 109.256 59.5421 109.222 59.499C109.187 59.4559 109.144 59.4206 109.095 59.3955C109.282 59.1747 109.698 59.2155 109.815 58.9515C109.894 58.7763 109.784 58.5771 109.678 58.4139C109.806 58.4061 109.93 58.371 110.043 58.3109C110.155 58.2509 110.254 58.1673 110.331 58.0659" fill="#B78876"/>
<path d="M109.758 58.4475C109.599 58.5505 109.427 58.6313 109.246 58.6875C109.055 58.7621 108.858 58.8247 108.658 58.8747C108.538 58.9035 108.416 58.9251 108.294 58.9395C108.223 58.9476 108.151 58.9427 108.082 58.9251C108.041 58.9145 108.003 58.895 107.97 58.8681C107.938 58.8411 107.911 58.8073 107.893 58.7691C107.868 58.6941 107.868 58.6131 107.893 58.5382C107.918 58.4634 107.967 58.3987 108.032 58.3539C108.136 58.2828 108.247 58.2233 108.363 58.1763L108.92 57.9243C109.087 57.8371 109.263 57.7695 109.446 57.7227C109.297 57.8349 109.136 57.9299 108.966 58.0059L108.421 58.2843C108.315 58.3307 108.214 58.3869 108.118 58.4523C108.076 58.4804 108.043 58.5214 108.026 58.5693C108.008 58.6173 108.006 58.6696 108.02 58.7187C108.054 58.8027 108.176 58.8243 108.291 58.8123C108.408 58.8015 108.525 58.783 108.639 58.7571C108.836 58.7154 109.031 58.6633 109.222 58.6011C109.396 58.5338 109.575 58.4824 109.758 58.4475Z" fill="#AA6550"/>
<path d="M109.268 59.3547C109.146 59.4254 109.014 59.4764 108.877 59.5059L108.44 59.6355L108.181 59.7099C108.076 59.7447 107.964 59.7447 107.859 59.7099C107.829 59.6973 107.802 59.6787 107.779 59.6552C107.756 59.6316 107.739 59.6037 107.727 59.5731C107.703 59.5147 107.703 59.4492 107.727 59.3907C107.773 59.3007 107.843 59.225 107.929 59.1723C108.053 59.0782 108.186 58.9978 108.327 58.9323C108.451 58.8608 108.59 58.8212 108.733 58.8171C108.616 58.8911 108.494 58.9569 108.368 59.0139C108.239 59.0841 108.117 59.1644 108.001 59.2539C107.935 59.2962 107.881 59.355 107.845 59.4243C107.837 59.4383 107.833 59.4538 107.832 59.4696C107.831 59.4854 107.833 59.5013 107.839 59.5161C107.845 59.5309 107.854 59.5443 107.865 59.5554C107.876 59.5665 107.89 59.575 107.905 59.5803C108.042 59.6355 108.248 59.5419 108.406 59.5131L108.843 59.4123C108.981 59.3718 109.124 59.3524 109.268 59.3547Z" fill="#AA6550"/>
<path d="M108.826 60.1851C108.701 60.2835 108.552 60.348 108.394 60.3723C108.226 60.4139 108.054 60.4325 107.881 60.4275C107.823 60.4278 107.766 60.4167 107.713 60.3949C107.66 60.373 107.612 60.3409 107.571 60.3003C107.524 60.251 107.495 60.1862 107.492 60.1179C107.492 60.0463 107.519 59.9775 107.569 59.9259C107.655 59.8489 107.755 59.7894 107.864 59.7507L108.142 59.6379C108.32 59.5683 108.483 59.5155 108.622 59.4747C108.768 59.4166 108.922 59.3841 109.078 59.3787C108.943 59.4556 108.8 59.5168 108.651 59.5611C108.517 59.6115 108.361 59.6739 108.186 59.7483L107.914 59.8659C107.826 59.9007 107.745 59.9511 107.674 60.0147C107.661 60.0277 107.65 60.0433 107.642 60.0606C107.635 60.078 107.631 60.0966 107.631 60.1155C107.631 60.1343 107.635 60.153 107.642 60.1703C107.65 60.1876 107.661 60.2033 107.674 60.2163C107.735 60.2753 107.816 60.3088 107.9 60.3099C108.06 60.3184 108.221 60.3096 108.38 60.2835C108.654 60.2355 108.819 60.1659 108.826 60.1851Z" fill="#AA6550"/>
<path d="M107.619 61.1045C107.619 61.1045 107.588 61.1213 107.542 61.1045C107.509 61.0884 107.481 61.0645 107.459 61.0348C107.437 61.0051 107.423 60.9705 107.418 60.9341C107.411 60.8801 107.417 60.8252 107.436 60.774C107.454 60.7228 107.484 60.6765 107.523 60.6389C107.61 60.5556 107.715 60.4939 107.83 60.4589C108.099 60.3367 108.386 60.2628 108.68 60.2405C108.428 60.3829 108.161 60.4956 107.883 60.5765C107.782 60.6061 107.688 60.6568 107.607 60.7253C107.578 60.7496 107.553 60.7799 107.536 60.8142C107.519 60.8486 107.51 60.8862 107.509 60.9245C107.516 61.0541 107.626 61.0901 107.619 61.1045Z" fill="#AA6550"/>
<path d="M112.906 56.5083L104.689 65.7747L110.562 70.2123L115.818 60.3891L117.217 59.4267L112.906 56.5083Z" fill="#F5F5F5"/>
<path d="M112.906 56.5083C112.933 56.5198 112.958 56.5343 112.981 56.5515L113.201 56.6955L114.056 57.2619L117.241 59.3907L117.293 59.4267L117.241 59.4627L115.846 60.4227L115.861 60.4059C114.442 63.0675 112.616 66.4899 110.617 70.2459L110.583 70.3107L110.525 70.2675L109.846 69.7539L104.655 65.8251L104.602 65.7867L104.645 65.7387C107.045 63.0363 109.124 60.7227 110.588 59.0787L112.297 57.1803L112.75 56.6787L112.868 56.5515L112.906 56.5131C112.895 56.5301 112.882 56.5462 112.868 56.5611L112.753 56.6979L112.301 57.2139L110.621 59.1339L104.744 65.8035V65.7171L109.94 69.6411L110.619 70.1523L110.525 70.1739C112.534 66.4323 114.365 63.0147 115.805 60.3579V60.3459L117.207 59.3859V59.4579L114.068 57.2979L113.218 56.7099L112.997 56.5563C112.966 56.5425 112.936 56.5265 112.906 56.5083Z" fill="#263238"/>
<path d="M105.437 65.5948C105.622 65.014 106.157 64.6348 106.709 64.3492C107.261 64.0636 107.847 63.8692 108.291 63.442C108.771 62.9908 109.085 62.3044 109.709 62.0764C110.333 61.8484 110.965 62.1484 111.593 62.0764C112.733 61.942 113.468 60.682 114.596 60.478C114.737 60.4516 114.915 60.4612 114.985 60.586C115.054 60.7108 114.985 60.8428 114.917 60.958L111.101 67.6948C110.861 68.1196 110.54 68.5948 110.053 68.6236C109.73 68.6034 109.422 68.4797 109.174 68.2708L105.394 65.6836" fill="#E5AC19"/>
<path d="M68.8832 71.3596L67.1528 74.554C65.4536 78.2308 66.6728 82.6756 70.1096 84.8068C70.8629 85.3002 71.7241 85.6048 72.62 85.6948C78.2312 86.0956 85.28 85.8844 85.28 85.8844L91.7864 109.388L98.1248 108.428C98.1248 108.428 92.456 82.2388 91.52 80.3668C90.584 78.4948 75.3248 74.9668 75.3248 74.9668L68.8832 71.3596Z" fill="#263238"/>
<path d="M87.4352 93.6651C87.4208 93.6651 87.4352 93.6531 87.4184 93.6411L87.38 93.5355L87.2504 93.1323L86.7944 91.6395C86.4176 90.3627 85.9064 88.6227 85.34 86.7003C85.1 85.8723 84.86 85.0779 84.6608 84.3507L84.716 84.3939L81.248 84.2547L80.2472 84.2019L79.9832 84.1827C79.9232 84.1827 79.8896 84.1827 79.892 84.1683C79.9223 84.1646 79.9529 84.1646 79.9832 84.1683H80.2496L81.2504 84.1875L84.7256 84.2907H84.7664V84.3315C84.98 85.0515 85.2128 85.8507 85.4528 86.6787C86.0048 88.5987 86.5064 90.3459 86.8736 91.6275C87.0464 92.2491 87.188 92.7603 87.2888 93.1299C87.3336 93.2979 87.3696 93.4347 87.3968 93.5403L87.4232 93.6483C87.4232 93.6603 87.4232 93.6699 87.4232 93.6771C87.4232 93.6843 87.4328 93.6627 87.4352 93.6651Z" fill="#455A64"/>
<path d="M98.1585 109.282L97.4913 106.575L92.4153 107.792L93.3513 111.761L93.6705 111.706C95.0889 111.447 100.87 110.292 101.737 109.786C102.702 109.215 98.1585 109.282 98.1585 109.282Z" fill="#7E57C2"/>
<g opacity="0.4">
<path d="M100.398 109.328C100.398 109.328 102.013 109.4 101.886 109.695C101.758 109.99 95.96 111.375 93.3512 111.764L93.332 111.648L100.105 110.088C100.105 110.088 100.105 109.412 100.398 109.328Z" fill="white"/>
</g>
<path d="M93.2505 111.663C93.2808 111.666 93.3114 111.666 93.3417 111.663L93.5937 111.617L94.5273 111.435C95.3121 111.279 96.3969 111.044 97.5849 110.76C98.7729 110.477 99.8481 110.196 100.621 109.983L101.535 109.724L101.775 109.649L101.859 109.62C101.829 109.622 101.799 109.628 101.77 109.637L101.53 109.7L100.611 109.94C99.8361 110.141 98.7633 110.42 97.5729 110.7C96.3825 110.981 95.3025 111.224 94.5201 111.392L93.5913 111.593L93.3393 111.648L93.2505 111.663Z" fill="#263238"/>
<path d="M100.124 110.175C100.128 110.013 100.15 109.852 100.189 109.695C100.252 109.543 100.332 109.4 100.429 109.268C100.292 109.371 100.191 109.513 100.138 109.676C100.085 109.839 100.084 110.014 100.134 110.177L100.124 110.175Z" fill="#263238"/>
<path d="M98.4439 109.767C98.4607 109.767 98.5111 109.666 98.5567 109.527C98.5943 109.447 98.6124 109.36 98.6095 109.272C98.5927 109.272 98.5423 109.371 98.4967 109.512C98.459 109.592 98.4409 109.679 98.4439 109.767Z" fill="#263238"/>
<path d="M97.9807 109.647C97.9951 109.647 98.0623 109.584 98.1295 109.484C98.1967 109.383 98.2423 109.296 98.2279 109.287C98.2135 109.277 98.1463 109.349 98.0791 109.448C98.0119 109.546 97.9663 109.637 97.9807 109.647Z" fill="#263238"/>
<path d="M97.6064 109.229C97.6986 109.24 97.7922 109.231 97.88 109.2C97.9715 109.19 98.0593 109.159 98.1369 109.109C98.0454 109.098 97.9526 109.108 97.8656 109.138C97.7735 109.149 97.685 109.18 97.6064 109.229Z" fill="#263238"/>
<path d="M97.436 108.912C97.5392 108.94 97.6471 108.946 97.7527 108.929C97.8582 108.912 97.9589 108.873 98.048 108.814C97.9451 108.822 97.8431 108.84 97.7432 108.867C97.6397 108.873 97.537 108.888 97.436 108.912Z" fill="#263238"/>
<path d="M98.5088 109.282C98.6215 109.275 98.732 109.248 98.8352 109.203C98.9498 109.16 99.06 109.106 99.164 109.042C99.2286 109.005 99.2889 108.962 99.344 108.912C99.3772 108.881 99.3969 108.838 99.3992 108.792C99.399 108.767 99.3915 108.742 99.3774 108.721C99.3633 108.699 99.3434 108.683 99.32 108.672C99.2304 108.653 99.1376 108.654 99.0483 108.675C98.959 108.696 98.8754 108.736 98.8035 108.793C98.7315 108.85 98.673 108.922 98.632 109.004C98.591 109.086 98.5687 109.176 98.5664 109.268C98.5664 109.328 98.5664 109.359 98.5808 109.359C98.589 109.25 98.6167 109.143 98.6624 109.044C98.7172 108.943 98.8007 108.859 98.9024 108.804C98.9603 108.768 99.0249 108.743 99.0925 108.731C99.16 108.72 99.2292 108.722 99.296 108.737C99.3584 108.764 99.3512 108.828 99.296 108.879C99.2449 108.924 99.1894 108.964 99.1304 108.999C99.0302 109.063 98.925 109.119 98.816 109.167C98.6216 109.241 98.5064 109.272 98.5088 109.282Z" fill="#263238"/>
<path d="M98.5977 109.277C98.6221 109.198 98.6161 109.112 98.5809 109.037C98.5507 108.954 98.5004 108.88 98.4345 108.821C98.3962 108.779 98.3475 108.747 98.2932 108.729C98.2388 108.712 98.1808 108.709 98.1249 108.72C98.1092 108.727 98.0951 108.737 98.0833 108.75C98.0715 108.762 98.0624 108.777 98.0563 108.793C98.0503 108.809 98.0475 108.826 98.0482 108.844C98.0488 108.861 98.0529 108.878 98.0601 108.893C98.0796 108.943 98.1099 108.988 98.1489 109.025C98.2083 109.088 98.2762 109.142 98.3505 109.186C98.4148 109.233 98.4898 109.264 98.5689 109.275C98.5689 109.275 98.4897 109.232 98.3769 109.15C98.3099 109.102 98.248 109.047 98.1921 108.987C98.1321 108.929 98.0721 108.812 98.1489 108.778C98.2257 108.744 98.3313 108.812 98.3889 108.864C98.4505 108.916 98.4997 108.981 98.5329 109.054C98.5618 109.126 98.5835 109.201 98.5977 109.277Z" fill="#263238"/>
<path d="M93.0225 110.249C93.0225 110.261 93.1641 110.201 93.3993 110.172C93.7064 110.134 94.0182 110.183 94.2986 110.314C94.579 110.445 94.8164 110.653 94.9833 110.914C95.1129 111.113 95.1561 111.26 95.1657 111.255C95.1753 111.25 95.1657 111.216 95.1417 111.152C95.1102 111.062 95.07 110.976 95.0217 110.895C94.8589 110.618 94.6165 110.398 94.3261 110.261C94.0358 110.125 93.711 110.08 93.3945 110.132C93.2991 110.146 93.2057 110.171 93.1161 110.206C93.0827 110.215 93.051 110.23 93.0225 110.249Z" fill="#263238"/>
<path d="M93.0439 108.015C93.0915 108.369 93.1596 108.72 93.2479 109.066C93.3165 109.418 93.4063 109.766 93.5167 110.107C93.468 109.753 93.3991 109.401 93.3103 109.054C93.2424 108.702 93.1535 108.355 93.0439 108.015Z" fill="#263238"/>
<path d="M95.7007 110.633C96.2131 110.61 96.7172 110.494 97.1887 110.292C97.1887 110.276 96.8551 110.376 96.4447 110.468C96.0343 110.559 95.6983 110.616 95.7007 110.633Z" fill="#263238"/>
<path d="M94.7073 110.871C94.7073 110.885 94.7505 110.933 94.8033 111.003C94.8561 111.072 94.8897 111.132 94.9065 111.128C94.9233 111.123 94.9065 111.041 94.8513 110.964C94.7961 110.888 94.7145 110.856 94.7073 110.871Z" fill="#263238"/>
<path d="M94.22 110.494C94.22 110.508 94.256 110.554 94.3208 110.595C94.3856 110.636 94.4456 110.655 94.4552 110.64C94.4648 110.626 94.4192 110.58 94.3544 110.54C94.2896 110.499 94.2296 110.48 94.22 110.494Z" fill="#263238"/>
<path d="M93.632 110.415C93.632 110.431 93.7064 110.415 93.788 110.415C93.8696 110.415 93.932 110.451 93.9416 110.434C93.9512 110.417 93.8936 110.359 93.7928 110.352C93.692 110.345 93.6224 110.393 93.632 110.415Z" fill="#263238"/>
<path d="M93.2263 110.4C93.2263 110.417 93.2599 110.436 93.3055 110.441C93.3511 110.446 93.3895 110.441 93.3919 110.422C93.3943 110.403 93.3607 110.386 93.3127 110.379C93.2647 110.372 93.2287 110.381 93.2263 110.4Z" fill="#263238"/>
<g opacity="0.3">
<path d="M92.9648 110.12L98.048 108.814L97.892 108.207L92.7512 109.215L92.9648 110.12Z" fill="black"/>
</g>
<path d="M75.2529 106.985L76.4529 104.612L72.0201 102.334L70.2273 105.788L70.4913 105.946C71.6793 106.642 76.5801 109.404 77.5257 109.577C78.5817 109.769 75.2529 106.985 75.2529 106.985Z" fill="#7E57C2"/>
<g opacity="0.4">
<path d="M76.8463 108.411C76.8463 108.411 77.9695 109.469 77.6935 109.611C77.4175 109.752 72.3583 107.139 70.2295 105.795L70.2871 105.699L76.1599 108.788C76.1599 108.788 76.5823 108.288 76.8463 108.411Z" fill="white"/>
</g>
<path d="M70.2175 105.653L70.2895 105.701L70.5031 105.826L71.2903 106.275C71.9575 106.649 72.8863 107.155 73.9303 107.691C74.9743 108.226 75.9199 108.691 76.6111 109.018L77.4343 109.399L77.6599 109.498L77.7391 109.529C77.7165 109.512 77.6915 109.498 77.6647 109.488L77.4439 109.378L76.6231 108.975C75.9367 108.636 74.9887 108.168 73.9519 107.633C72.9151 107.098 71.9815 106.599 71.3119 106.234L70.5151 105.799L70.2991 105.684C70.2736 105.67 70.2461 105.66 70.2175 105.653Z" fill="#263238"/>
<path d="M76.124 108.848C76.2276 108.732 76.3444 108.629 76.472 108.54C76.6089 108.468 76.754 108.413 76.904 108.375C76.7406 108.353 76.5748 108.394 76.4408 108.49C76.295 108.566 76.1823 108.694 76.124 108.848Z" fill="#263238"/>
<path d="M75.1592 107.511C75.1592 107.525 75.2672 107.482 75.3848 107.412C75.5024 107.343 75.5912 107.278 75.5816 107.264C75.572 107.249 75.4712 107.292 75.3536 107.362C75.236 107.432 75.1496 107.496 75.1592 107.511Z" fill="#263238"/>
<path d="M74.8976 107.136C74.8976 107.153 74.996 107.136 75.1064 107.112C75.2168 107.088 75.3056 107.048 75.3008 107.031C75.296 107.014 75.2024 107.031 75.092 107.055C74.9816 107.079 74.8928 107.122 74.8976 107.136Z" fill="#263238"/>
<path d="M74.8855 106.601C74.8855 106.618 74.9743 106.683 75.1015 106.75C75.1735 106.799 75.2554 106.832 75.3415 106.846C75.3415 106.831 75.2527 106.764 75.1255 106.697C75.0533 106.648 74.9715 106.615 74.8855 106.601Z" fill="#263238"/>
<path d="M74.96 106.268C74.96 106.268 75.0344 106.388 75.1784 106.474C75.2607 106.537 75.3604 106.573 75.464 106.577C75.2944 106.477 75.1264 106.373 74.96 106.268Z" fill="#263238"/>
<path d="M75.5071 107.204C75.5937 107.267 75.6902 107.316 75.7927 107.348C75.9026 107.387 76.0159 107.417 76.1311 107.436C76.1997 107.451 76.2698 107.456 76.3399 107.453C76.3841 107.452 76.4262 107.434 76.4575 107.403C76.4725 107.384 76.4818 107.361 76.4843 107.336C76.4869 107.312 76.4826 107.288 76.4719 107.266C76.4194 107.196 76.352 107.138 76.2745 107.097C76.197 107.056 76.1113 107.033 76.0238 107.03C75.9363 107.026 75.849 107.042 75.7683 107.076C75.6877 107.11 75.6156 107.162 75.5575 107.228C75.5362 107.249 75.5198 107.274 75.5095 107.302C75.5837 107.229 75.6697 107.17 75.7639 107.127C75.8669 107.083 75.9806 107.071 76.0903 107.093C76.155 107.103 76.2172 107.125 76.2732 107.159C76.3292 107.193 76.378 107.237 76.4167 107.29C76.4455 107.348 76.3999 107.391 76.3351 107.396C76.2692 107.398 76.2032 107.393 76.1383 107.381C76.0261 107.365 75.9154 107.34 75.8071 107.307C75.6199 107.249 75.5119 107.194 75.5071 107.204Z" fill="#263238"/>
<path d="M75.5816 107.254C75.6469 107.212 75.6947 107.148 75.716 107.074C75.7437 106.997 75.7535 106.915 75.7448 106.834C75.7431 106.779 75.7272 106.725 75.6986 106.678C75.67 106.631 75.6297 106.592 75.5816 106.565C75.5498 106.557 75.516 106.561 75.4874 106.577C75.4588 106.593 75.4375 106.62 75.428 106.651C75.4098 106.701 75.404 106.753 75.4112 106.805C75.4158 106.887 75.4311 106.967 75.4568 107.045C75.5 107.179 75.5528 107.249 75.56 107.244C75.5672 107.239 75.5288 107.165 75.4976 107.033C75.478 106.955 75.4675 106.874 75.4664 106.793C75.4664 106.711 75.4856 106.589 75.5648 106.613C75.644 106.637 75.6752 106.752 75.6896 106.831C75.7024 106.907 75.6974 106.984 75.6752 107.057C75.6491 107.125 75.6178 107.191 75.5816 107.254Z" fill="#263238"/>
<path d="M70.9329 104.487C70.9329 104.487 71.0673 104.54 71.2545 104.667C71.5002 104.83 71.6947 105.06 71.8157 105.329C71.9368 105.598 71.9793 105.896 71.9385 106.188C71.9073 106.414 71.8497 106.546 71.8593 106.548C71.8689 106.551 71.8809 106.52 71.9049 106.46C71.9403 106.375 71.9653 106.286 71.9793 106.196C72.0339 105.895 71.9962 105.584 71.8712 105.305C71.7461 105.025 71.5395 104.791 71.2785 104.631C71.2023 104.584 71.1219 104.543 71.0385 104.511C71.0045 104.498 70.969 104.49 70.9329 104.487Z" fill="#263238"/>
<path d="M72.3416 102.879C71.9864 103.463 71.6659 104.067 71.3816 104.688C71.5667 104.401 71.7357 104.104 71.888 103.798C72.0569 103.501 72.2083 103.194 72.3416 102.879Z" fill="#263238"/>
<path d="M72.6321 106.433C72.8197 106.59 73.0261 106.723 73.2465 106.829C73.4583 106.952 73.685 107.047 73.9209 107.112C73.9209 107.096 73.6305 106.964 73.2753 106.776C72.9201 106.589 72.6417 106.419 72.6321 106.433Z" fill="#263238"/>
<path d="M71.7656 105.984C71.7488 105.984 71.7656 106.059 71.7656 106.14C71.7656 106.222 71.7464 106.289 71.7656 106.296C71.7848 106.304 71.8256 106.236 71.8304 106.143C71.8352 106.049 71.78 105.98 71.7656 105.984Z" fill="#263238"/>
<path d="M71.6481 105.408C71.6313 105.408 71.6361 105.475 71.6481 105.545C71.6601 105.615 71.7009 105.667 71.7177 105.663C71.7345 105.658 71.7297 105.598 71.7057 105.526C71.6817 105.454 71.6649 105.403 71.6481 105.408Z" fill="#263238"/>
<path d="M71.2759 104.981C71.2759 104.998 71.3287 105.029 71.3839 105.084C71.4391 105.14 71.4655 105.2 71.4823 105.195C71.4991 105.19 71.4943 105.111 71.4271 105.044C71.3599 104.976 71.2783 104.967 71.2759 104.981Z" fill="#263238"/>
<path d="M70.988 104.722C70.976 104.734 70.988 104.77 71.0192 104.804C71.0504 104.837 71.0816 104.854 71.0936 104.842C71.1056 104.83 71.0936 104.796 71.0624 104.763C71.0312 104.729 71 104.712 70.988 104.722Z" fill="#263238"/>
<g opacity="0.3">
<path d="M70.9617 104.374L75.4641 106.577L75.7305 106.04L71.2689 103.781L70.9617 104.374Z" fill="black"/>
</g>
<path d="M70.7576 103.839L76.0184 106.27L89.648 87.01L86.7704 80.1604L79.6208 82.5436L80.912 86.9116L70.7576 103.839Z" fill="#263238"/>
<path d="M68.8832 71.3596L67.1528 74.554C65.4536 78.2308 66.6728 82.6756 70.1096 84.8068C70.8629 85.3002 71.7241 85.6048 72.62 85.6948C78.2312 86.0956 85.28 85.8844 85.28 85.8844L91.7864 109.388L98.1248 108.428C98.1248 108.428 92.456 82.2388 91.52 80.3668C90.584 78.4948 75.3248 74.9668 75.3248 74.9668L68.8832 71.3596Z" fill="#263238"/>
<path d="M87.4352 93.6651C87.4208 93.6651 87.4352 93.6531 87.4184 93.6411L87.38 93.5355L87.2504 93.1323L86.7944 91.6395C86.4176 90.3627 85.9064 88.6227 85.34 86.7003C85.1 85.8723 84.86 85.0779 84.6608 84.3507L84.716 84.3939L81.248 84.2547L80.2472 84.2019L79.9832 84.1827C79.9232 84.1827 79.8896 84.1827 79.892 84.1683C79.9223 84.1646 79.9529 84.1646 79.9832 84.1683H80.2496L81.2504 84.1875L84.7256 84.2907H84.7664V84.3315C84.98 85.0515 85.2128 85.8507 85.4528 86.6787C86.0048 88.5987 86.5064 90.3459 86.8736 91.6275C87.0464 92.2491 87.188 92.7603 87.2888 93.1299C87.3336 93.2979 87.3696 93.4347 87.3968 93.5403L87.4232 93.6483C87.4232 93.6603 87.4232 93.6699 87.4232 93.6771C87.4232 93.6843 87.4328 93.6627 87.4352 93.6651Z" fill="#455A64"/>
<path d="M78.9103 41.0932C80.7991 38.6068 82.7911 38.9596 84.1711 39.5596C84.8578 39.8745 85.435 40.3871 85.8287 41.0318C86.2225 41.6765 86.415 42.4241 86.3815 43.1788C86.3575 43.5748 86.2735 43.9924 86.4343 44.3572C86.6935 44.9428 87.4495 45.106 87.8863 45.574C88.4863 46.2124 88.3543 47.2228 88.1503 48.0724C87.9463 48.922 87.7351 49.8964 88.2367 50.614C88.6951 51.2716 89.5687 51.4468 90.2911 51.7972C90.7703 52.0262 91.1957 52.354 91.5394 52.7589C91.8831 53.1638 92.1374 53.6368 92.2855 54.1468C92.4255 54.6591 92.4365 55.198 92.3176 55.7156C92.1986 56.2332 91.9535 56.7133 91.6039 57.1132C90.9007 57.8764 89.8495 58.2148 88.8247 58.366C87.3266 58.587 85.7981 58.4729 84.3494 58.0318C82.9007 57.5907 81.5679 56.8337 80.4471 55.8153C79.3263 54.7969 78.4455 53.5425 77.868 52.1426C77.2906 50.7426 77.031 49.232 77.1079 47.7196" fill="#263238"/>
<path d="M105.985 57.5451C105.985 57.5451 94.2391 58.8147 93.4783 58.8147C92.8879 58.8147 87.0751 55.2147 84.1663 53.7987L82.7743 53.2347C74.2159 51.4419 72.7951 53.7531 72.1567 55.0491C71.5759 56.2347 71.9863 60.1491 71.9863 60.1491L71.8183 67.0131L68.0791 72.5331C75.6271 78.2931 81.4639 76.3083 81.4639 76.3083L81.6079 74.5563C81.8239 71.0715 82.6495 67.2891 83.1439 66.1731C83.1439 66.1731 85.3159 63.3459 84.7543 60.4491C87.0247 60.8763 92.2087 63.6819 93.5071 63.6435C94.7311 63.6075 106.429 61.5027 106.429 61.5027L105.985 57.5451Z" fill="#EEC866"/>
<path d="M77.6095 41.6379V42.4107L77.5591 53.9475C77.5591 55.2867 78.7015 56.3475 80.1343 56.3475C81.5743 56.3475 82.7743 55.2435 82.8079 53.8899C82.8367 52.4715 82.8943 50.9763 82.8943 50.9763C82.8943 50.9763 84.7303 50.7051 85.1503 48.3243C85.3615 47.1411 85.3351 45.2043 85.2631 43.6011C85.2479 43.2613 85.1641 42.9281 85.0167 42.6215C84.8694 42.3149 84.6616 42.0413 84.4058 41.8171C84.1499 41.5929 83.8514 41.4227 83.5282 41.3169C83.2049 41.211 82.8636 41.1717 82.5247 41.2011L77.6095 41.6379Z" fill="#B78876"/>
<path d="M84.7016 45.0581C84.7016 45.1381 84.6702 45.2149 84.6141 45.2719C84.5579 45.3289 84.4816 45.3616 84.4016 45.3629C84.3626 45.3651 84.3235 45.3595 84.2866 45.3464C84.2498 45.3333 84.2159 45.313 84.1871 45.2866C84.1582 45.2602 84.1349 45.2283 84.1186 45.1927C84.1023 45.1572 84.0933 45.1188 84.092 45.0797C84.0927 45.0001 84.1244 44.9239 84.1804 44.8674C84.2365 44.8108 84.3125 44.7785 84.392 44.7773C84.431 44.7747 84.47 44.7799 84.5069 44.7928C84.5437 44.8056 84.5776 44.8257 84.6065 44.8519C84.6354 44.8781 84.6587 44.9099 84.675 44.9453C84.6914 44.9807 84.7004 45.0191 84.7016 45.0581Z" fill="#263238"/>
<path d="M84.8239 44.6115C84.7855 44.6499 84.5551 44.4747 84.2263 44.4699C83.8975 44.4651 83.6527 44.6259 83.6167 44.5851C83.5807 44.5443 83.6407 44.4939 83.7463 44.4195C83.8882 44.3248 84.0556 44.2754 84.2263 44.2779C84.3998 44.2788 84.5682 44.3361 84.7063 44.4411C84.8095 44.5203 84.8431 44.5947 84.8239 44.6115Z" fill="#263238"/>
<path d="M81.5815 45.0029C81.5809 45.0827 81.5493 45.1592 81.4933 45.2161C81.4373 45.273 81.3613 45.3058 81.2815 45.3077C81.2425 45.3099 81.2034 45.3044 81.1665 45.2913C81.1297 45.2782 81.0958 45.2578 81.067 45.2314C81.0381 45.205 81.0148 45.1731 80.9985 45.1376C80.9822 45.102 80.9731 45.0636 80.9719 45.0245C80.9725 44.9449 81.0043 44.8687 81.0603 44.8122C81.1164 44.7557 81.1923 44.7233 81.2719 44.7221C81.3108 44.7195 81.3499 44.7248 81.3867 44.7376C81.4236 44.7504 81.4575 44.7705 81.4864 44.7967C81.5153 44.8229 81.5386 44.8547 81.5549 44.8901C81.5713 44.9255 81.5803 44.9639 81.5815 45.0029Z" fill="#263238"/>
<path d="M81.5815 44.6141C81.5431 44.6549 81.3151 44.4797 80.9839 44.4749C80.6527 44.4701 80.4103 44.6285 80.3767 44.5877C80.3431 44.5469 80.3983 44.4989 80.5063 44.4245C80.648 44.3292 80.8156 44.2797 80.9863 44.2829C81.1597 44.2842 81.328 44.3415 81.4663 44.4461C81.5815 44.5253 81.6031 44.5973 81.5815 44.6141Z" fill="#263238"/>
<path d="M82.7359 47.0787C82.9108 47.0273 83.0914 46.9983 83.2735 46.9923C83.3575 46.9923 83.4367 46.9707 83.4535 46.9131C83.4581 46.8297 83.4398 46.7468 83.4007 46.6731C83.3263 46.4691 83.2471 46.2555 83.1607 46.0299C82.8319 45.1107 82.5943 44.3499 82.6327 44.3499C82.8967 44.877 83.1182 45.4243 83.2951 45.9867L83.5231 46.6371C83.5737 46.7389 83.5865 46.8555 83.5591 46.9659C83.5463 46.9952 83.5272 47.0214 83.5032 47.0426C83.4791 47.0637 83.4507 47.0793 83.4199 47.0883C83.3727 47.0991 83.3244 47.1047 83.2759 47.1051C83.0955 47.1195 82.914 47.1106 82.7359 47.0787Z" fill="#263238"/>
<path d="M82.8944 50.9811C81.7706 50.978 80.6698 50.6632 79.7144 50.0715C79.7144 50.0715 80.4608 51.7251 82.8536 51.5451L82.8944 50.9811Z" fill="#AA6550"/>
<path d="M82.5825 47.8708C82.5224 47.7889 82.4423 47.7238 82.3498 47.6818C82.2574 47.6398 82.1557 47.6222 82.0545 47.6308C81.9818 47.6359 81.9109 47.6558 81.8461 47.6893C81.7813 47.7227 81.724 47.7689 81.6777 47.8252C81.6327 47.8791 81.6054 47.9455 81.5994 48.0155C81.5934 48.0855 81.609 48.1556 81.6441 48.2164C81.6954 48.2771 81.764 48.3208 81.8406 48.3418C81.9173 48.3628 81.9986 48.3601 82.0737 48.334C82.2301 48.2835 82.3746 48.2019 82.4985 48.094C82.5362 48.0683 82.5688 48.0357 82.5945 47.998C82.6069 47.98 82.6135 47.9586 82.6135 47.9368C82.6135 47.9149 82.6069 47.8936 82.5945 47.8756" fill="#AA6550"/>
<path d="M81.7639 47.2947C81.8167 47.2947 81.8119 47.6499 82.1119 47.9091C82.4119 48.1683 82.7959 48.1347 82.7983 48.1851C82.8007 48.2355 82.7119 48.2547 82.5583 48.2547C82.3481 48.2548 82.1447 48.1799 81.9847 48.0435C81.8323 47.9133 81.736 47.7293 81.7159 47.5299C81.6967 47.3763 81.7375 47.2947 81.7639 47.2947Z" fill="#263238"/>
<path d="M77.5593 52.5892C78.2793 52.3492 78.5577 52.1092 78.8361 51.4156C79.0991 50.7101 79.1302 49.9392 78.9249 49.2148C78.8361 48.8812 78.7089 48.5164 78.8625 48.2068C79.0014 47.9979 79.1809 47.8191 79.3905 47.6812C79.8086 47.2927 80.0613 46.7581 80.0961 46.1884C80.1281 45.623 80.0347 45.0575 79.8225 44.5324C79.7145 44.2396 79.5825 43.9204 79.6929 43.63C79.7925 43.4341 79.9373 43.2646 80.1153 43.1356C80.4611 42.824 80.7487 42.4534 80.9649 42.0412C81.0552 41.903 81.1137 41.7465 81.1361 41.583C81.1585 41.4194 81.1443 41.253 81.0945 41.0956C80.9289 40.7356 80.4801 40.6156 80.0841 40.5772C79.1409 40.4884 78.0921 40.678 77.4777 41.4004C76.9257 42.0484 76.8489 42.9604 76.7961 43.8004C76.6281 46.4716 73.1385 49.2172 74.8473 52.8748L77.5593 52.5892Z" fill="#263238"/>
<path d="M81.6921 43.3252C81.6585 43.414 81.3297 43.366 80.9433 43.4068C80.5569 43.4476 80.2401 43.546 80.1921 43.4644C80.1681 43.426 80.2257 43.342 80.3529 43.258C80.522 43.1529 80.7137 43.0896 80.9121 43.0732C81.11 43.0524 81.3101 43.0796 81.4953 43.1524C81.6369 43.2148 81.7065 43.2844 81.6921 43.3252Z" fill="#263238"/>
<path d="M84.7185 43.6564C84.6609 43.7284 84.4353 43.6564 84.1617 43.6396C83.8881 43.6228 83.6577 43.6804 83.6049 43.6012C83.5833 43.5628 83.6193 43.4884 83.7225 43.4188C83.8593 43.3353 84.0185 43.296 84.1785 43.306C84.3386 43.3113 84.4931 43.3667 84.6201 43.4644C84.7161 43.5412 84.7449 43.6204 84.7185 43.6564Z" fill="#263238"/>
<path d="M76.8201 75.5212L76.9545 75.7492C77.4474 76.5778 77.985 77.379 78.5649 78.1492C79.3305 79.0708 79.4169 79.006 79.5129 78.9004C79.7673 78.6196 78.2289 77.2204 78.7353 77.3404C79.2417 77.4604 80.4153 79.2605 80.6697 78.9485C81.0009 78.5501 79.3617 77.1244 79.2297 76.9924C79.0977 76.8604 79.2897 76.6756 79.4001 76.8004C79.5585 76.978 81.2745 78.8093 81.6033 78.4229C81.7857 78.2069 81.3633 77.9236 81.3633 77.9236C81.3633 77.9236 79.6305 76.3228 79.7913 76.1452C79.9521 75.9676 81.0057 76.8653 81.3369 77.1989C81.6681 77.5325 81.9585 77.5061 81.9849 77.2445C82.0041 77.0669 81.0105 76.0445 80.6745 75.7157C80.3385 75.3869 79.4001 74.5372 80.2161 74.5948C81.0321 74.6524 81.6801 74.3956 81.8073 74.206C81.9345 74.0164 81.7089 73.7788 81.4713 73.8676C81.204 73.9361 80.9287 73.9683 80.6529 73.9636C80.4315 73.9666 80.2112 73.9342 80.0001 73.8676C79.8177 73.8076 79.6569 73.75 79.5201 73.6948L78.9969 73.498L76.8201 75.5212Z" fill="#B78876"/>
<path d="M76.2608 52.8147C76.2264 52.7798 76.1951 52.7421 76.1672 52.7019C76.0845 52.5909 76.0092 52.4747 75.9416 52.3539C75.6874 51.9106 75.5242 51.4211 75.4616 50.9139C75.3769 50.3064 75.4642 49.6873 75.7137 49.1269C75.9631 48.5664 76.3647 48.0872 76.8728 47.7435C77.2709 47.4881 77.6402 47.1903 77.9744 46.8555C78.1329 46.6822 78.2553 46.479 78.3344 46.2579C78.4047 46.0404 78.434 45.8117 78.4208 45.5835C78.3992 45.1299 78.2792 44.6955 78.2288 44.2683C78.1301 43.4999 78.3209 42.7222 78.764 42.0867C79.0538 41.6554 79.4442 41.3012 79.9016 41.0547C80.0248 40.9903 80.1533 40.9365 80.2856 40.8939C80.3308 40.8752 80.3785 40.8631 80.4272 40.8579C80.4272 40.8699 80.2376 40.9227 79.9256 41.0979C79.4887 41.3496 79.1164 41.6997 78.8384 42.1203C78.4184 42.7409 78.2416 43.4944 78.3416 44.2371C78.3944 44.6547 78.5168 45.0867 78.5432 45.5619C78.5562 45.8053 78.5262 46.049 78.4544 46.2819C78.3682 46.5177 78.237 46.7346 78.068 46.9203C77.7278 47.2627 77.3511 47.5669 76.9448 47.8275C76.5801 48.0718 76.269 48.3878 76.0304 48.7563C75.6352 49.3925 75.4661 50.1433 75.5504 50.8875C75.6049 51.3912 75.7548 51.8799 75.992 52.3275C76.148 52.6491 76.2728 52.8147 76.2608 52.8147Z" fill="#455A64"/>
<path d="M90.5313 57.3747C90.5313 57.3747 90.5961 57.3123 90.7017 57.1827C90.8584 56.9948 90.9729 56.7755 91.0377 56.5395C91.1291 56.1642 91.1291 55.7724 91.0377 55.3971C90.9301 54.8962 90.6868 54.4346 90.3345 54.0627C90.133 53.8456 89.9039 53.656 89.6529 53.4987C89.3753 53.3335 89.0838 53.1929 88.7817 53.0787C88.4502 52.954 88.1292 52.8031 87.8217 52.6275C87.5011 52.428 87.2216 52.1689 86.9985 51.8643C86.531 51.2021 86.2796 50.4117 86.2785 49.6011C86.2697 49.177 86.3051 48.7531 86.3841 48.3363C86.4609 47.9139 86.5689 47.4939 86.6505 47.0667C86.7136 46.7698 86.7489 46.4677 86.7561 46.1643C86.7418 45.869 86.6743 45.5788 86.5569 45.3075C86.4465 45.0339 86.3169 44.7675 86.2137 44.4915C86.1238 44.2131 86.0643 43.9259 86.0361 43.6347C86.0025 43.3491 86.0025 43.0683 85.9713 42.8019C85.9419 42.5373 85.8905 42.2756 85.8177 42.0195C85.6906 41.5347 85.4768 41.0769 85.1865 40.6683C84.9702 40.3313 84.684 40.0446 84.3474 39.8276C84.0108 39.6107 83.6315 39.4685 83.2353 39.4107C82.6191 39.3241 81.992 39.4548 81.4617 39.7803C81.1198 39.9858 80.8247 40.2605 80.5953 40.5867C80.4369 40.8123 80.3793 40.9491 80.3721 40.9467C80.4224 40.8129 80.4884 40.6856 80.5689 40.5675C80.7919 40.2285 81.0859 39.9419 81.4305 39.7275C81.9702 39.3846 82.6131 39.2419 83.2473 39.3243C83.658 39.3802 84.0518 39.524 84.4018 39.746C84.7518 39.968 85.0497 40.263 85.2753 40.6107C85.5789 41.0285 85.8026 41.4988 85.9353 41.9979C86.0106 42.2593 86.0636 42.5267 86.0937 42.7971C86.1273 43.0755 86.1297 43.3539 86.1633 43.6299C86.1908 43.9113 86.2487 44.189 86.3361 44.4579C86.4369 44.7267 86.5761 44.9931 86.6793 45.2715C86.8018 45.5566 86.8718 45.8615 86.8857 46.1715C86.8818 46.4839 86.8464 46.795 86.7801 47.1003C86.6985 47.5323 86.5905 47.9523 86.5137 48.3675C86.436 48.7756 86.4006 49.1906 86.4081 49.6059C86.409 50.3931 86.6529 51.1609 87.1065 51.8043C87.3206 52.0984 87.5885 52.3492 87.8961 52.5435C88.1949 52.7176 88.5071 52.8677 88.8297 52.9923C89.1355 53.1109 89.4302 53.2562 89.7105 53.4267C89.968 53.5893 90.2022 53.7863 90.4065 54.0123C90.7651 54.398 91.0094 54.8758 91.1121 55.3923C91.198 55.7793 91.1873 56.1816 91.0809 56.5635C91.0093 56.8034 90.8846 57.0241 90.7161 57.2091C90.6616 57.2717 90.5995 57.3274 90.5313 57.3747Z" fill="#455A64"/>
<path d="M84.3128 57.3748C84.3554 57.4884 84.3875 57.6057 84.4088 57.7252C84.464 57.9532 84.5408 58.2844 84.6224 58.6852C84.8591 59.7546 84.9599 60.8497 84.9224 61.9444C84.8813 62.5508 84.7419 63.1466 84.5096 63.7084C84.322 64.1633 84.1039 64.6051 83.8568 65.0308C83.648 65.3956 83.4728 65.686 83.348 65.8828C83.2891 65.9894 83.2209 66.0906 83.144 66.1852C83.1883 66.0716 83.243 65.9623 83.3072 65.8588C83.4296 65.6332 83.588 65.3404 83.7872 64.99C84.0201 64.5609 84.2277 64.1185 84.4088 63.6652C84.6321 63.1139 84.7658 62.5306 84.8048 61.9372C84.8382 60.8516 84.7505 59.7657 84.5432 58.6996C84.4736 58.306 84.4136 57.9796 84.3704 57.7252C84.3401 57.6105 84.3208 57.4931 84.3128 57.3748Z" fill="#263238"/>
<path d="M89.2063 56.5732C89.1406 56.814 89.0538 57.0485 88.9471 57.274C88.7695 57.7012 88.5199 58.2868 88.2271 58.9324C87.9343 59.578 87.6775 60.1612 87.4807 60.5788C87.3854 60.8101 87.2714 61.0333 87.1399 61.246C87.2056 61.0053 87.2924 60.7708 87.3991 60.5452C87.5767 60.118 87.8263 59.5324 88.1191 58.8868C88.4119 58.2412 88.6663 57.6604 88.8631 57.2428C88.9584 57.0103 89.0732 56.7863 89.2063 56.5732Z" fill="#FAFAFA"/>
<path d="M90.0033 56.9644C89.7144 57.7501 89.386 58.5207 89.0193 59.2732C88.6918 60.0439 88.3258 60.7977 87.9225 61.5316C87.8913 61.5172 88.3305 60.4852 88.9065 59.2228C89.2339 58.452 89.6 57.6983 90.0033 56.9644Z" fill="#FAFAFA"/>
<path d="M84.4615 63.4733C84.4277 63.4905 84.3912 63.5019 84.3535 63.5069L84.0415 63.5813C83.9047 63.6125 83.7367 63.6461 83.5399 63.6749C83.3431 63.7037 83.1223 63.7493 82.8727 63.7733C82.2913 63.8424 81.7063 63.8776 81.1207 63.8789C80.4029 63.8746 79.6862 63.8233 78.9751 63.7253C78.2654 63.618 77.5632 63.4657 76.8727 63.2693C76.3104 63.1047 75.7575 62.9092 75.2167 62.6837C74.9767 62.5925 74.7823 62.4893 74.6023 62.4077C74.4223 62.3261 74.2687 62.2469 74.1463 62.1797L73.8631 62.0261C73.8297 62.0098 73.7983 61.9896 73.7695 61.9661C73.7695 61.9661 73.8079 61.9661 73.8751 62.0045L74.1679 62.1365C74.2927 62.1965 74.4487 62.2685 74.6311 62.3429C74.8135 62.4173 75.0175 62.5157 75.2503 62.5997C75.7918 62.8137 76.3437 63.0004 76.9039 63.1589C77.5905 63.3475 78.2878 63.495 78.9919 63.6005C79.6976 63.6977 80.4085 63.7522 81.1207 63.7637C81.7025 63.7675 82.2841 63.741 82.8631 63.6845C83.1031 63.6677 83.3431 63.6293 83.5303 63.6077C83.7175 63.5861 83.8951 63.5573 84.0319 63.5333L84.3487 63.4829C84.3859 63.4759 84.4237 63.4727 84.4615 63.4733Z" fill="#FAFAFA"/>
<path d="M84.7688 62.1747C84.6375 62.2098 84.5034 62.2339 84.368 62.2467C84.1064 62.2875 83.7296 62.3283 83.2616 62.3619C82.038 62.4464 80.8091 62.4126 79.592 62.2611C78.3766 62.1051 77.1785 61.8351 76.0136 61.4547C75.5672 61.3059 75.2096 61.1739 74.9672 61.0731C74.8391 61.0276 74.7147 60.9722 74.5952 60.9075C74.7279 60.9367 74.8579 60.9768 74.984 61.0275C75.224 61.1163 75.5912 61.2339 76.04 61.3683C77.2062 61.7231 78.3999 61.98 79.6088 62.1363C80.8179 62.2859 82.0375 62.3324 83.2544 62.2755C83.7224 62.2515 84.1016 62.2251 84.3608 62.1987C84.4959 62.1788 84.6324 62.1708 84.7688 62.1747Z" fill="#FAFAFA"/>
<path d="M72.644 54.2549L65.9072 63.7349C65.3218 64.5593 65.0841 65.5808 65.2453 66.5789C65.4065 67.5771 65.9537 68.4718 66.7688 69.0701L76.52 76.2365L79.4 73.0061L70.9088 65.7029L76.5416 58.1333L72.644 54.2549Z" fill="#EEC866"/>
<path d="M69.2383 70.8867L69.3751 70.9755L69.7639 71.2539L71.2423 72.3219L76.5415 76.1931H76.4719L79.3519 72.9603V73.0443L73.6975 68.1747L70.8679 65.7387L70.8247 65.7027L70.8583 65.6571C72.2839 63.6795 73.7695 61.9371 74.9551 60.2595C75.2551 59.8395 75.5335 59.4243 75.7975 59.0187C76.0441 58.6223 76.2615 58.2084 76.4479 57.7803C76.6281 57.3866 76.7626 56.9735 76.8487 56.5491C76.9055 56.1559 76.8893 55.7556 76.8007 55.3683C76.7397 55.0352 76.6117 54.7179 76.4244 54.4357C76.2371 54.1535 75.9944 53.9123 75.7111 53.7267C75.2778 53.4578 74.7809 53.3087 74.2711 53.2947C73.9496 53.2829 73.6324 53.3718 73.3639 53.5491C73.2946 53.5943 73.2303 53.6465 73.1719 53.7051C73.1311 53.7435 73.1095 53.7627 73.1071 53.7603L73.1647 53.6955C73.2205 53.6333 73.2833 53.5777 73.3519 53.5299C73.6205 53.3407 73.9426 53.2423 74.2711 53.2491C74.7927 53.2555 75.3032 53.4013 75.7495 53.6715C76.0436 53.859 76.2961 54.1048 76.4913 54.3938C76.6866 54.6827 76.8205 55.0087 76.8847 55.3515C76.9778 55.7445 76.9974 56.1514 76.9423 56.5515C76.8597 56.9842 76.726 57.4056 76.5439 57.8067C76.3578 58.2415 76.1396 58.6619 75.8911 59.0643C75.6271 59.4723 75.3511 59.8899 75.0511 60.3123C73.8655 61.9923 72.3847 63.7467 70.9711 65.7195V65.6379L73.8007 68.0691L79.4407 72.9747L79.4839 73.0131L79.4455 73.0563L76.5655 76.2819L76.5343 76.3179L76.4959 76.2891L71.2159 72.3795L69.7567 71.2899L69.3751 71.0019C69.2791 70.9227 69.2383 70.8867 69.2383 70.8867Z" fill="#263238"/>
<g opacity="0.3">
<path d="M75.692 59.3811C75.6248 61.7331 74.1128 63.8691 74.0792 66.2211C74.0926 67.1372 74.2547 68.045 74.5592 68.9091C74.036 68.5131 73.4696 67.8651 72.8792 67.4691C72.8792 67.4691 71.7968 66.4203 71.8112 66.4779L71.8712 64.4475L72.9224 63.0843C72.872 63.1371 75.6848 59.3835 75.6848 59.3835" fill="black"/>
</g>
<path d="M73.6881 61.8963C73.462 61.7689 73.2476 61.6219 73.0473 61.4571C72.6633 61.1691 72.1449 60.7539 71.5929 60.2739C71.0409 59.7939 70.5609 59.3331 70.2249 58.9923C70.0342 58.8157 69.8592 58.6229 69.7017 58.4163C69.9095 58.5707 70.1046 58.7416 70.2849 58.9275C70.6377 59.2515 71.1249 59.6979 71.6745 60.1803C72.2241 60.6627 72.7329 61.0827 73.1025 61.3803C73.3093 61.5386 73.5049 61.711 73.6881 61.8963Z" fill="#FAFAFA"/>
<path d="M74.4992 61.0083C74.4309 60.9843 74.3669 60.9494 74.3096 60.9051C74.192 60.8331 74.0264 60.7203 73.8296 60.5787C73.4264 60.2931 72.8816 59.8779 72.3104 59.3787C71.8227 58.956 71.3565 58.509 70.9136 58.0395C70.7432 57.8595 70.6112 57.7107 70.5224 57.6051C70.4336 57.4995 70.3856 57.4371 70.3928 57.4299C70.5989 57.5994 70.7937 57.7822 70.976 57.9771C71.3312 58.3227 71.8256 58.7907 72.392 59.2827C72.9584 59.7747 73.4936 60.2019 73.8824 60.5019C74.0991 60.6568 74.3051 60.826 74.4992 61.0083Z" fill="#FAFAFA"/>
<path d="M64.3688 57.4419H62V111.79H64.3688V57.4419Z" fill="#455A64"/>
<path d="M64.3689 84.3003H82.1913C82.4504 84.3003 82.7069 84.3513 82.9463 84.4505C83.1856 84.5496 83.4031 84.6949 83.5863 84.8781C83.7695 85.0613 83.9148 85.2788 84.0139 85.5181C84.1131 85.7575 84.1641 86.014 84.1641 86.2731V86.6547C84.1641 87.1779 83.9562 87.6797 83.5863 88.0497C83.2163 88.4196 82.7145 88.6275 82.1913 88.6275H64.3689V84.3075V84.3003Z" fill="#455A64"/>
<path d="M82.7048 88.4285H81.2625V111.814H82.7048V88.4285Z" fill="#455A64"/>
<path d="M81.5913 100.644H63.6729V101.398H81.5913V100.644Z" fill="#455A64"/>
<path d="M74.4978 67.4895C74.601 67.6527 75.3755 69.0543 75.3755 69.0543H82.4985L83.2495 67.4775L74.4978 67.4895Z" fill="#F5F5F5"/>
<path d="M74.4978 67.4894C74.4978 67.4894 74.5105 67.4894 74.5376 67.4894H74.6643H75.162L77.0151 67.4702C78.5877 67.4534 80.7901 67.4318 83.2495 67.4294H83.3346L83.2893 67.5254L82.9545 68.2262L82.5437 69.0782L82.5293 69.107H82.5039C79.4944 69.107 76.8939 69.095 75.3809 69.0782H75.3683V69.0662C75.0932 68.5622 74.8778 68.1638 74.7258 67.883L74.563 67.5806C74.5249 67.511 74.5087 67.4774 74.5105 67.4798C74.5123 67.4822 74.534 67.5158 74.5756 67.5854C74.6172 67.655 74.677 67.763 74.7566 67.8902L75.4117 69.0254L75.3918 69.011C76.9047 68.9966 79.5053 68.9846 82.5148 68.9822L82.475 69.011C82.6107 68.7278 82.7501 68.4326 82.8912 68.135L83.226 67.4342L83.2658 67.5302C80.8318 67.5302 78.6565 67.5158 77.0784 67.5038L75.209 67.4894H74.6969H74.5159H74.4978Z" fill="#263238"/>
<path d="M104.743 67.4895C104.847 67.6527 105.621 69.0543 105.621 69.0543H112.744L113.495 67.4775L104.743 67.4895Z" fill="#F5F5F5"/>
<path d="M104.743 67.4894C104.743 67.4894 104.756 67.4894 104.783 67.4894H104.91H105.408L107.261 67.4702C108.833 67.4534 111.036 67.4318 113.495 67.4294H113.58L113.535 67.5254L113.202 68.2262L112.784 69.0782L112.769 69.107H112.744C109.735 69.107 107.134 69.095 105.621 69.0782H105.608V69.0662L104.966 67.883L104.803 67.5806L104.751 67.4798C104.751 67.4798 104.774 67.5158 104.816 67.5854L104.997 67.8902L105.652 69.0254L105.632 69.011C107.145 68.9966 109.745 68.9846 112.755 68.9822L112.715 69.011C112.851 68.7278 112.99 68.4326 113.131 68.135C113.247 67.895 113.359 67.655 113.466 67.4342L113.506 67.5302C111.072 67.5302 108.898 67.5158 107.319 67.5038L105.449 67.4894H104.937H104.756H104.743Z" fill="#263238"/>
<path d="M121.985 67.4895C122.088 67.6527 122.863 69.0543 122.863 69.0543H129.986L130.735 67.4775L121.985 67.4895Z" fill="#F5F5F5"/>
<path d="M121.985 67.4894C121.985 67.4894 121.998 67.4894 122.025 67.4894H122.151H122.649L124.502 67.4702C126.075 67.4534 128.277 67.4318 130.735 67.4294H130.822L130.775 67.5254L130.442 68.2262L130.026 69.1022L130.011 69.131H129.986C126.976 69.131 124.376 69.119 122.863 69.1022H122.85L122.841 69.0902L122.2 67.907L122.037 67.6046C121.999 67.535 121.983 67.5014 121.985 67.5038C121.987 67.5062 122.009 67.5398 122.05 67.6094L122.231 67.9142L122.888 69.0494L122.868 69.035C124.381 69.0206 126.982 69.0086 129.991 69.0062L129.951 69.035C130.087 68.7518 130.226 68.4566 130.368 68.159L130.702 67.4582L130.742 67.5542C128.308 67.5542 126.133 67.5398 124.555 67.5278L122.685 67.5134H122.173H121.992L121.985 67.4894Z" fill="#263238"/>
<path d="M83.6169 63.304L84.0169 69.0544H86.7477L87.03 63.208L83.6169 63.304Z" fill="#F5F5F5"/>
<path d="M83.6169 63.304C83.6362 63.3004 83.6556 63.3004 83.6749 63.304L83.8558 63.292L84.5417 63.2608L87.0319 63.1624H87.068V63.22C86.9957 64.7608 86.9088 66.5992 86.8165 68.5744C86.8165 68.74 86.8002 68.9056 86.793 69.0688V69.1264H86.7495H84.0187H83.9789V69.0736C83.8703 67.3744 83.778 65.932 83.7111 64.9024C83.6803 64.408 83.6568 64.012 83.6405 63.7264C83.6405 63.6016 83.6278 63.4984 83.6242 63.4192C83.6213 63.3857 83.6213 63.3518 83.6242 63.3184C83.6299 63.3556 83.6341 63.3933 83.6369 63.4312C83.6369 63.5152 83.6531 63.6183 83.664 63.7503C83.6857 64.0359 83.7183 64.4367 83.7581 64.9359C83.8341 65.9559 83.9391 67.3816 84.0676 69.064L84.0241 69.0136H86.755L86.7079 69.0736C86.7079 68.908 86.7242 68.7448 86.7314 68.5792C86.8292 66.604 86.9124 64.7656 86.9975 63.2272L87.0373 63.2824L84.5725 63.3231H83.8757H83.6948L83.6169 63.304Z" fill="#263238"/>
<path d="M83.945 64.5952C83.9015 64.5952 84.2219 68.3944 84.2219 68.3944H86.5039L86.7536 64.5952C86.7536 64.5952 85.7149 65.0008 85.324 65.0008C84.9331 65.0008 84.7394 64.5016 83.945 64.5952Z" fill="#E5AC19"/>
<path d="M117.528 63.304L117.928 69.0544H120.659L120.941 63.208L117.528 63.304Z" fill="#F5F5F5"/>
<path d="M117.525 63.304H117.583L117.764 63.292L118.45 63.2608L120.94 63.1624H120.984V63.22C120.911 64.7608 120.824 66.5992 120.732 68.5744C120.723 68.74 120.716 68.9056 120.709 69.0688V69.1264H120.665H117.934H117.895V69.0736C117.786 67.3744 117.692 65.932 117.627 64.9024C117.596 64.408 117.572 64.012 117.556 63.7264C117.556 63.6016 117.543 63.4984 117.54 63.4192C117.536 63.34 117.54 63.316 117.54 63.3184C117.547 63.3554 117.552 63.3931 117.554 63.4312C117.554 63.5152 117.569 63.6183 117.581 63.7503C117.603 64.0359 117.636 64.4367 117.676 64.9359C117.752 65.9559 117.857 67.3816 117.983 69.064L117.942 69.0136H120.672L120.625 69.0736C120.625 68.908 120.642 68.7448 120.649 68.5792C120.747 66.604 120.83 64.7656 120.915 63.2272L120.955 63.2824L118.49 63.3231H117.793H117.612L117.525 63.304Z" fill="#263238"/>
<path d="M117.855 64.5952C117.811 64.5952 118.132 68.3944 118.132 68.3944H120.414L120.664 64.5952C120.664 64.5952 119.625 65.0008 119.234 65.0008C118.843 65.0008 118.649 64.5016 117.855 64.5952Z" fill="#E5AC19"/>
<path d="M97.6228 63.304L98.0227 69.0544H100.754L101.036 63.208L97.6228 63.304Z" fill="#F5F5F5"/>
<path d="M97.6228 63.304C97.642 63.3004 97.6615 63.3004 97.6807 63.304L97.8617 63.292L98.5476 63.2608L101.04 63.1624H101.081V63.22C101.009 64.7608 100.924 66.5992 100.83 68.5744C100.83 68.74 100.815 68.9056 100.806 69.0688V69.1264H100.761H98.03H97.992V69.0736C97.8816 67.3744 97.7893 65.932 97.7223 64.9024C97.6934 64.408 97.6699 64.012 97.6518 63.7264C97.6518 63.6016 97.6409 63.4984 97.6355 63.4192C97.6326 63.3857 97.6326 63.3518 97.6355 63.3184C97.6412 63.3556 97.6454 63.3933 97.6481 63.4312C97.6481 63.5152 97.6644 63.6183 97.6753 63.7503C97.6988 64.0359 97.7296 64.4367 97.7694 64.9359C97.8454 65.9559 97.9504 67.3816 98.0788 69.064L98.0354 69.0136H100.766L100.719 69.0736C100.728 68.908 100.735 68.7448 100.743 68.5792C100.842 66.604 100.933 64.7656 101.009 63.2272L101.05 63.2824L98.5838 63.3231H97.8888H97.7079L97.6228 63.304Z" fill="#263238"/>
<path d="M77.4944 70.5039H76.1172V111.76H77.4944V70.5039Z" fill="#455A64"/>
<path d="M138.168 71.8577H136.791V111.731H138.168V71.8577Z" fill="#455A64"/>
<path d="M74.0314 69.0544C74.0839 72.7024 73.9608 76.7152 74.0133 80.3632C74.0314 81.6016 74.0803 82.9456 74.6847 83.8864C75.338 84.904 76.4745 85.1392 77.4644 84.8968C78.4543 84.6544 79.361 84.0208 80.3039 83.548C82.6365 82.3919 85.1843 82.2391 87.5861 83.1112C90.4454 84.1576 93.0152 86.6344 95.9632 86.9512C98.6778 87.244 101.289 85.6672 103.812 84.2896C106.335 82.912 109.123 81.6856 111.747 82.684C114.075 83.5696 115.897 86.0896 118.228 86.9632C120.899 87.9664 123.708 86.6536 126.372 85.636C129.036 84.6184 132.123 83.956 134.421 86.0272C135.107 86.6464 135.67 87.544 136.448 87.9304C139.832 89.6104 144.264 87.9304 143.687 83.4328V69.0544H74.0314Z" fill="#7E57C2"/>
<path d="M143.779 82.5182L143.621 82.6646C143.466 82.8056 143.303 82.9299 143.132 83.0366C142.468 83.4306 141.739 83.5957 141.013 83.5166C140.069 83.4422 138.941 83.0078 137.732 82.2494C137.124 81.8798 136.489 81.4454 135.805 81.0158C135.089 80.5463 134.342 80.1686 133.572 79.8878C133.157 79.742 132.733 79.6503 132.305 79.6142C131.858 79.5798 131.41 79.5966 130.966 79.6646C130.022 79.8291 129.092 80.1177 128.192 80.5262C127.251 80.9246 126.29 81.3974 125.276 81.791C124.263 82.1846 123.188 82.511 122.066 82.4486C121.499 82.4226 120.937 82.2917 120.397 82.0598C119.85 81.8105 119.326 81.4813 118.834 81.0782C117.831 80.279 116.917 79.259 115.904 78.3878C114.317 77.0432 112.524 76.188 110.655 75.8852C108.787 75.5824 106.891 75.8397 105.107 76.6382C103.956 77.2071 102.847 77.9165 101.795 78.7574C100.744 79.5542 99.7177 80.3582 98.6536 80.9966C98.1274 81.3145 97.5827 81.5753 97.0249 81.7766C96.7503 81.8768 96.4718 81.9569 96.1906 82.0166C96.0512 82.055 95.9101 82.0574 95.7707 82.0814C95.6314 82.1041 95.4912 82.1161 95.3509 82.1174C94.2578 82.1279 93.175 81.8369 92.1712 81.263C91.194 80.7302 90.2946 80.075 89.4169 79.475C88.5785 78.8674 87.7039 78.352 86.8018 77.9342C86.588 77.8393 86.3705 77.7592 86.1503 77.6942C85.9357 77.6229 85.7182 77.5676 85.4989 77.5286C85.285 77.4841 85.0692 77.4585 84.8528 77.4518C84.6413 77.4314 84.429 77.4314 84.2176 77.4518C83.4227 77.547 82.6395 77.7694 81.8849 78.1142C81.161 78.4214 80.495 78.7502 79.8562 79.0118C79.265 79.2721 78.6548 79.4491 78.0356 79.5398C77.5141 79.6145 76.9877 79.6024 76.4684 79.5038C76.0544 79.4244 75.6506 79.2693 75.2686 79.043C74.9905 78.8697 74.7313 78.6477 74.4977 78.383C74.3555 78.2192 74.2269 78.0358 74.114 77.8358L74 77.6318C74 77.6318 74.0416 77.6966 74.1212 77.8286C74.2371 78.0239 74.3674 78.2032 74.5103 78.3638C74.7441 78.6231 75.0027 78.8402 75.2795 79.0094C75.6603 79.2299 76.0622 79.3801 76.4739 79.4558C76.9899 79.5485 77.5125 79.5574 78.0302 79.4822C78.6456 79.3862 79.252 79.2069 79.8399 78.947C80.4769 78.6806 81.1465 78.3494 81.8668 78.0374C82.6277 77.6882 83.4176 77.4617 84.2194 77.363C84.4327 77.3438 84.6467 77.3438 84.86 77.363C85.0788 77.3695 85.2971 77.3952 85.5133 77.4398C85.7352 77.4774 85.9552 77.5327 86.1721 77.6054C86.3948 77.6695 86.6147 77.7497 86.8308 77.8454C87.734 78.2612 88.6098 78.7749 89.4494 79.3814C90.329 79.9814 91.2284 80.6342 92.2002 81.1622C93.1939 81.7262 94.2646 82.013 95.3454 82.0046C95.484 82.0015 95.6223 81.9887 95.7599 81.9662C95.8974 81.9422 96.0386 81.9398 96.1761 81.9014C96.4536 81.8412 96.7285 81.7611 96.9995 81.6614C97.5532 81.4606 98.0936 81.2005 98.6156 80.8838C99.6743 80.2502 100.699 79.4438 101.748 78.6494C102.806 77.8034 103.922 77.09 105.08 76.5182C106.877 75.7134 108.787 75.4541 110.67 75.7595C112.553 76.0648 114.36 76.9269 115.958 78.2822C116.977 79.1606 117.889 80.1782 118.884 80.9726C119.371 81.3744 119.89 81.7021 120.432 81.9494C120.964 82.1793 121.517 82.3094 122.077 82.3358C123.184 82.3934 124.248 82.0742 125.262 81.6878C126.275 81.3014 127.231 80.8262 128.173 80.4302C129.078 80.0231 130.011 79.7361 130.959 79.5734C131.408 79.505 131.861 79.4889 132.312 79.5254C132.744 79.5651 133.172 79.6591 133.59 79.8062C134.363 80.0911 135.114 80.4737 135.832 80.9486C136.516 81.3806 137.151 81.8174 137.756 82.1918C138.959 82.9526 140.08 83.3918 141.013 83.471C141.734 83.5553 142.459 83.4002 143.123 83.0198C143.293 82.916 143.457 82.7957 143.614 82.6598C143.722 82.5686 143.779 82.5182 143.779 82.5182Z" fill="#E5AC19"/>
<path d="M143.778 84.4072L143.621 84.5536C143.465 84.6934 143.301 84.8154 143.13 84.9184C142.461 85.2956 141.728 85.4321 141.006 85.3144C140.065 85.1968 138.954 84.7216 137.748 83.9752C137.14 83.6056 136.505 83.1712 135.823 82.7416C135.108 82.2727 134.362 81.8942 133.593 81.6112C132.745 81.3136 131.862 81.2321 130.991 81.3712C130.048 81.5322 129.119 81.8185 128.218 82.2256C127.277 82.6216 126.32 83.0944 125.308 83.4904C124.297 83.8864 123.224 84.2104 122.102 84.1576C121.535 84.1364 120.973 84.0096 120.433 83.7808C119.884 83.5375 119.358 83.2105 118.866 82.8064C117.862 82.012 116.948 80.9944 115.94 80.1208C114.358 78.7732 112.568 77.9117 110.703 77.5994C108.837 77.2872 106.942 77.532 105.157 78.316C104.006 78.881 102.898 79.5873 101.846 80.4256C100.798 81.2176 99.7736 82.024 98.7113 82.6648C97.6788 83.3265 96.56 83.7184 95.4158 83.8192C94.3226 83.8424 93.2378 83.5628 92.2307 82.9984C91.2499 82.4776 90.3523 81.82 89.4764 81.22C88.6415 80.6154 87.7727 80.097 86.8776 79.6696C86.7691 79.624 86.6623 79.5712 86.5537 79.528L86.2261 79.4176C86.1176 79.3816 86.0108 79.3408 85.9022 79.312L85.5765 79.2424C85.4697 79.2208 85.3629 79.1944 85.2543 79.1776L84.9322 79.1536L84.6137 79.132L84.2988 79.144C83.5043 79.2262 82.7206 79.4399 81.9661 79.78C81.2422 80.0824 80.5763 80.4136 79.9392 80.6776C79.3503 80.9369 78.7444 81.1233 78.1295 81.2344C77.6098 81.3209 77.0839 81.3209 76.5641 81.2344C76.1491 81.1656 75.7438 81.0177 75.3607 80.7952C75.0822 80.6242 74.8233 80.402 74.5916 80.1352C74.45 79.9715 74.3214 79.7889 74.2079 79.5904C74.1319 79.456 74.0957 79.384 74.0957 79.384L74.217 79.5808C74.332 79.7762 74.4618 79.9555 74.6042 80.116C74.8369 80.3761 75.095 80.5933 75.3715 80.7616C75.7535 80.9787 76.1569 81.1218 76.5696 81.1864C77.0862 81.2662 77.6082 81.2622 78.1241 81.1744C78.7395 81.0617 79.3454 80.8721 79.9338 80.608C80.569 80.3416 81.2368 80.008 81.9589 79.7032C82.7194 79.3565 83.5098 79.1379 84.3115 79.0528L84.63 79.0408L84.9521 79.0624L85.2779 79.084C85.3864 79.1008 85.495 79.1272 85.6036 79.1488L85.933 79.2184C86.0434 79.2472 86.1501 79.288 86.2605 79.324L86.5899 79.4344C86.6985 79.4776 86.8071 79.528 86.9156 79.576C87.8114 80.0076 88.6808 80.5299 89.5162 81.1384C90.3939 81.736 91.2897 82.3912 92.2651 82.9048C93.2585 83.4618 94.3284 83.7389 95.4068 83.7184C96.5379 83.6138 97.6435 83.2236 98.6642 82.5688C99.7211 81.9304 100.742 81.1288 101.791 80.3296C102.849 79.4829 103.964 78.7694 105.121 78.1984C106.919 77.4091 108.827 77.1628 110.706 77.4776C112.584 77.7923 114.386 78.6602 115.979 80.0176C116.993 80.8984 117.907 81.916 118.902 82.7032C119.389 83.1005 119.908 83.4225 120.449 83.6632C120.982 83.8873 121.536 84.0125 122.094 84.0352C123.2 84.088 124.266 83.764 125.274 83.3776C126.282 82.9912 127.241 82.516 128.184 82.12C129.089 81.7127 130.023 81.4273 130.971 81.268C131.851 81.1276 132.742 81.209 133.599 81.508C134.373 81.8 135.125 82.1889 135.845 82.6696C136.529 83.104 137.162 83.5384 137.766 83.9104C138.972 84.6616 140.076 85.1416 141.011 85.2664C141.728 85.3876 142.456 85.2602 143.125 84.8968C143.296 84.7956 143.46 84.6769 143.617 84.5416C143.722 84.4504 143.778 84.4072 143.778 84.4072Z" fill="#E5AC19"/>
</svg>
