<svg width="24" height="29" viewBox="0 0 24 29" fill="none" xmlns="http://www.w3.org/2000/svg">
<path d="M11.1709 1.26143C11.6832 0.962594 12.3167 0.962594 12.829 1.26143L23.0298 7.21192C23.5353 7.50678 23.8461 8.04792 23.8461 8.6331V20.5636C23.8461 21.1488 23.5353 21.6899 23.0298 21.9848L12.829 27.9353C12.3167 28.2341 11.6832 28.2341 11.1709 27.9353L0.97009 21.9848C0.464625 21.6899 0.153809 21.1488 0.153809 20.5636V8.6331C0.153809 8.04792 0.464624 7.50678 0.970089 7.21192L11.1709 1.26143Z" fill="url(#paint0_linear_1_12535)"/>
<g filter="url(#filter0_i_1_12535)">
<path d="M11.6251 5.7902C11.8817 5.64005 12.1994 5.64005 12.456 5.7902L19.3662 9.83344C19.6184 9.981 19.7734 10.2513 19.7734 10.5435V18.6491C19.7734 18.9413 19.6184 19.2115 19.3662 19.3591L12.456 23.4023C12.1994 23.5525 11.8817 23.5525 11.6251 23.4023L4.71482 19.3591C4.46262 19.2115 4.30762 18.9413 4.30762 18.6491V10.5435C4.30762 10.2513 4.46262 9.981 4.71482 9.83344L11.6251 5.7902Z" fill="url(#paint1_radial_1_12535)"/>
<path d="M11.6251 5.7902C11.8817 5.64005 12.1994 5.64005 12.456 5.7902L19.3662 9.83344C19.6184 9.981 19.7734 10.2513 19.7734 10.5435V18.6491C19.7734 18.9413 19.6184 19.2115 19.3662 19.3591L12.456 23.4023C12.1994 23.5525 11.8817 23.5525 11.6251 23.4023L4.71482 19.3591C4.46262 19.2115 4.30762 18.9413 4.30762 18.6491V10.5435C4.30762 10.2513 4.46262 9.981 4.71482 9.83344L11.6251 5.7902Z" fill="url(#paint2_radial_1_12535)" fill-opacity="0.29"/>
<path d="M11.6251 5.7902C11.8817 5.64005 12.1994 5.64005 12.456 5.7902L19.3662 9.83344C19.6184 9.981 19.7734 10.2513 19.7734 10.5435V18.6491C19.7734 18.9413 19.6184 19.2115 19.3662 19.3591L12.456 23.4023C12.1994 23.5525 11.8817 23.5525 11.6251 23.4023L4.71482 19.3591C4.46262 19.2115 4.30762 18.9413 4.30762 18.6491V10.5435C4.30762 10.2513 4.46262 9.981 4.71482 9.83344L11.6251 5.7902Z" fill="url(#paint3_linear_1_12535)" fill-opacity="0.2" style="mix-blend-mode:multiply"/>
</g>
<path d="M19.3662 9.83344L19.6986 9.2654L12.7883 5.22217C12.3264 4.9519 11.7546 4.9519 11.2927 5.22217L4.38246 9.2654C3.92849 9.53102 3.6495 10.0175 3.6495 10.5435V18.6491C3.6495 19.175 3.9285 19.6615 4.38246 19.9271L4.71261 19.3629L4.38246 19.9271L11.2927 23.9704C11.7546 24.2406 12.3264 24.2406 12.7883 23.9704L19.6986 19.9271C20.1525 19.6615 20.4315 19.175 20.4315 18.6491V10.5435C20.4315 10.0175 20.1525 9.53102 19.6986 9.2654L19.3662 9.83344Z" stroke="url(#paint4_linear_1_12535)" stroke-width="1.31624"/>
<path opacity="0.42" d="M13.0892 4.56326C12.3988 4.16152 11.5457 4.16152 10.8552 4.56326L3.94498 8.58378C3.26138 8.98151 2.84083 9.71274 2.84083 10.5036V18.5733C2.84083 19.3642 3.26138 20.0954 3.94498 20.4931L10.8552 24.5137C11.5457 24.9154 12.3988 24.9154 13.0892 24.5137L19.9995 20.4931C20.6831 20.0954 21.1037 19.3642 21.1037 18.5733V10.5036C21.1037 9.71274 20.6831 8.98151 19.9995 8.58378L13.0892 4.56326Z" stroke="url(#paint5_linear_1_12535)" stroke-width="0.16453"/>
<path d="M11.751 20.0086H8.15381V9.39319H11.8236C12.8775 9.39319 13.7829 9.6057 14.5396 10.0307C15.2998 10.4523 15.8838 11.0588 16.2916 11.8501C16.6993 12.6414 16.9032 13.5882 16.9032 14.6905C16.9032 15.7963 16.6976 16.7466 16.2864 17.5413C15.8786 18.3361 15.2895 18.946 14.5189 19.371C13.7518 19.7961 12.8291 20.0086 11.751 20.0086ZM10.0768 18.3447H11.6577C12.3972 18.3447 13.014 18.21 13.5082 17.9404C14.0023 17.6675 14.3738 17.2614 14.6226 16.7224C14.8714 16.1798 14.9958 15.5026 14.9958 14.6905C14.9958 13.8785 14.8714 13.2046 14.6226 12.669C14.3738 12.13 14.0057 11.7274 13.5185 11.4613C13.0347 11.1918 12.4335 11.057 11.7147 11.057H10.0768V18.3447Z" fill="url(#paint6_linear_1_12535)"/>
<defs>
<filter id="filter0_i_1_12535" x="2.99146" y="4.36133" width="18.0981" height="20.4698" filterUnits="userSpaceOnUse" color-interpolation-filters="sRGB">
<feFlood flood-opacity="0" result="BackgroundImageFix"/>
<feBlend mode="normal" in="SourceGraphic" in2="BackgroundImageFix" result="shape"/>
<feColorMatrix in="SourceAlpha" type="matrix" values="0 0 0 0 0 0 0 0 0 0 0 0 0 0 0 0 0 0 127 0" result="hardAlpha"/>
<feOffset/>
<feGaussianBlur stdDeviation="3.70192"/>
<feComposite in2="hardAlpha" operator="arithmetic" k2="-1" k3="1"/>
<feColorMatrix type="matrix" values="0 0 0 0 0.203922 0 0 0 0 0.176471 0 0 0 0 0.478431 0 0 0 1 0"/>
<feBlend mode="normal" in2="shape" result="effect1_innerShadow_1_12535"/>
</filter>
<linearGradient id="paint0_linear_1_12535" x1="4.67838" y1="2.66993" x2="15.3728" y2="27.0204" gradientUnits="userSpaceOnUse">
<stop stop-color="#A0D9F9"/>
<stop offset="1" stop-color="#5989D2"/>
</linearGradient>
<radialGradient id="paint1_radial_1_12535" cx="0" cy="0" r="1" gradientUnits="userSpaceOnUse" gradientTransform="translate(12.0405 14.9967) rotate(90) scale(14.7195 12.7273)">
<stop stop-color="#0261A6"/>
<stop offset="1" stop-color="#053D90"/>
</radialGradient>
<radialGradient id="paint2_radial_1_12535" cx="0" cy="0" r="1" gradientUnits="userSpaceOnUse" gradientTransform="translate(8.4266 11.5439) rotate(-48.4041) scale(9.11228 4.80407)">
<stop stop-color="white"/>
<stop offset="1" stop-color="white" stop-opacity="0"/>
</radialGradient>
<linearGradient id="paint3_linear_1_12535" x1="12.0405" y1="5.54712" x2="12.0405" y2="24.4462" gradientUnits="userSpaceOnUse">
<stop stop-color="#6FB1D6" stop-opacity="0"/>
<stop offset="0.0001" stop-color="#30297A" stop-opacity="0"/>
<stop offset="1" stop-color="#095A88"/>
</linearGradient>
<linearGradient id="paint4_linear_1_12535" x1="4.84608" y1="26.1625" x2="21.1747" y2="1.12601" gradientUnits="userSpaceOnUse">
<stop stop-color="#7BBDE2"/>
<stop offset="1" stop-color="#5989D2"/>
</linearGradient>
<linearGradient id="paint5_linear_1_12535" x1="6.37937" y1="5.45014" x2="14.5132" y2="24.0184" gradientUnits="userSpaceOnUse">
<stop stop-color="#A0D9F9"/>
<stop offset="1" stop-color="#5989D2"/>
</linearGradient>
<linearGradient id="paint6_linear_1_12535" x1="9.8247" y1="10.1198" x2="14.0404" y2="19.3499" gradientUnits="userSpaceOnUse">
<stop stop-color="#A0D9F9"/>
<stop offset="1" stop-color="#5989D2"/>
</linearGradient>
</defs>
</svg>
