<svg width="106" height="10" viewBox="0 0 106 10" fill="none" xmlns="http://www.w3.org/2000/svg">
<g clip-path="url(#clip0_415_1781)">
<path d="M52.3398 3.57493C52.5867 3.89051 53.1025 3.96408 53.3944 3.66977C54.1552 2.89228 54.7037 1.80408 56.3202 1.37657C56.0669 0.549655 54.8385 0.184332 53.9331 1.09452C53.7271 0.259027 53.3813 0.0575942 52.6709 0.14044C52.2106 0.198493 51.9981 0.696379 51.9327 1.10105C51.1522 0.301952 49.8717 0.397888 49.5137 1.38065C50.8137 1.71292 51.487 2.5313 52.3398 3.57493Z" fill="url(#paint0_linear_415_1781)"/>
<path d="M43.8516 3.82749C43.9301 3.90762 44.0977 3.94114 44.1344 3.80215C44.4484 3.18492 44.6323 2.47363 44.5792 1.78037C44.4999 1.10997 43.693 0.839385 43.1297 1.0822C42.6654 1.31112 42.4937 1.90546 42.6834 2.3731C42.9286 2.95354 43.3725 3.42854 43.8516 3.82749Z" fill="url(#paint1_linear_415_1781)"/>
<path d="M61.8376 3.89193C61.9872 3.91646 62.0804 3.77912 62.1867 3.6998C64.1274 2.08316 63.1484 0.667854 61.9186 1.06077C61.6414 1.14988 61.4264 1.38207 61.352 1.66248C61.2065 2.07616 61.3471 2.50863 61.4338 2.91823C61.5269 3.25589 61.6332 3.60415 61.8376 3.89193Z" fill="url(#paint2_linear_415_1781)"/>
<path d="M52.3444 5.4825C52.0141 5.48822 51.6822 5.46533 51.3528 5.48986C51.2404 5.55975 50.2766 7.01354 48.6444 7.11841C47.1679 7.20565 45.4284 5.92118 45.542 4.4745C45.7536 1.57013 49.5097 1.75565 49.4186 3.73625C49.3998 4.17773 49.0016 4.54726 48.5602 4.53255C48.5945 4.31346 48.6329 4.07636 48.5185 3.87278C48.2863 3.43214 47.5833 3.39125 47.284 3.7804C46.9704 4.14512 46.9629 4.98247 48.2577 5.3509C49.1055 5.55447 50.0317 4.95357 50.2246 4.11234C50.3873 3.30705 50.066 2.41594 49.3973 1.92868C47.6622 0.725285 44.5267 1.68054 44.3868 4.83423C44.2103 4.64701 44.028 4.46716 43.8367 4.2971C42.9243 3.48855 41.9629 2.61868 40.7261 2.37915C39.9707 2.30804 39.154 2.3252 38.4886 2.73724C37.5714 3.39039 37.1251 4.53566 37.649 5.65668C38.1518 6.66309 39.5955 7.03262 40.5274 6.41617C41.0359 6.09651 41.2256 5.39832 40.9983 4.85385C40.7898 4.40338 40.2266 4.24561 39.7745 4.36986C39.4115 4.50475 39.1614 4.92826 39.2709 5.31004C39.3052 5.52997 39.454 5.70164 39.593 5.86679C39.2284 5.83737 38.8164 5.79567 38.567 5.49235C38.0471 4.90289 38.2809 3.9055 38.9186 3.49753C39.459 3.11084 40.1686 3.18441 40.7882 3.27925C42.8685 3.87806 43.2652 6.09696 45.8363 7.46098C46.9751 8.0071 48.3101 8.12156 49.5314 7.81008C50.7536 7.48303 51.7337 6.56655 52.3444 5.4825Z" fill="url(#paint3_linear_415_1781)"/>
<path d="M65.0781 2.39958C63.6197 2.72987 62.5365 3.83765 61.4933 4.83423C61.4402 3.56703 60.7625 2.27859 59.591 1.71448C58.6852 1.34659 57.6094 1.31307 56.7322 1.77906C55.8771 2.223 55.443 3.31113 55.7078 4.22677C55.9376 4.91676 56.6537 5.45635 57.3952 5.38032C58.3019 5.32543 59.1133 4.5778 58.677 3.86215C58.4293 3.43703 57.7222 3.38143 57.4361 3.79266C57.235 3.99132 57.2906 4.2889 57.3339 4.53744C56.9554 4.52599 56.5826 4.27338 56.5057 3.88995C56.275 2.36016 58.3032 1.77431 59.5313 2.7462C60.3764 3.46838 60.8554 5.23373 59.4782 6.31558C58.0228 7.58464 56.0088 7.39645 54.574 5.4825C54.238 5.48085 53.9012 5.4825 53.5652 5.4825C54.1759 6.60579 55.2362 7.51164 56.4828 7.83783C59.0337 8.41542 60.9177 7.34313 62.5651 5.32143C63.0924 4.60772 63.7382 3.96841 64.5067 3.51711C65.0201 3.21707 65.6291 3.18436 66.2095 3.21953C67.6115 3.36137 68.0194 4.92424 67.1889 5.61574C66.9469 5.83403 66.6052 5.83484 66.3003 5.86509C66.6232 5.55934 66.7687 5.01157 66.4769 4.63878C66.2022 4.24472 65.6169 4.26434 65.2384 4.48181C64.6612 4.88405 64.7012 5.79724 65.1869 6.25589C65.6929 6.74886 66.4916 6.83879 67.144 6.62215C68.1364 6.27715 68.7144 5.08191 68.3972 4.08613C67.9595 2.57996 66.6191 2.19259 65.0781 2.39958Z" fill="url(#paint4_linear_415_1781)"/>
<path d="M7.46088 4.08932C6.79135 4.01983 6.06623 3.9201 5.53239 3.47209C4.99529 3.01428 4.61433 2.34553 4.64377 1.6228C4.10014 1.71764 3.59982 2.06018 3.34395 2.55235C3.15102 2.97828 3.30064 3.45164 3.496 3.84651C2.54035 3.82443 1.41546 3.88003 0.75 4.67058C1.3531 5.2319 1.88881 5.53475 3.5099 5.47832C3.272 5.91816 3.11259 6.50189 3.43714 6.94173C3.69301 7.37338 4.17697 7.55569 4.61762 7.73638C4.7309 7.25751 4.55542 6.90724 5.37708 5.99256C5.78828 5.55845 6.39242 5.40475 6.96059 5.29928C7.52711 5.18482 8.10756 5.21915 8.68144 5.21507C17.5587 5.21426 26.4368 5.21588 35.3141 5.21426C35.3133 4.83982 35.3133 4.46541 35.3133 4.09097C26.0297 4.09016 16.7453 4.09423 7.46088 4.08932Z" fill="url(#paint5_linear_415_1781)"/>
<path d="M105.236 4.69184C104.589 3.88329 103.449 3.83015 102.495 3.85304C102.671 3.46796 102.813 3.02079 102.646 2.6063C102.432 2.06917 101.882 1.73562 101.335 1.6228C101.333 1.88114 101.346 2.14768 101.252 2.39373C100.987 3.03633 100.492 3.61432 99.8186 3.84159C98.6369 4.19304 101.294 4.10296 70.6787 4.09747C70.677 4.47191 70.6779 4.84717 70.6787 5.22161C79.8494 5.22161 89.0202 5.2208 98.191 5.22161C98.8384 5.24449 99.4949 5.35488 100.091 5.61648C100.599 5.84866 100.932 6.32282 101.186 6.80109C101.347 7.08641 101.325 7.42161 101.352 7.73716C101.879 7.5761 102.416 7.27525 102.646 6.74711C102.817 6.32936 102.67 5.87071 102.485 5.48647C103.45 5.5421 104.532 5.43336 105.236 4.69184Z" fill="url(#paint6_linear_415_1781)"/>
<path d="M35.8262 5.19865C36.1458 5.19784 36.4655 5.19784 36.7851 5.19865C36.7851 4.83076 36.7851 4.46285 36.7859 4.09578C36.4655 4.09497 36.1458 4.09497 35.8262 4.09497C35.8245 4.46285 35.8245 4.83076 35.8262 5.19865Z" fill="url(#paint7_linear_415_1781)"/>
<path d="M69.2038 5.19865C69.5226 5.19784 69.8422 5.19784 70.1627 5.19865C70.1635 4.83076 70.1635 4.46285 70.1627 4.09497C69.8422 4.09497 69.5226 4.09497 69.2038 4.09497C69.2029 4.46285 69.2029 4.83076 69.2038 5.19865Z" fill="url(#paint8_linear_415_1781)"/>
<path d="M51.1213 4.17197C50.966 4.17362 50.8107 4.17197 50.6586 4.20139C50.4109 4.23818 50.2548 4.48998 50.2392 4.72381C50.2065 5.06228 50.5482 5.34104 50.8712 5.31816C52.292 5.31324 53.7137 5.32223 55.1345 5.31408C55.5538 5.292 55.7459 4.73771 55.5252 4.41315C55.374 4.0781 55.2198 4.18532 51.1213 4.17197Z" fill="url(#paint9_linear_415_1781)"/>
<path d="M53.3903 6.12465C53.1467 5.86877 52.6823 5.88429 52.4395 6.13364C51.8231 6.72205 51.1377 8.01731 49.5137 8.42438C49.9155 9.44997 51.3045 9.46679 51.9335 8.66064C52.0285 9.40882 52.5149 9.85315 53.3061 9.61963C53.6977 9.46266 53.8636 9.04736 53.9274 8.65983C54.2086 8.97457 54.5953 9.24519 55.0351 9.22557C55.5608 9.25744 56.1862 8.96478 56.3145 8.4154C54.7096 8.04676 54.0563 6.72414 53.3903 6.12465Z" fill="url(#paint10_linear_415_1781)"/>
</g>
<defs>
<linearGradient id="paint0_linear_415_1781" x1="57.7067" y1="4.40828" x2="52.8838" y2="-3.95062" gradientUnits="userSpaceOnUse">
<stop stop-color="#EFB31A"/>
<stop offset="0.341122" stop-color="#FBC437"/>
<stop offset="0.757793" stop-color="#F9E7B7"/>
<stop offset="1" stop-color="#FAE09E"/>
</linearGradient>
<linearGradient id="paint1_linear_415_1781" x1="44.9918" y1="4.32702" x2="41.036" y2="1.7615" gradientUnits="userSpaceOnUse">
<stop stop-color="#EFB31A"/>
<stop offset="0.341122" stop-color="#FBC437"/>
<stop offset="0.757793" stop-color="#F9E7B7"/>
<stop offset="1" stop-color="#FAE09E"/>
</linearGradient>
<linearGradient id="paint2_linear_415_1781" x1="63.692" y1="4.3245" x2="59.7255" y2="1.73011" gradientUnits="userSpaceOnUse">
<stop stop-color="#EFB31A"/>
<stop offset="0.341122" stop-color="#FBC437"/>
<stop offset="0.757793" stop-color="#F9E7B7"/>
<stop offset="1" stop-color="#FAE09E"/>
</linearGradient>
<linearGradient id="paint3_linear_415_1781" x1="55.3834" y1="8.95163" x2="47.9305" y2="-7.16959" gradientUnits="userSpaceOnUse">
<stop stop-color="#EFB31A"/>
<stop offset="0.341122" stop-color="#FBC437"/>
<stop offset="0.757793" stop-color="#F9E7B7"/>
<stop offset="1" stop-color="#FAE09E"/>
</linearGradient>
<linearGradient id="paint4_linear_415_1781" x1="71.5235" y1="8.96524" x2="64.0609" y2="-7.16458" gradientUnits="userSpaceOnUse">
<stop stop-color="#EFB31A"/>
<stop offset="0.341122" stop-color="#FBC437"/>
<stop offset="0.757793" stop-color="#F9E7B7"/>
<stop offset="1" stop-color="#FAE09E"/>
</linearGradient>
<linearGradient id="paint5_linear_415_1781" x1="42.3549" y1="8.64209" x2="39.0717" y2="-8.998" gradientUnits="userSpaceOnUse">
<stop stop-color="#EFB31A"/>
<stop offset="0.341122" stop-color="#FBC437"/>
<stop offset="0.757793" stop-color="#F9E7B7"/>
<stop offset="1" stop-color="#FAE09E"/>
</linearGradient>
<linearGradient id="paint6_linear_415_1781" x1="112.276" y1="8.643" x2="108.991" y2="-8.99902" gradientUnits="userSpaceOnUse">
<stop stop-color="#EFB31A"/>
<stop offset="0.341122" stop-color="#FBC437"/>
<stop offset="0.757793" stop-color="#F9E7B7"/>
<stop offset="1" stop-color="#FAE09E"/>
</linearGradient>
<linearGradient id="paint7_linear_415_1781" x1="36.9817" y1="5.36215" x2="35.3634" y2="4.02311" gradientUnits="userSpaceOnUse">
<stop stop-color="#EFB31A"/>
<stop offset="0.341122" stop-color="#FBC437"/>
<stop offset="0.757793" stop-color="#F9E7B7"/>
<stop offset="1" stop-color="#FAE09E"/>
</linearGradient>
<linearGradient id="paint8_linear_415_1781" x1="70.3589" y1="5.36215" x2="68.7408" y2="4.02441" gradientUnits="userSpaceOnUse">
<stop stop-color="#EFB31A"/>
<stop offset="0.341122" stop-color="#FBC437"/>
<stop offset="0.757793" stop-color="#F9E7B7"/>
<stop offset="1" stop-color="#FAE09E"/>
</linearGradient>
<linearGradient id="paint9_linear_415_1781" x1="56.7137" y1="5.49039" x2="55.9742" y2="2.21303" gradientUnits="userSpaceOnUse">
<stop stop-color="#EFB31A"/>
<stop offset="0.341122" stop-color="#FBC437"/>
<stop offset="0.757793" stop-color="#F9E7B7"/>
<stop offset="1" stop-color="#FAE09E"/>
</linearGradient>
<linearGradient id="paint10_linear_415_1781" x1="57.6999" y1="10.2365" x2="52.8548" y2="1.86951" gradientUnits="userSpaceOnUse">
<stop stop-color="#EFB31A"/>
<stop offset="0.341122" stop-color="#FBC437"/>
<stop offset="0.757793" stop-color="#F9E7B7"/>
<stop offset="1" stop-color="#FAE09E"/>
</linearGradient>
<clipPath id="clip0_415_1781">
<rect width="104.5" height="9.5614" fill="white" transform="translate(0.75 0.124023)"/>
</clipPath>
</defs>
</svg>
