<svg width="144" height="121" viewBox="0 0 144 121" fill="none" xmlns="http://www.w3.org/2000/svg">
<path d="M20.6424 77.8203H45.6384V58.5411H20.6424L20.6424 77.8203Z" fill="#EEC866"/>
<path d="M26.904 77.6836C26.9376 77.6836 26.9664 73.3876 26.9664 68.0836C26.9664 62.7796 26.9376 58.4836 26.904 58.4836C26.8704 58.4836 26.8416 62.7796 26.8416 68.0836C26.8416 73.3876 26.8608 77.6836 26.904 77.6836Z" fill="#F2D58C"/>
<path d="M38.0113 58.5891H35.1721V62.7027H38.0113V58.5891Z" fill="#F2D58C"/>
<path d="M38.0113 73.6492H35.1721V77.7628H38.0113V73.6492Z" fill="#F2D58C"/>
<path d="M55.164 78.0916H13.8984V109.918H55.164V78.0916Z" fill="#F2D58C"/>
<path d="M44.8248 109.695C44.7792 109.695 44.7432 102.6 44.7432 93.8546C44.7432 85.109 44.7792 78.0146 44.8248 78.0146C44.8704 78.0146 44.9064 85.1066 44.9064 93.8546C44.9064 102.603 44.8608 109.695 44.8248 109.695Z" fill="#EEC866"/>
<path d="M51.6649 102.675H48.5017V106.251H51.6649V102.675Z" fill="#FAFAFA"/>
<path d="M31.1735 78.1731H26.4863V84.9651H31.1735V78.1731Z" fill="#E5AC19"/>
<path d="M31.1735 103.032H26.4863V109.824H31.1735V103.032Z" fill="#E5AC19"/>
<path d="M99.996 26.1123C99.996 26.1123 98.1336 25.0803 96.3072 29.4867C94.4808 33.8931 93.8568 36.3987 93.8568 36.3987C93.8568 36.3987 93.3552 37.3323 92.7 36.7995C92.0448 36.2667 91.08 34.6875 90.06 35.0643C89.0088 35.4579 88.7496 36.6843 89.1 38.4243C89.4504 40.1643 90.06 44.0235 90.1104 44.3715C90.1608 44.7195 90.0048 45.2379 89.5008 44.9451C88.9968 44.6523 86.0016 41.8059 84.7344 43.3059C83.4672 44.8059 85.2144 49.5171 85.4064 50.0259C85.5984 50.5347 85.5024 50.7771 85.2624 50.9283C85.0224 51.0795 84.1032 50.0259 83.22 49.2483C82.3368 48.4707 81.1728 47.7291 80.5128 48.6555C79.8528 49.5819 79.9056 53.2155 83.808 58.8147L85.7832 61.2915L88.9392 60.8667C95.6328 59.5467 98.1912 56.9691 98.3616 55.8435C98.532 54.7179 97.1808 54.4755 96.0048 54.4323C94.8288 54.3891 93.4392 54.4971 93.3648 54.2211C93.2904 53.9451 93.3984 53.7171 93.888 53.4699C94.3776 53.2227 98.9112 51.0555 99.0432 49.0947C99.1752 47.1339 95.04 47.1051 94.4832 46.9635C93.9264 46.8219 94.1664 46.3371 94.4424 46.1283C94.7184 45.9195 97.8408 43.5675 99.3 42.5499C100.759 41.5323 101.426 40.4691 100.942 39.4563C100.476 38.4819 98.6856 38.9475 97.8432 38.8755C97.0008 38.8035 97.2888 37.7859 97.2888 37.7859C97.2888 37.7859 98.58 35.5467 100.325 31.1091C102.07 26.6715 99.96 26.1171 99.96 26.1171" fill="#F2D58C"/>
<path d="M85.9009 60.6724C87.1945 57.418 89.0209 52.9372 91.0561 47.9932C93.0913 43.0492 94.9249 38.5756 96.2377 35.3284C96.8905 33.7084 97.4185 32.3956 97.7881 31.4884L98.2105 30.4444C98.2585 30.3292 98.2945 30.238 98.3233 30.1732C98.3353 30.1422 98.3489 30.1117 98.3641 30.082C98.3641 30.082 98.3641 30.1156 98.3329 30.178C98.3017 30.2404 98.2753 30.334 98.2297 30.4516C98.1361 30.6916 98.0017 31.0516 97.8265 31.5052C97.4737 32.4196 96.9553 33.7372 96.3073 35.3644C95.0137 38.6188 93.1873 43.0996 91.1545 48.0412C89.1217 52.9828 87.2857 57.4612 85.9729 60.7084" fill="#EEC866"/>
<path d="M91.3271 37.3396C91.3677 37.4045 91.4007 37.4737 91.4255 37.546C91.4831 37.6828 91.5599 37.882 91.6511 38.1268C91.8359 38.6212 92.0712 39.31 92.316 40.0732C92.5608 40.8364 92.7696 41.5132 92.9376 42.034L93.1271 42.6268C93.1565 42.6975 93.1766 42.7717 93.1871 42.8476C93.1466 42.7827 93.1136 42.7135 93.0888 42.6412C93.0312 42.5044 92.9543 42.3052 92.8655 42.058C92.6855 41.5636 92.4599 40.8724 92.2127 40.1068L91.5792 38.1532C91.5048 37.9132 91.4399 37.7236 91.3871 37.5604C91.3578 37.4897 91.3376 37.4155 91.3271 37.3396Z" fill="#EEC866"/>
<path d="M93.4824 42.8812C93.4824 42.8524 94.8696 42.3028 96.6024 41.6548C98.3352 41.0068 99.7512 40.5004 99.7608 40.5292C99.7704 40.558 98.376 41.1076 96.6408 41.7556C94.9056 42.4036 93.492 42.9124 93.4824 42.8812Z" fill="#EEC866"/>
<path d="M90.0168 50.3307C90.0952 50.3102 90.1758 50.2997 90.2568 50.2995L90.8904 50.2491C91.4256 50.2083 92.1648 50.1483 92.9784 50.0523C93.792 49.9563 94.5241 49.8483 95.0545 49.7643L95.6832 49.6659C95.7617 49.6467 95.8426 49.6394 95.9232 49.6443C95.8505 49.6737 95.7749 49.6954 95.6976 49.7091C95.5512 49.7427 95.3376 49.7883 95.0736 49.8411C94.548 49.9419 93.8136 50.0643 92.9976 50.1603C92.1816 50.2563 91.44 50.3043 90.9024 50.3259C90.6336 50.3259 90.4224 50.3427 90.2664 50.3403C90.1832 50.3467 90.0994 50.3435 90.0168 50.3307Z" fill="#EEC866"/>
<path d="M86.9666 45.7468C87.0195 45.7962 87.0663 45.8518 87.1057 45.9124C87.1873 46.0228 87.3074 46.186 87.4514 46.3924C87.7394 46.7956 88.1329 47.3524 88.5601 47.9836C88.9873 48.6148 89.369 49.1836 89.6426 49.594C89.7794 49.8004 89.8826 49.9708 89.9594 50.0884C90.0025 50.1469 90.038 50.2106 90.065 50.278C90.065 50.278 90.0097 50.2228 89.9257 50.1124C89.8417 50.002 89.7242 49.8388 89.5778 49.6324C89.2898 49.2268 88.8986 48.6724 88.469 48.0412C88.0394 47.41 87.6602 46.8412 87.3866 46.4308C87.2522 46.2244 87.1466 46.054 87.0698 45.9364C87.0267 45.8784 86.9919 45.8145 86.9666 45.7468Z" fill="#EEC866"/>
<path d="M83.0713 51.9341C83.137 51.9989 83.1957 52.0705 83.2465 52.1477C83.3641 52.3109 83.5153 52.5125 83.6929 52.7573C84.0649 53.2733 84.5737 53.9885 85.1329 54.7853C85.6921 55.5821 86.1889 56.3045 86.5441 56.8325C86.7121 57.0725 86.8513 57.2933 86.9617 57.4589C87.0155 57.5348 87.0628 57.6151 87.1033 57.6989C87.0367 57.6348 86.9779 57.5631 86.9281 57.4853L86.4817 56.8781C86.1097 56.3621 85.6009 55.6445 85.0417 54.8501C84.4825 54.0557 83.9881 53.3309 83.6329 52.8029L83.2153 52.1765C83.1579 52.1016 83.1096 52.0203 83.0713 51.9341Z" fill="#EEC866"/>
<path d="M87.0408 57.5332C87.1367 57.5082 87.2347 57.4921 87.3336 57.4852L88.1352 57.394C88.812 57.3172 89.7456 57.2092 90.7752 57.0604C91.8048 56.9116 92.7312 56.7532 93.4008 56.6356L94.1952 56.4964C94.2922 56.4745 94.391 56.4617 94.4904 56.458C94.3979 56.4935 94.3023 56.52 94.2048 56.5372C94.0176 56.5828 93.7488 56.6428 93.4152 56.71C92.748 56.8492 91.8192 57.0196 90.7896 57.166C89.76 57.3124 88.8216 57.406 88.1496 57.4708C87.8112 57.4996 87.5352 57.5188 87.3456 57.5284C87.2443 57.5394 87.1423 57.541 87.0408 57.5332Z" fill="#EEC866"/>
<path d="M106.128 89.0412C106.13 87.7441 105.833 86.4639 105.26 85.3002C104.687 84.1365 103.854 83.1207 102.824 82.3317C101.794 81.5428 100.597 81.0019 99.3241 80.7513C98.0515 80.5006 96.7381 80.5469 95.4863 80.8865C94.2344 81.2261 93.0777 81.8499 92.1062 82.7094C91.1347 83.5688 90.3746 84.6408 89.8849 85.8419C89.3952 87.0431 89.1891 88.3409 89.2827 89.6347C89.3764 90.9284 89.7672 92.1831 90.4247 93.3012L90.4487 93.3324C90.7703 93.8772 91.1687 94.266 91.5863 94.8396L96.4823 101.32C96.6239 101.508 96.8073 101.661 97.018 101.766C97.2288 101.871 97.4611 101.926 97.6967 101.926C97.9323 101.926 98.1646 101.871 98.3754 101.766C98.5862 101.661 98.7696 101.508 98.9111 101.32L103.728 94.9428C104.166 94.4244 104.574 93.8819 104.952 93.318L104.969 93.2964C105.727 92.0066 106.127 90.5375 106.128 89.0412ZM97.6943 92.7132C96.9599 92.7137 96.2418 92.4963 95.631 92.0887C95.0201 91.681 94.5438 91.1013 94.2624 90.4229C93.9811 89.7445 93.9072 88.9979 94.0502 88.2775C94.1932 87.5572 94.5466 86.8954 95.0657 86.3759C95.5849 85.8564 96.2464 85.5026 96.9667 85.3591C97.687 85.2157 98.4336 85.2891 99.1122 85.57C99.7908 85.8509 100.371 86.3268 100.779 86.9374C101.187 87.5481 101.405 88.266 101.405 89.0004C101.405 89.9847 101.014 90.9287 100.318 91.6249C99.6224 92.3211 98.6786 92.7126 97.6943 92.7132Z" fill="#6318AF"/>
<path d="M174.014 109.918C174.014 109.954 136.399 109.981 90.0144 109.981C43.6296 109.981 6 109.954 6 109.918C6 109.882 43.608 109.856 90.0144 109.856C136.421 109.856 174.014 109.885 174.014 109.918Z" fill="#263238"/>
<path d="M39.5469 108.862C42.7821 106.618 43.5286 102.437 43.4134 98.6765C43.3941 98.0501 43.4662 97.3877 43.1733 96.8357C42.8806 96.2837 42.1822 95.9069 41.6182 96.1685C41.1526 96.3869 40.9462 96.9269 40.6846 97.3685C40.3346 97.9656 39.8229 98.4515 39.2085 98.7701C38.8077 98.9741 38.3134 99.0989 37.9174 98.8805C37.3774 98.5805 37.3173 97.8317 37.3221 97.2005C37.3349 96.0373 37.3461 94.8741 37.3557 93.7109C37.3961 93.0927 37.3369 92.472 37.1805 91.8725C36.9885 91.2797 36.5613 90.7277 35.9661 90.5573C35.3709 90.3869 34.639 90.7301 34.5118 91.3397C34.4865 91.5981 34.4793 91.8579 34.4901 92.1173C34.4936 92.2468 34.4588 92.3743 34.3901 92.4841C34.3213 92.5938 34.2217 92.6808 34.1037 92.7341C33.8637 92.8061 33.6045 92.6285 33.4197 92.4461C32.7765 91.8125 32.3421 91.0061 31.9365 90.1901C31.5309 89.3741 31.1373 88.5533 30.5541 87.8645C29.9709 87.1757 29.1645 86.6261 28.2717 86.5733C27.3789 86.5205 26.4237 87.0677 26.1933 87.9437C25.9629 88.8197 26.4741 89.7197 27.0309 90.4325C27.8522 91.492 28.8223 92.4272 29.9109 93.2093C30.1224 93.3285 30.2904 93.5117 30.3909 93.7325C30.5229 94.1501 30.1293 94.5605 29.7165 94.6925C29.2509 94.8461 28.7565 94.7957 28.2597 94.8509C27.7629 94.9061 27.2445 95.1197 27.0597 95.5709C26.8029 96.2093 27.3333 96.8789 27.8565 97.3181C28.9055 98.2004 30.099 98.8946 31.3846 99.3701C31.8567 99.5033 32.3008 99.7213 32.6949 100.013C33.0645 100.337 33.2853 100.899 33.0597 101.338C32.8341 101.777 32.2606 101.917 31.7782 101.818C31.2958 101.72 30.8685 101.465 30.4101 101.29C29.5533 100.964 28.4445 101.019 27.8925 101.758C27.7242 102.013 27.6172 102.303 27.5797 102.606C27.5422 102.91 27.5754 103.217 27.6765 103.505C27.8838 104.078 28.2037 104.604 28.6173 105.051C29.9716 106.689 31.7365 107.938 33.7318 108.67C35.719 109.369 37.5717 109.561 39.5421 108.845" fill="#7E57C2"/>
<path d="M39.3405 109.92C39.2109 108.43 39.1437 108.399 38.5917 106.5C37.9755 104.449 37.2415 102.436 36.3933 100.469C36.1693 99.946 35.9501 99.4292 35.7357 98.9188C35.5173 98.41 35.3037 97.906 35.0613 97.426C34.5946 96.5067 34.077 95.6141 33.5109 94.7524C32.9805 93.922 32.4453 93.1564 31.9389 92.4412C31.4325 91.726 30.9477 91.0732 30.4797 90.4948C29.7484 89.5786 28.9459 88.7216 28.0797 87.9316C27.7725 87.6508 27.5277 87.4516 27.3597 87.3028L27.1677 87.1468C27.1245 87.1108 27.1005 87.094 27.0981 87.0964C27.1179 87.1175 27.1387 87.1375 27.1605 87.1564L27.3453 87.322C27.5085 87.466 27.7485 87.6796 28.0509 87.9652C28.9053 88.7657 29.6987 89.6289 30.4245 90.5476C30.8877 91.126 31.3677 91.7836 31.8645 92.4988C32.3613 93.214 32.8965 93.982 33.4269 94.81C33.9849 95.6727 34.4953 96.5652 34.9557 97.4836C35.1957 97.9636 35.4093 98.4628 35.6253 98.9716C35.8413 99.4804 36.0597 99.9988 36.2829 100.522C37.1289 102.485 37.8645 104.494 38.4861 106.539C39.0405 108.43 39.1149 108.459 39.2565 109.935" fill="#263238"/>
<path d="M35.0206 97.4213C35.0501 97.3349 35.0703 97.2456 35.0806 97.1549C35.1142 96.9821 35.155 96.7325 35.2006 96.4205C35.2894 95.7989 35.3854 94.9373 35.4886 93.9869C35.5918 93.0365 35.6974 92.1773 35.7958 91.5581C35.8462 91.2485 35.887 90.9989 35.9206 90.8261C35.9428 90.7374 35.9541 90.6464 35.9542 90.5549C35.92 90.6396 35.8935 90.7271 35.875 90.8165C35.8318 90.9869 35.7766 91.2365 35.7166 91.5365C35.5966 92.1533 35.4766 93.0149 35.3734 93.9653C35.2702 94.9157 35.1862 95.7533 35.119 96.4037C35.0878 96.6965 35.059 96.9437 35.0374 97.1405C35.0195 97.233 35.0138 97.3274 35.0206 97.4213Z" fill="#263238"/>
<path d="M26.9998 95.8925C27.1054 95.9166 27.2131 95.9303 27.3214 95.9333C27.5254 95.9525 27.8254 95.9765 28.1926 96.0221C28.927 96.1037 29.9374 96.2621 31.0462 96.4661C32.155 96.6701 33.1486 96.9173 33.8638 97.1093C34.2214 97.2029 34.5094 97.2869 34.7086 97.3493C34.811 97.3836 34.9162 97.4093 35.023 97.4261C34.9267 97.3768 34.8263 97.3358 34.723 97.3037C34.5262 97.2341 34.243 97.1381 33.8854 97.0349C33.1654 96.8213 32.179 96.5717 31.0678 96.3557C30.1155 96.1689 29.1542 96.0319 28.1878 95.9453C27.8182 95.9117 27.5182 95.8973 27.3118 95.8925C27.208 95.8835 27.1036 95.8835 26.9998 95.8925Z" fill="#263238"/>
<path d="M38.4861 106.354C38.5095 106.324 38.5289 106.291 38.5437 106.256C38.5797 106.177 38.6253 106.081 38.6805 105.965C38.8005 105.713 38.9613 105.344 39.1605 104.885C39.5493 103.966 40.0509 102.682 40.5813 101.254C41.1117 99.8261 41.6013 98.5397 41.9709 97.6157L42.4149 96.5213C42.4605 96.4013 42.5013 96.3029 42.5325 96.2237C42.5637 96.1445 42.5709 96.1181 42.5661 96.1157C42.5437 96.1462 42.5252 96.1792 42.5109 96.2141L42.3741 96.5021C42.2541 96.7565 42.0909 97.1261 41.8941 97.5845C41.5029 98.5013 41.0037 99.7877 40.4733 101.213C39.9429 102.639 39.4533 103.928 39.0813 104.854C38.9013 105.303 38.7501 105.673 38.6397 105.946C38.5917 106.066 38.5533 106.165 38.5221 106.246C38.5064 106.281 38.4943 106.317 38.4861 106.354Z" fill="#263238"/>
<path d="M27.8325 102.879C27.8661 102.897 27.9015 102.912 27.9381 102.922L28.2477 103.028L29.3901 103.402C30.3501 103.717 31.6773 104.17 33.1413 104.669C34.6053 105.169 35.9373 105.613 36.9069 105.908C37.3869 106.057 37.7853 106.172 38.0589 106.246L38.3757 106.333C38.4118 106.343 38.4488 106.35 38.4861 106.354C38.4861 106.354 38.4525 106.335 38.3805 106.309L38.0733 106.205L36.9405 105.831C35.9805 105.514 34.6533 105.063 33.1869 104.561C31.7205 104.06 30.3933 103.618 29.4237 103.323C28.9437 103.174 28.5453 103.059 28.2717 102.985L27.9549 102.901C27.9159 102.886 27.8743 102.878 27.8325 102.879Z" fill="#263238"/>
<path d="M78.5183 109.918H45.1175C41.0831 109.901 37.6775 106.46 37.6895 102.423L38.0447 18.3005C38.0485 17.3404 38.2414 16.3905 38.6124 15.5049C38.9835 14.6194 39.5254 13.8157 40.2072 13.1397C40.889 12.4637 41.6973 11.9287 42.586 11.5652C43.4746 11.2017 44.4262 11.0169 45.3863 11.0213L78.9407 11.1773C79.9003 11.1814 80.8497 11.3745 81.7346 11.7456C82.6196 12.1166 83.4227 12.6584 84.0983 13.34C84.7738 14.0215 85.3084 14.8295 85.6716 15.7177C86.0348 16.6059 86.2195 17.5569 86.2151 18.5165L85.8599 102.639C85.8561 103.599 85.6632 104.549 85.2921 105.434C84.9211 106.32 84.3792 107.124 83.6974 107.8C83.0156 108.476 82.2073 109.011 81.3186 109.374C80.43 109.738 79.4784 109.923 78.5183 109.918Z" fill="#263238"/>
<path d="M78.8952 14.3718L72.3888 14.3526C72.1767 14.3563 71.9674 14.4018 71.7728 14.4865C71.5783 14.5711 71.4024 14.6933 71.255 14.8459C71.1077 14.9986 70.9919 15.1788 70.9143 15.3762C70.8366 15.5736 70.7986 15.7844 70.8024 15.9965V17.1773C70.8095 17.6056 70.6464 18.0191 70.349 18.3273C70.0517 18.6355 69.6442 18.8131 69.216 18.8214L56.5344 18.7614C56.3223 18.7558 56.1133 18.7084 55.9195 18.622C55.7257 18.5356 55.5507 18.4119 55.4048 18.2579C55.2588 18.1039 55.1446 17.9226 55.0687 17.7244C54.9928 17.5263 54.9566 17.3151 54.9624 17.103V15.9246C54.9727 15.4958 54.8129 15.0805 54.5179 14.7693C54.2229 14.4581 53.8166 14.2763 53.388 14.2638H51.1008L45.4056 14.2374C44.7333 14.2345 44.0671 14.3641 43.4449 14.6187C42.8227 14.8734 42.2568 15.2481 41.7794 15.7214C41.3021 16.1948 40.9226 16.7575 40.6627 17.3776C40.4028 17.9976 40.2676 18.6627 40.2648 19.335L39.9168 101.427C39.9111 102.784 40.4446 104.088 41.4 105.052C42.3555 106.016 43.6547 106.561 45.012 106.568L78.4992 106.721C79.1718 106.725 79.8384 106.596 80.461 106.341C81.0836 106.087 81.6499 105.712 82.1276 105.239C82.6053 104.765 82.985 104.202 83.2449 103.582C83.5048 102.962 83.6399 102.296 83.6424 101.624L83.9808 19.5126C83.9859 18.1571 83.4535 16.8549 82.5003 15.8913C81.547 14.9277 80.2506 14.3813 78.8952 14.3718Z" fill="#FAEED1"/>
<path d="M64.6823 91.2052C64.6439 92.1964 64.6079 93.1252 64.5767 93.9004H69.3767L68.7887 90.9436L64.6823 91.2052Z" fill="#FAEED1"/>
<path d="M45.1318 92.4414L45.1726 93.9006H64.0966C64.1278 93.0798 64.1638 92.1726 64.1998 91.2366L45.1318 92.4414Z" fill="#FAEED1"/>
<path d="M69.0408 90.9293L69.6312 93.8981H78.5016L78.3936 90.3389L69.0408 90.9293Z" fill="#FAEED1"/>
<path d="M65.1624 49.4118L66.84 39.6894L62.448 39.363V49.4118H65.1624Z" fill="#FAEED1"/>
<path d="M44.7359 87.0437L39.9695 88.9109L39.9551 92.2877L44.8775 91.9757L44.7359 87.0437Z" fill="#FAEED1"/>
<path d="M44.7143 86.2852L44.4551 77.23H44.4503V74.0356L40.0295 74.5036L39.9719 88.138L44.7119 86.2804L44.7143 86.2852Z" fill="#FAEED1"/>
<path d="M44.4502 66.9077L40.0654 66.3269L40.0342 73.7813L44.4502 73.3133V66.9077Z" fill="#FAEED1"/>
<path d="M77.136 74.1701L76.9512 76.7669L71.772 77.3237L72.1728 79.3781L78.0504 78.9341L77.964 75.9893L78.432 74.0405L77.136 74.1701Z" fill="#FAEED1"/>
<path d="M67.7999 79.7069L71.9303 79.3949L71.0303 74.7869L67.4255 75.1517L67.7999 79.7069Z" fill="#FAEED1"/>
<path d="M67.8406 80.1869L68.155 84.0293L68.7142 89.2997L68.9446 90.4541L78.379 89.8589L78.0646 79.4141L67.8406 80.1869Z" fill="#FAEED1"/>
<path d="M51.6024 62.0405L51.9648 62.6621L44.6904 66.9125V76.9805L52.3704 76.4357L67.1808 74.9357L66.6384 68.3381L52.5 66.4901L52.5936 65.7701L66.5784 67.5965L65.6616 56.4293L51.8184 57.7589L51.7728 57.2789L65.6208 55.9493L65.1408 50.1221H51.8208L40.1304 52.2485L40.0728 65.5925L44.496 66.1925L51.6024 62.0405ZM45.4344 76.0109C45.4344 76.0109 45.4896 67.7117 45.4344 67.4021L51.372 64.2437L52.1424 75.5885L45.4344 76.0109Z" fill="#FAEED1"/>
<path d="M76.6487 74.2205L71.2703 74.7629L71.6783 76.8509L76.4999 76.3325L76.6487 74.2205Z" fill="#FAEED1"/>
<path d="M64.7494 89.427C64.7326 89.8638 64.7158 90.2958 64.7014 90.723L68.7046 90.4686L68.4982 89.4366L64.7494 89.427Z" fill="#FAEED1"/>
<path d="M56.1263 49.4118L56.8319 46.2126H62.2079V39.3462L45.4007 38.1006V44.5494L40.1519 45.7374L40.1279 51.5262L51.7511 49.4118H56.1263Z" fill="#FAEED1"/>
<path d="M67.3414 30.3005L67.1974 29.7125L73.615 27.1733L69.4414 18.7925C69.362 18.8053 69.2818 18.8117 69.2014 18.8117L62.1094 18.7781L62.3014 30.5069L67.3414 30.3005Z" fill="#FAEED1"/>
<path d="M77.0664 25.8053V14.3645L72.3888 14.3525C72.1766 14.3563 71.9673 14.4018 71.7728 14.4864C71.5783 14.5711 71.4023 14.6932 71.255 14.8459C71.1077 14.9986 70.9919 15.1788 70.9142 15.3762C70.8366 15.5736 70.7985 15.7844 70.8024 15.9965V17.1773C70.8022 17.441 70.74 17.7009 70.6207 17.9361C70.5015 18.1712 70.3286 18.375 70.116 18.5309L74.292 26.9165L77.0664 25.8053Z" fill="#FAEED1"/>
<path d="M52.9415 26.2973L52.3991 14.2493H51.1007L46.0247 14.2253L43.8647 24.9989L52.9415 26.2973ZM51.7847 15.4709L51.9575 25.2821L45.2111 24.2957L46.6871 15.4709H51.7847Z" fill="#FAEED1"/>
<path d="M53.1863 26.3333V26.4341C53.1863 27.3749 53.2151 29.0742 53.2295 30.8766L62.0687 30.5166L61.8767 18.7782L56.5271 18.7518C56.3149 18.7462 56.106 18.6988 55.9122 18.6124C55.7183 18.526 55.5434 18.4023 55.3974 18.2483C55.2514 18.0943 55.1372 17.913 55.0613 17.7148C54.9854 17.5167 54.9493 17.3055 54.9551 17.0933V15.915C54.9654 15.4862 54.8056 15.0709 54.5106 14.7597C54.2156 14.4485 53.8093 14.2667 53.3807 14.2542H52.6343L53.1767 26.3333H53.1863Z" fill="#FAEED1"/>
<path d="M43.1495 24.8909L45.2903 14.2229C43.9533 14.2467 42.6787 14.793 41.7394 15.7449C40.8001 16.6967 40.2708 17.9785 40.2647 19.3157L40.2407 24.6341L40.2647 24.4781L43.1495 24.8909Z" fill="#FAEED1"/>
<path d="M44.6807 38.0477L40.1855 37.7141L40.1543 44.9981L44.6807 43.9733V38.0477Z" fill="#FAEED1"/>
<path d="M43.1014 25.1262L40.2406 24.7158L40.1902 36.5118L40.807 36.5574L43.1014 25.1262Z" fill="#FAEED1"/>
<path d="M52.1806 86.1462L52.255 76.6782L44.6926 77.2134L44.9614 86.4894L52.1806 86.1462Z" fill="#FAEED1"/>
<path d="M53.5728 83.9526L64.2816 89.0838C64.4112 85.7238 64.5216 82.6038 64.5216 82.395L64.7616 82.383L64.8768 82.1574C65.028 82.2318 65.028 82.2318 64.9488 84.519C64.9032 85.7934 64.8408 87.4902 64.776 89.187H68.4792L67.9344 84.0414L67.2144 75.1614L53.22 76.5726L53.5728 83.9526Z" fill="#FAEED1"/>
<path d="M79.8262 68.247L79.7038 66.9966L66.8662 68.3334L67.4062 74.9118L78.4918 73.7934L79.8262 68.247Z" fill="#FAEED1"/>
<path d="M62.2078 46.9326H57.4102L56.863 49.4118H62.2078V46.9326Z" fill="#FAEED1"/>
<path d="M77.8438 47.7701L65.8318 46.9397L65.3518 49.7765L65.8582 55.9349L78.5254 54.7157L77.8438 47.7701ZM66.2734 49.7717L66.919 47.9813L77.3518 48.6413L77.9542 53.7629L66.6262 55.1069L66.2734 49.7717Z" fill="#FAEED1"/>
<path d="M79.0896 60.6414L78.5616 55.1958L65.8872 56.4126L66.3648 62.2086L79.0896 60.6414Z" fill="#FAEED1"/>
<path d="M44.892 92.4581L39.9744 92.7677L39.9552 92.4485L39.948 93.8981H44.9328L44.892 92.4581Z" fill="#FAEED1"/>
<path d="M83.9016 23.1006L83.9736 23.2854L83.9808 19.5126C83.9859 18.1555 83.4521 16.8519 82.4968 15.888C81.5415 14.9241 80.2426 14.3788 78.8855 14.3718H77.2896V25.719L83.9016 23.1006Z" fill="#FAEED1"/>
<path d="M64.2719 89.3548L53.3399 84.1156L52.9535 76.6108L52.4975 76.6564L52.4183 86.3764L44.9663 86.7292V86.9452L45.1103 91.9564L64.2119 90.7564C64.2359 90.2884 64.2551 89.8204 64.2719 89.3548ZM45.4343 87.3484L55.8647 86.6284L62.6495 89.7748L45.4343 90.706V87.3484Z" fill="#FAEED1"/>
<path d="M80.7936 35.7126L81.2424 33.0606C77.3208 31.6614 77.0496 27.5718 77.0616 26.3406L74.5032 27.3534L78.3552 35.0886L80.7936 35.7126Z" fill="#FAEED1"/>
<path d="M66.8064 67.6157L72.1368 67.0613L71.088 62.3525L66.4224 62.9285L66.8064 67.6157Z" fill="#FAEED1"/>
<path d="M77.8607 39.7685H67.9055L67.0799 39.7061L65.9543 46.2269L77.7719 47.0429L77.4983 44.2085L78.6623 40.0229L77.8607 39.7685Z" fill="#FAEED1"/>
<path d="M77.6183 38.5685L77.7431 35.4485L73.8311 27.5933L67.7639 29.9933L69.8495 38.5565L77.6183 38.5685ZM73.5935 28.5581L77.1791 35.3789L76.6607 37.5053L70.5263 37.2653L68.9927 30.8141L73.5935 28.5581Z" fill="#FAEED1"/>
<path d="M79.1663 76.1141L79.3511 82.2269L83.6639 81.9845L83.6783 82.2245L79.3583 82.4669L79.5767 89.7821L83.6567 89.5229L83.6855 90.0029L79.5911 90.2621L79.7015 93.8981H83.6759L83.7623 73.5029L79.6967 73.9133L79.1663 76.1141Z" fill="#FAEED1"/>
<path d="M52.9487 26.5396L43.8143 25.2292L41.5295 36.6101L52.9895 37.4596C53.0351 35.7124 52.9943 30.3316 52.9487 26.5396Z" fill="#FAEED1"/>
<path d="M67.9727 38.5685H69.3551L67.3991 30.5381L62.3159 30.7469L62.4383 38.1581L67.9727 38.5685Z" fill="#FAEED1"/>
<path d="M53.2222 37.4766L62.1958 38.1414L62.0758 30.7566L53.2342 31.1166C53.2606 33.615 53.2606 36.279 53.2222 37.4766Z" fill="#FAEED1"/>
<path d="M79.159 61.3589L71.3254 62.3237L72.379 67.0349L79.6342 66.2813L79.159 61.3589Z" fill="#FAEED1"/>
<path d="M81.2831 32.8085L81.7847 29.8325L83.9447 30.0005L83.9735 23.5901L77.3039 26.2301C77.1671 30.7397 80.0015 32.3261 81.2831 32.8085Z" fill="#FAEED1"/>
<path d="M78.7151 44.314L78.9863 47.1268L83.8727 47.4652L83.8967 41.674L79.8071 40.3828L78.7151 44.314Z" fill="#FAEED1"/>
<path d="M81.0382 68.331L79.7566 73.6662L83.7622 73.2606L83.7862 67.6662C82.5574 67.3422 81.4846 67.0782 80.9062 66.9678L81.0382 68.331Z" fill="#FAEED1"/>
<path d="M78.3359 38.6596L83.9015 40.4188L83.9159 37.2532L78.4487 35.8396L78.3359 38.6596Z" fill="#FAEED1"/>
<path d="M80.8367 66.2357C81.2855 66.3029 82.1351 66.4757 83.7887 66.9197L83.8415 54.6797L79.7615 55.0733L80.8367 66.2357Z" fill="#FAEED1"/>
<path d="M79.7111 54.6028L83.8439 54.2044L83.8679 48.1876L79.0559 47.854L79.7111 54.6028Z" fill="#FAEED1"/>
<path d="M81.7439 32.9597C82.4629 33.1827 83.1926 33.3693 83.9303 33.5189V30.4805L82.1711 30.3438L81.7439 32.9597Z" fill="#FAEED1"/>
<path d="M81.2615 35.8229L83.9183 36.5093L83.9303 33.7661C83.2415 33.6269 82.4903 33.4397 81.7031 33.1997L81.2615 35.8229Z" fill="#FAEED1"/>
<path d="M44.892 92.4557L44.9328 93.8957H45.1728L45.132 92.4365L64.2 91.2365C64.164 92.1725 64.128 93.0797 64.0968 93.9005H64.5768C64.608 93.1253 64.644 92.1965 64.6824 91.2053L68.7984 90.9437L69.3864 93.9005H69.6264L69.036 90.9293L78.396 90.3389L78.504 93.9005H79.704L79.5936 90.2621L83.688 90.0029L83.6592 89.5229L79.5792 89.7821L79.3608 82.4669L83.6808 82.2269L83.6664 81.9869L79.3464 82.2269L79.1616 76.1141L79.692 73.9133L83.7576 73.5029V73.2629L79.752 73.6685L81.0336 68.3333L80.9016 66.9701C81.48 67.0805 82.5528 67.3445 83.7816 67.6685V66.9125C82.128 66.4757 81.2784 66.2957 80.8296 66.2285L79.7496 55.0733L83.8296 54.6797V54.1997L79.6968 54.5981L79.0416 47.8493L83.8416 48.1829V47.4629L78.9552 47.1245L78.684 44.3117L79.776 40.3805L83.856 41.6717V40.4165L78.2904 38.6573L78.4032 35.8373L83.8704 37.2509V36.5069L81.2136 35.8205L81.6552 33.1973C82.452 33.4373 83.1936 33.6245 83.8824 33.7637V33.5237C83.1447 33.3741 82.415 33.1875 81.696 32.9645L82.1352 30.3485L83.8944 30.4853V30.0053L81.7344 29.8373L81.2328 32.8133C79.9512 32.3333 77.1168 30.7445 77.2536 26.2325L83.9232 23.5925V23.2877L83.8512 23.1029L77.256 25.7141V14.3669H77.016V25.8077L74.2368 26.9093L70.0608 18.5237C69.8626 18.6666 69.6329 18.7596 69.3912 18.7949L73.5648 27.1757L67.1976 29.7125L67.3416 30.3005L62.3016 30.5069L62.1096 18.7781H61.8696L62.0616 30.5165L53.2224 30.8765C53.208 29.0669 53.1888 27.3749 53.1792 26.4341V26.3333L52.6368 14.2541H52.3968L52.9392 26.3021L43.86 24.9989L46.02 14.2253H45.4008H45.2856L43.1448 24.8933L40.2648 24.4805L40.2408 24.6365V24.7181L43.1016 25.1285L40.8072 36.5597L40.1904 36.5141V37.7141L44.6856 38.0477V43.9733L40.1592 44.9981V45.7373L45.408 44.5373V38.1125L62.208 39.3581V46.2269H56.832L56.1264 49.4237H51.7512L40.128 51.5381V52.2701L51.8208 50.1317H65.136L65.616 55.9589L51.768 57.2885L51.8136 57.7685L65.6568 56.4389L66.5736 67.6061L52.5888 65.7797L52.4952 66.4997L66.6336 68.3477L67.1808 74.9357L52.38 76.4285L44.7 76.9733V66.9125L51.9744 62.6693L51.612 62.0477L44.496 66.1925L40.0608 65.6021V66.3221L44.4504 66.9125V73.3181L40.0344 73.7861V74.5061L44.4552 74.0381V77.2325L44.7168 86.2877L39.9768 88.1453V88.9181L44.7432 87.0509L44.8848 91.9829L39.9624 92.2949V92.4557L39.9816 92.7749L44.892 92.4557ZM64.7016 90.7229C64.716 90.2957 64.7328 89.8637 64.7496 89.4269H68.4984L68.7048 90.4589L64.7016 90.7229ZM68.9448 90.4541L68.7048 89.2997L68.1456 84.0197L67.8312 80.1797L78.0552 79.4069L78.3696 89.8493L68.9448 90.4541ZM71.2608 74.7629L76.6416 74.2205L76.4904 76.3325L71.6688 76.8509L71.2608 74.7629ZM71.0208 74.7869L71.9208 79.3949L67.7904 79.7069L67.416 75.1469L71.0208 74.7869ZM78.0408 78.9341L72.1632 79.3781L71.7624 77.3237L76.9416 76.7669L77.1264 74.1701L78.4224 74.0405L77.9544 75.9893L78.0408 78.9341ZM71.0808 62.3525L72.1296 67.0613L66.7992 67.6157L66.4152 62.9285L71.0808 62.3525ZM72.372 67.0349L71.3184 62.3237L79.152 61.3637L79.632 66.2861L72.372 67.0349ZM77.7648 47.0429L65.9472 46.2245L67.0728 39.7061L67.8984 39.7685H77.856L78.6552 40.0229L77.5008 44.2085L77.7648 47.0429ZM77.0448 26.3237C77.0328 27.5621 77.304 31.6517 81.2256 33.0437L80.7936 35.7125L78.3552 35.0813L74.5032 27.3365L77.0448 26.3237ZM73.8144 27.6029L77.7408 35.4581L77.616 38.5781H69.8496L67.764 30.0149L73.8144 27.6029ZM67.3824 30.5381L69.3384 38.5685H67.9728L62.4384 38.1605L62.316 30.7469L67.3824 30.5381ZM62.0592 30.7565L62.1792 38.1413L53.2056 37.4765C53.244 36.2765 53.2368 33.6149 53.2056 31.1165L62.0592 30.7565ZM43.7976 25.2365L52.932 26.5469C52.9776 30.3389 53.0184 35.7149 52.9728 37.4669L41.5128 36.6173L43.7976 25.2365ZM66.8232 39.6965L65.1432 49.4189H62.448V39.3629L66.8232 39.6965ZM57.3936 46.9421H62.1936V49.4189H56.8608L57.3936 46.9421ZM65.3136 49.7837L65.7936 46.9469L77.8056 47.7773L78.4776 54.7229L65.8104 55.9421L65.3136 49.7837ZM78.5328 55.2029L79.0608 60.6485L66.3408 62.2181L65.8608 56.4197L78.5328 55.2029ZM66.8376 68.3405L79.6752 67.0037L79.7976 68.2541L78.4632 73.8005L67.3776 74.9189L66.8376 68.3405ZM67.8888 84.0581L68.4336 89.2037H64.7592C64.824 87.5069 64.8864 85.8101 64.932 84.5357C65.0112 82.2485 65.0112 82.2485 64.86 82.1741L64.7448 82.3997L64.5048 82.4117C64.5048 82.6109 64.4016 85.7477 64.2648 89.1005L53.5728 83.9525L53.1936 76.5773L67.1808 75.1757L67.8888 84.0581ZM52.2264 76.6853L52.152 86.1533L44.9328 86.4965L44.664 77.2205L52.2264 76.6853ZM44.9448 86.9573V86.7413L52.3968 86.3885L52.476 76.6685L52.932 76.6229L53.3184 84.1277L64.2504 89.3669C64.2336 89.8325 64.2144 90.3005 64.1976 90.7661L45.096 91.9661L44.9448 86.9573Z" fill="white"/>
<path d="M55.8647 86.6165L45.4343 87.3461V90.6965L62.6519 89.7629L55.8647 86.6165Z" fill="#F2D58C"/>
<path d="M77.3518 48.6412L66.919 47.9812L66.2734 49.7716L66.6262 55.1068L77.9542 53.7628L77.3518 48.6412Z" fill="#F2D58C"/>
<path d="M45.0118 106.568L78.499 106.721C79.1716 106.725 79.8382 106.596 80.4608 106.341C81.0834 106.087 81.6498 105.712 82.1274 105.239C82.6051 104.765 82.9848 104.202 83.2447 103.582C83.5046 102.962 83.6397 102.296 83.6422 101.624L83.6758 93.9006H39.9478L39.9238 99.7422V101.581C39.9575 102.91 40.5075 104.174 41.4572 105.105C42.407 106.036 43.6819 106.561 45.0118 106.568Z" fill="#F2D58C"/>
<path d="M51.9576 25.2821L51.7848 15.4709H46.6896L45.2112 24.2957L51.9576 25.2821Z" fill="#F2D58C"/>
<path d="M76.6607 37.5053L77.1791 35.3789L73.5935 28.5581L68.9927 30.8237L70.5263 37.2749L76.6607 37.5053Z" fill="#F2D58C"/>
<path d="M45.4343 67.3925C45.4895 67.7021 45.4343 76.0013 45.4343 76.0013L52.1543 75.5789L51.3839 64.2341L45.4343 67.3925Z" fill="#F2D58C"/>
<path d="M67.8022 74.1414L67.447 68.9982L78.9502 67.5198V68.4078L77.5582 73.1382L67.8022 74.1414Z" fill="#F2D58C"/>
<path d="M59.2944 31.4861C59.2944 31.7633 59.2122 32.0343 59.0582 32.2648C58.9042 32.4953 58.6853 32.6749 58.4292 32.781C58.1731 32.8871 57.8913 32.9148 57.6194 32.8607C57.3475 32.8067 57.0977 32.6732 56.9017 32.4772C56.7057 32.2811 56.5722 32.0314 56.5181 31.7595C56.4641 31.4876 56.4918 31.2058 56.5979 30.9497C56.704 30.6936 56.8836 30.4747 57.1141 30.3207C57.3446 30.1667 57.6156 30.0845 57.8928 30.0845C58.2645 30.0845 58.621 30.2321 58.8839 30.495C59.1467 30.7578 59.2944 31.1143 59.2944 31.4861Z" fill="#7E57C2"/>
<g opacity="0.6">
<path d="M59.2919 31.4261C59.304 31.7032 59.2336 31.9776 59.0897 32.2146C58.9458 32.4517 58.7348 32.6407 58.4835 32.7578C58.2321 32.8749 57.9516 32.9148 57.6776 32.8725C57.4035 32.8301 57.1482 32.7074 56.9439 32.5199C56.7396 32.3324 56.5955 32.0885 56.5298 31.8191C56.4642 31.5497 56.4799 31.2668 56.5751 31.0064C56.6702 30.7459 56.8405 30.5195 57.0644 30.3558C57.2882 30.1922 57.5556 30.0986 57.8327 30.0869C58.2037 30.0713 58.5657 30.2036 58.8393 30.4547C59.1129 30.7058 59.2757 31.0551 59.2919 31.4261Z" fill="white"/>
</g>
<path d="M57.8926 32.3692C58.4069 32.3692 58.8238 31.9523 58.8238 31.438C58.8238 30.9237 58.4069 30.5068 57.8926 30.5068C57.3783 30.5068 56.9614 30.9237 56.9614 31.438C56.9614 31.9523 57.3783 32.3692 57.8926 32.3692Z" fill="#7E57C2"/>
<path d="M79.5478 87.4422C79.5459 87.5601 79.5093 87.6749 79.4426 87.7721C79.3758 87.8693 79.2819 87.9447 79.1725 87.9889C79.0631 88.033 78.9432 88.044 78.8276 88.0203C78.7121 87.9967 78.606 87.9395 78.5228 87.8559C78.4396 87.7724 78.3828 87.6661 78.3596 87.5505C78.3364 87.4348 78.3478 87.3149 78.3924 87.2057C78.437 87.0965 78.5128 87.0029 78.6103 86.9365C78.7078 86.8702 78.8227 86.834 78.9406 86.8326C79.0208 86.8316 79.1004 86.8467 79.1747 86.877C79.249 86.9074 79.3164 86.9523 79.373 87.0091C79.4296 87.0659 79.4743 87.1335 79.5043 87.2079C79.5343 87.2823 79.5491 87.362 79.5478 87.4422Z" fill="#7E57C2"/>
<path d="M78.5904 87.2476L78.444 83.8876L68.3352 84.3796C68.0702 84.3919 67.8065 84.3357 67.5696 84.2164L53.2296 76.9732C53.0664 76.8904 52.9279 76.7661 52.828 76.6127C52.7282 76.4593 52.6705 76.2824 52.6608 76.0996L50.7072 38.242C50.7025 38.1524 50.7169 38.0627 50.7496 37.9791C50.7823 37.8954 50.8325 37.8198 50.8968 37.7571C50.9611 37.6944 51.038 37.6461 51.1224 37.6155C51.2069 37.5849 51.2968 37.5727 51.3864 37.5796L57.5328 38.0332V31.3132H58.2528V38.1244C58.2545 38.2114 58.2383 38.2978 58.2053 38.3783C58.1723 38.4588 58.1231 38.5317 58.0608 38.5924C57.9961 38.651 57.9202 38.6959 57.8377 38.7244C57.7552 38.7529 57.6678 38.7643 57.5808 38.758L51.4392 38.3044L53.3856 76.0636C53.3891 76.1194 53.4071 76.1734 53.4378 76.2201C53.4686 76.2668 53.5109 76.3047 53.5608 76.33L67.9008 83.578C68.0262 83.6414 68.166 83.6711 68.3064 83.6644L78.5016 83.1676C78.6702 83.1603 78.8349 83.2198 78.96 83.3332C79.0226 83.3896 79.0734 83.4579 79.1093 83.5341C79.1451 83.6104 79.1654 83.693 79.1688 83.7772L79.3152 87.2164L78.5904 87.2476Z" fill="#7E57C2"/>
<path d="M51.883 56.4989C52.8851 56.4989 53.6974 55.6866 53.6974 54.6845C53.6974 53.6825 52.8851 52.8701 51.883 52.8701C50.8809 52.8701 50.0686 53.6825 50.0686 54.6845C50.0686 55.6866 50.8809 56.4989 51.883 56.4989Z" fill="#7E57C2"/>
<path d="M51.883 55.9446C52.5789 55.9446 53.143 55.3804 53.143 54.6846C53.143 53.9887 52.5789 53.4246 51.883 53.4246C51.1872 53.4246 50.623 53.9887 50.623 54.6846C50.623 55.3804 51.1872 55.9446 51.883 55.9446Z" fill="#E5AC19"/>
<path d="M51.8831 56.0356C51.6158 56.0361 51.3543 55.9573 51.1318 55.8091C50.9093 55.6609 50.7357 55.4501 50.6331 55.2032C50.5304 54.9563 50.5033 54.6846 50.5552 54.4223C50.6071 54.1601 50.7356 53.9191 50.9245 53.7299C51.1133 53.5407 51.3541 53.4117 51.6163 53.3594C51.8784 53.3071 52.1502 53.3337 52.3973 53.4359C52.6443 53.5381 52.8555 53.7113 53.0041 53.9335C53.1526 54.1558 53.2319 54.4171 53.2319 54.6845C53.2313 55.0422 53.0891 55.3852 52.8363 55.6383C52.5836 55.8915 52.2409 56.0344 51.8831 56.0356ZM51.8831 53.5133C51.6514 53.5128 51.4247 53.5811 51.2318 53.7095C51.0389 53.8379 50.8884 54.0206 50.7994 54.2346C50.7104 54.4486 50.6868 54.6841 50.7318 54.9115C50.7767 55.1388 50.888 55.3477 51.0517 55.5118C51.2154 55.6758 51.4241 55.7876 51.6514 55.833C51.8786 55.8784 52.1142 55.8553 52.3284 55.7667C52.5425 55.6782 52.7256 55.528 52.8544 55.3354C52.9832 55.1427 53.0519 54.9162 53.0519 54.6845C53.0513 54.3744 52.928 54.0773 52.7091 53.8578C52.4901 53.6384 52.1932 53.5145 51.8831 53.5133Z" fill="#7E57C2"/>
<path d="M62.5702 47.074H53.9302C53.7285 47.074 53.5349 47.1542 53.3923 47.2968C53.2496 47.4395 53.1694 47.633 53.1694 47.8348V50.9548C53.1694 51.1566 53.2496 51.3501 53.3923 51.4928C53.5349 51.6355 53.7285 51.7156 53.9302 51.7156H54.031V52.462L54.8974 51.7156H62.5774C62.7792 51.7156 62.9727 51.6355 63.1154 51.4928C63.2581 51.3501 63.3382 51.1566 63.3382 50.9548V47.8348C63.3382 47.7343 63.3183 47.6348 63.2796 47.542C63.241 47.4492 63.1843 47.365 63.1129 47.2943C63.0414 47.2235 62.9567 47.1676 62.8636 47.1298C62.7705 47.092 62.6708 47.0731 62.5702 47.074Z" fill="#7E57C2"/>
<g opacity="0.4">
<path d="M62.5702 47.074H53.9302C53.7285 47.074 53.5349 47.1542 53.3923 47.2968C53.2496 47.4395 53.1694 47.633 53.1694 47.8348V50.9548C53.1694 51.1566 53.2496 51.3501 53.3923 51.4928C53.5349 51.6355 53.7285 51.7156 53.9302 51.7156H54.031V52.462L54.8974 51.7156H62.5774C62.7792 51.7156 62.9727 51.6355 63.1154 51.4928C63.2581 51.3501 63.3382 51.1566 63.3382 50.9548V47.8348C63.3382 47.7343 63.3183 47.6348 63.2796 47.542C63.241 47.4492 63.1843 47.365 63.1129 47.2943C63.0414 47.2235 62.9567 47.1676 62.8636 47.1298C62.7705 47.092 62.6708 47.0731 62.5702 47.074Z" fill="#6318AF"/>
</g>
<path d="M55.1134 49.3494C55.1096 49.2462 55.1366 49.1443 55.1911 49.0566C55.2456 48.9689 55.325 48.8995 55.4192 48.8572C55.5134 48.8149 55.618 48.8018 55.7198 48.8193C55.8215 48.8369 55.9156 48.8845 55.9902 48.9559C56.0647 49.0274 56.1162 49.1194 56.1381 49.2203C56.1599 49.3212 56.1512 49.4263 56.113 49.5222C56.0747 49.6181 56.0087 49.7004 55.9234 49.7585C55.8381 49.8167 55.7374 49.848 55.6342 49.8486C55.5668 49.8518 55.4994 49.8413 55.4361 49.8177C55.3729 49.794 55.3151 49.7577 55.2664 49.711C55.2177 49.6643 55.179 49.6081 55.1527 49.5459C55.1263 49.4838 55.113 49.4169 55.1134 49.3494ZM56.011 49.3494C56.0115 49.2742 55.9896 49.2005 55.9481 49.1378C55.9066 49.0751 55.8474 49.0261 55.778 48.9971C55.7086 48.9681 55.6322 48.9604 55.5584 48.9749C55.4846 48.9895 55.4168 49.0257 55.3637 49.0788C55.3105 49.132 55.2743 49.1998 55.2598 49.2736C55.2452 49.3474 55.2529 49.4238 55.2819 49.4932C55.3109 49.5626 55.3599 49.6218 55.4226 49.6633C55.4853 49.7047 55.559 49.7266 55.6342 49.7262C55.6841 49.7278 55.7339 49.7192 55.7803 49.7009C55.8268 49.6825 55.869 49.6548 55.9043 49.6195C55.9397 49.5842 55.9674 49.542 55.9857 49.4955C56.0041 49.449 56.0127 49.3993 56.011 49.3494Z" fill="white"/>
<path d="M57.1008 49.4692C57.1035 49.519 57.0958 49.5688 57.0781 49.6154C57.0605 49.6621 57.0332 49.7045 56.9982 49.74C56.9632 49.7754 56.9211 49.8032 56.8747 49.8215C56.8283 49.8397 56.7786 49.8481 56.7288 49.846C56.6779 49.8485 56.6272 49.8385 56.5812 49.8167C56.5351 49.7949 56.4951 49.7621 56.4648 49.7212V49.8388H56.3352V48.802H56.4696V49.21C56.5006 49.1715 56.5402 49.1409 56.5853 49.1205C56.6303 49.1 56.6794 49.0904 56.7288 49.0924C56.7786 49.0903 56.8283 49.0987 56.8747 49.1169C56.9211 49.1352 56.9632 49.163 56.9982 49.1985C57.0332 49.2339 57.0605 49.2764 57.0781 49.323C57.0958 49.3696 57.1035 49.4194 57.1008 49.4692ZM56.9664 49.4692C56.9627 49.4227 56.9455 49.3784 56.917 49.3415C56.8884 49.3046 56.8498 49.2769 56.8057 49.2616C56.7617 49.2464 56.7141 49.2443 56.6689 49.2556C56.6237 49.2669 56.5827 49.2911 56.5511 49.3253C56.5194 49.3596 56.4984 49.4022 56.4906 49.4482C56.4828 49.4942 56.4885 49.5414 56.5071 49.5841C56.5257 49.6269 56.5563 49.6633 56.5953 49.6889C56.6342 49.7145 56.6798 49.7283 56.7264 49.7284C56.7604 49.7299 56.7943 49.7241 56.8259 49.7115C56.8575 49.6988 56.8861 49.6796 56.9097 49.6551C56.9333 49.6306 56.9514 49.6013 56.9628 49.5693C56.9743 49.5372 56.9788 49.5031 56.976 49.4692H56.9664Z" fill="white"/>
<path d="M57.0408 50.0717L57.084 49.9685C57.1152 49.9934 57.1544 50.0062 57.1944 50.0045C57.264 50.0045 57.3048 49.9589 57.3048 49.8749V49.0997H57.4368V49.8725C57.4397 49.9047 57.4355 49.9373 57.4245 49.9677C57.4135 49.9982 57.3959 50.0258 57.373 50.0487C57.3501 50.0716 57.3225 50.0892 57.292 50.1002C57.2615 50.1113 57.229 50.1154 57.1968 50.1125C57.1418 50.1153 57.0873 50.1011 57.0408 50.0717ZM57.2808 48.8717C57.2808 48.8601 57.2831 48.8487 57.2876 48.8381C57.2921 48.8274 57.2986 48.8178 57.3069 48.8097C57.3152 48.8017 57.325 48.7954 57.3358 48.7912C57.3465 48.787 57.358 48.785 57.3696 48.7853C57.3811 48.7846 57.3927 48.7863 57.4036 48.7902C57.4144 48.7941 57.4244 48.8002 57.4329 48.808C57.4414 48.8158 57.4483 48.8253 57.4531 48.8358C57.4578 48.8464 57.4605 48.8577 57.4608 48.8693C57.4611 48.8813 57.459 48.8932 57.4545 48.9043C57.45 48.9153 57.4433 48.9254 57.4347 48.9337C57.4261 48.9421 57.4159 48.9486 57.4047 48.9527C57.3935 48.9569 57.3815 48.9588 57.3696 48.9581C57.3577 48.9588 57.3459 48.957 57.3348 48.9528C57.3237 48.9485 57.3136 48.942 57.3052 48.9336C57.2968 48.9252 57.2903 48.9152 57.2861 48.9041C57.2819 48.893 57.2801 48.8811 57.2808 48.8693V48.8717Z" fill="white"/>
<path d="M58.3582 49.5124H57.7582C57.7612 49.5445 57.7706 49.5756 57.7858 49.6039C57.801 49.6322 57.8218 49.6572 57.8469 49.6774C57.8719 49.6975 57.9008 49.7124 57.9318 49.7212C57.9627 49.73 57.9951 49.7324 58.027 49.7284C58.0669 49.7298 58.1066 49.7226 58.1435 49.7073C58.1803 49.692 58.2135 49.6689 58.2406 49.6396L58.315 49.726C58.2601 49.7809 58.1906 49.8189 58.1147 49.8354C58.0389 49.852 57.9598 49.8464 57.8871 49.8194C57.8143 49.7923 57.7508 49.745 57.7041 49.6829C57.6575 49.6208 57.6296 49.5467 57.6238 49.4692C57.6218 49.4196 57.6301 49.3701 57.648 49.3238C57.6659 49.2775 57.6932 49.2354 57.728 49.2001C57.7629 49.1648 57.8047 49.137 57.8508 49.1185C57.8968 49.0999 57.9462 49.0911 57.9958 49.0924C58.0454 49.091 58.0947 49.0999 58.1405 49.1186C58.1864 49.1374 58.2279 49.1655 58.2622 49.2012C58.2966 49.2369 58.3231 49.2795 58.34 49.326C58.357 49.3726 58.364 49.4222 58.3606 49.4716C58.361 49.4853 58.3602 49.4989 58.3582 49.5124ZM57.7582 49.4164H58.2382C58.2382 49.3528 58.2129 49.2917 58.1679 49.2467C58.1229 49.2017 58.0619 49.1764 57.9982 49.1764C57.9346 49.1764 57.8735 49.2017 57.8285 49.2467C57.7835 49.2917 57.7582 49.3528 57.7582 49.4164Z" fill="white"/>
<path d="M58.4784 49.4693C58.4773 49.4183 58.4868 49.3676 58.5062 49.3204C58.5257 49.2733 58.5547 49.2306 58.5915 49.1952C58.6282 49.1599 58.6719 49.1324 58.7198 49.1148C58.7676 49.0971 58.8186 49.0895 58.8696 49.0925C58.929 49.0886 58.9884 49.1011 59.0413 49.1286C59.0942 49.1561 59.1386 49.1976 59.1696 49.2485L59.0688 49.3157C59.0468 49.2823 59.0168 49.255 58.9816 49.2361C58.9464 49.2173 58.9071 49.2075 58.8672 49.2077C58.8024 49.2139 58.7423 49.244 58.6986 49.2922C58.6548 49.3403 58.6306 49.403 58.6306 49.4681C58.6306 49.5331 58.6548 49.5958 58.6986 49.644C58.7423 49.6921 58.8024 49.7223 58.8672 49.7285C58.9069 49.7289 58.9461 49.7195 58.9813 49.7011C59.0165 49.6827 59.0465 49.6558 59.0688 49.6229L59.1696 49.6877C59.1387 49.7389 59.0944 49.7807 59.0416 49.8086C58.9887 49.8365 58.9292 49.8494 58.8696 49.8461C58.8187 49.8487 58.7679 49.8409 58.7202 49.8231C58.6725 49.8053 58.6289 49.7778 58.5922 49.7425C58.5556 49.7072 58.5265 49.6647 58.507 49.6177C58.4874 49.5707 58.4776 49.5202 58.4784 49.4693Z" fill="white"/>
<path d="M59.7694 49.7958C59.7221 49.8302 59.6647 49.848 59.6062 49.8462C59.5735 49.8516 59.5399 49.8491 59.5083 49.839C59.4768 49.8288 59.448 49.8113 59.4246 49.7878C59.4011 49.7644 59.3836 49.7357 59.3734 49.7041C59.3633 49.6725 59.3608 49.6389 59.3662 49.6062V49.1982H59.239V49.0902H59.3662V48.927H59.5006V49.0902H59.7118V49.1982H59.5006V49.599C59.498 49.6152 59.4991 49.6317 59.5038 49.6473C59.5086 49.663 59.5168 49.6774 59.5279 49.6894C59.539 49.7014 59.5527 49.7108 59.5679 49.7167C59.5831 49.7227 59.5995 49.7251 59.6158 49.7238C59.653 49.7245 59.6894 49.7127 59.719 49.6902L59.7694 49.7958Z" fill="white"/>
<path d="M59.9062 48.8693C59.9066 48.8576 59.9092 48.8461 59.9139 48.8354C59.9187 48.8248 59.9255 48.8152 59.9339 48.8072C59.9424 48.7991 59.9524 48.7929 59.9633 48.7887C59.9742 48.7845 59.9858 48.7825 59.9975 48.7829C60.009 48.7822 60.0206 48.7839 60.0314 48.7878C60.0423 48.7917 60.0523 48.7977 60.0608 48.8056C60.0693 48.8134 60.0762 48.8229 60.0809 48.8334C60.0857 48.8439 60.0883 48.8553 60.0886 48.8668C60.0886 48.891 60.079 48.9142 60.0619 48.9313C60.0448 48.9484 60.0216 48.958 59.9975 48.958C59.9733 48.958 59.9501 48.9484 59.933 48.9313C59.9159 48.9142 59.9062 48.891 59.9062 48.8668V48.8693ZM59.9302 49.1093H60.0647V49.8484H59.9302V49.1093Z" fill="white"/>
<path d="M60.9743 49.0996L60.6503 49.8388H60.5135L60.1895 49.0996H60.3311L60.5711 49.6924L60.8303 49.0996H60.9743Z" fill="white"/>
<path d="M61.7447 49.5124H61.1447C61.1477 49.5445 61.157 49.5756 61.1723 49.6039C61.1875 49.6322 61.2083 49.6572 61.2333 49.6774C61.2584 49.6975 61.2873 49.7124 61.3182 49.7212C61.3492 49.73 61.3816 49.7324 61.4135 49.7284C61.4534 49.7298 61.4931 49.7226 61.53 49.7073C61.5668 49.692 61.5999 49.6689 61.6271 49.6396L61.6991 49.726C61.6628 49.7666 61.6179 49.7984 61.5676 49.8191C61.5173 49.8399 61.463 49.8491 61.4087 49.846C61.3573 49.8497 61.3056 49.8426 61.2571 49.8253C61.2085 49.8079 61.1641 49.7807 61.1266 49.7452C61.0892 49.7098 61.0595 49.667 61.0395 49.6195C61.0194 49.572 61.0095 49.5208 61.0103 49.4692C61.0083 49.4196 61.0165 49.3701 61.0345 49.3238C61.0524 49.2775 61.0796 49.2354 61.1145 49.2001C61.1494 49.1648 61.1912 49.137 61.2372 49.1185C61.2833 49.0999 61.3327 49.0911 61.3823 49.0924C61.4318 49.091 61.4811 49.0999 61.527 49.1186C61.5729 49.1374 61.6143 49.1655 61.6487 49.2012C61.6831 49.2369 61.7096 49.2795 61.7265 49.326C61.7435 49.3726 61.7505 49.4222 61.7471 49.4716C61.7475 49.4853 61.7467 49.4989 61.7447 49.5124ZM61.1447 49.4164H61.6247C61.6247 49.3528 61.5994 49.2917 61.5544 49.2467C61.5094 49.2017 61.4484 49.1764 61.3847 49.1764C61.3211 49.1764 61.26 49.2017 61.215 49.2467C61.17 49.2917 61.1447 49.3528 61.1447 49.4164Z" fill="white"/>
<path d="M59.7166 26.7796C59.7187 26.5025 59.6567 26.2287 59.5354 25.9796C59.414 25.7304 59.2366 25.5128 59.0172 25.3436C58.7977 25.1745 58.542 25.0585 58.2702 25.0047C57.9983 24.9508 57.7177 24.9607 57.4503 25.0334C57.1829 25.1061 56.936 25.2397 56.7289 25.4238C56.5218 25.6079 56.3601 25.8374 56.2564 26.0944C56.1528 26.3514 56.1101 26.6289 56.1316 26.9052C56.1532 27.1814 56.2384 27.449 56.3806 27.6868C56.4502 27.802 56.5366 27.886 56.6206 28.0084L57.6646 29.3884C57.6947 29.4286 57.7339 29.4613 57.7789 29.4838C57.8239 29.5063 57.8735 29.518 57.9238 29.518C57.9741 29.518 58.0237 29.5063 58.0687 29.4838C58.1137 29.4613 58.1528 29.4286 58.183 29.3884L59.2078 28.03C59.3014 27.9198 59.3888 27.8045 59.4694 27.6844C59.6307 27.4101 59.716 27.0978 59.7166 26.7796ZM57.9214 27.5524C57.7646 27.5529 57.6113 27.5068 57.4807 27.4201C57.3501 27.3334 57.2483 27.2098 57.1879 27.0652C57.1276 26.9205 57.1116 26.7612 57.1419 26.6074C57.1722 26.4536 57.2474 26.3122 57.3581 26.2012C57.4688 26.0902 57.6099 26.0146 57.7636 25.9838C57.9173 25.953 58.0766 25.9686 58.2215 26.0285C58.3664 26.0883 58.4902 26.1899 58.5773 26.3201C58.6645 26.4504 58.711 26.6037 58.711 26.7604C58.711 26.97 58.6279 27.1711 58.4798 27.3196C58.3318 27.468 58.131 27.5518 57.9214 27.5524Z" fill="#7E57C2"/>
<path d="M48.0863 97.5484H47.7527V97.426H48.5591V97.5484H48.2207V98.4028H48.0815L48.0863 97.5484Z" fill="#263238"/>
<path d="M48.5471 98.0333C48.5461 97.9573 48.5678 97.8827 48.6093 97.8189C48.6508 97.7552 48.7103 97.7053 48.7802 97.6754C48.8502 97.6455 48.9274 97.6371 49.0021 97.6512C49.0769 97.6652 49.1457 97.7012 49.2 97.7545C49.2543 97.8077 49.2915 97.8759 49.307 97.9504C49.3225 98.0248 49.3155 98.1022 49.287 98.1727C49.2584 98.2432 49.2096 98.3036 49.1467 98.3463C49.0837 98.389 49.0095 98.412 48.9335 98.4125C48.8826 98.4152 48.8318 98.4073 48.7842 98.3893C48.7366 98.3713 48.6932 98.3436 48.6569 98.3079C48.6205 98.2723 48.592 98.2294 48.5731 98.1822C48.5542 98.1349 48.5454 98.0842 48.5471 98.0333ZM49.1807 98.0333C49.1807 97.9674 49.1545 97.9043 49.1079 97.8577C49.0613 97.8111 48.9982 97.7849 48.9323 97.7849C48.8664 97.7849 48.8032 97.8111 48.7566 97.8577C48.7101 97.9043 48.6839 97.9674 48.6839 98.0333C48.6839 98.0992 48.7101 98.1624 48.7566 98.209C48.8032 98.2556 48.8664 98.2817 48.9323 98.2817C48.9982 98.2817 49.0613 98.2556 49.1079 98.209C49.1545 98.1624 49.1807 98.0992 49.1807 98.0333Z" fill="#263238"/>
<path d="M49.9174 98.3525C49.872 98.3891 49.8149 98.4078 49.7566 98.4053C49.724 98.4102 49.6907 98.4073 49.6593 98.397C49.628 98.3866 49.5995 98.3691 49.5762 98.3458C49.5529 98.3224 49.5353 98.294 49.525 98.2626C49.5146 98.2313 49.5118 98.198 49.5166 98.1653V97.7597H49.3918V97.6493H49.5166V97.4885H49.6606V97.6493H49.8718V97.7597H49.6606V98.1605C49.658 98.1767 49.6592 98.1932 49.6639 98.2089C49.6686 98.2245 49.6768 98.2389 49.6879 98.2509C49.699 98.2629 49.7127 98.2723 49.7279 98.2782C49.7432 98.2842 49.7595 98.2866 49.7758 98.2853C49.814 98.2848 49.8509 98.2722 49.8814 98.2493L49.9174 98.3525Z" fill="#263238"/>
<path d="M50.6662 97.9566V98.403H50.539V98.307C50.5106 98.3428 50.4739 98.3712 50.4321 98.3896C50.3902 98.408 50.3446 98.4159 50.299 98.4126C50.131 98.4126 50.0254 98.3238 50.0254 98.1942C50.0254 98.0646 50.1022 97.9782 50.3206 97.9782H50.5342V97.9518C50.5342 97.839 50.4694 97.7718 50.335 97.7718C50.2477 97.769 50.1625 97.798 50.095 97.8534L50.0374 97.7526C50.1257 97.6862 50.2342 97.6523 50.3446 97.6566C50.3866 97.6494 50.4296 97.6519 50.4705 97.6641C50.5113 97.6763 50.5487 97.6977 50.5799 97.7268C50.611 97.7558 50.635 97.7917 50.65 97.8316C50.665 97.8714 50.6705 97.9142 50.6662 97.9566ZM50.5318 98.1774V98.0742H50.3254C50.1934 98.0742 50.155 98.127 50.155 98.1894C50.155 98.2518 50.215 98.3094 50.3182 98.3094C50.3632 98.3128 50.4081 98.3018 50.4464 98.2781C50.4848 98.2544 50.5147 98.2192 50.5318 98.1774Z" fill="#263238"/>
<path d="M50.9136 97.3684H51.048V98.4028H50.9136V97.3684Z" fill="#263238"/>
<path d="M52.375 97.3684V98.4028H52.2478V98.2852C52.2175 98.3263 52.1775 98.3593 52.1315 98.3815C52.0856 98.4036 52.0348 98.4142 51.9838 98.4124C51.8888 98.4048 51.8001 98.3617 51.7354 98.2917C51.6707 98.2216 51.6348 98.1298 51.6348 98.0344C51.6348 97.9391 51.6707 97.8472 51.7354 97.7772C51.8001 97.7071 51.8888 97.664 51.9838 97.6564C52.0335 97.6543 52.0829 97.6641 52.128 97.685C52.173 97.7059 52.2125 97.7372 52.243 97.7764V97.3684H52.375ZM52.243 98.0332C52.2388 97.9869 52.2213 97.9428 52.1925 97.9063C52.1637 97.8697 52.1249 97.8424 52.0809 97.8275C52.0368 97.8126 51.9894 97.8108 51.9443 97.8223C51.8993 97.8339 51.8586 97.8583 51.8271 97.8926C51.7957 97.9268 51.7749 97.9695 51.7673 98.0154C51.7596 98.0612 51.7655 98.1083 51.7841 98.151C51.8027 98.1936 51.8333 98.2298 51.8722 98.2554C51.9111 98.2809 51.9565 98.2946 52.003 98.2948C52.0364 98.2949 52.0695 98.2881 52.1001 98.2747C52.1308 98.2613 52.1583 98.2417 52.1808 98.2171C52.2034 98.1924 52.2206 98.1634 52.2313 98.1317C52.2421 98.1 52.246 98.0665 52.243 98.0332Z" fill="#263238"/>
<path d="M52.6055 97.4357C52.6055 97.4238 52.6078 97.4121 52.6124 97.4012C52.6171 97.3902 52.6238 97.3803 52.6323 97.372C52.6408 97.3638 52.6509 97.3573 52.6619 97.353C52.673 97.3486 52.6848 97.3466 52.6967 97.3469C52.7094 97.3448 52.7224 97.3455 52.7348 97.3489C52.7473 97.3523 52.7588 97.3584 52.7686 97.3668C52.7785 97.3751 52.7864 97.3855 52.7918 97.3972C52.7972 97.4089 52.8 97.4216 52.8 97.4345C52.8 97.4474 52.7972 97.4601 52.7918 97.4718C52.7864 97.4835 52.7785 97.4939 52.7686 97.5022C52.7588 97.5106 52.7473 97.5167 52.7348 97.5201C52.7224 97.5235 52.7094 97.5242 52.6967 97.5221C52.685 97.5224 52.6734 97.5204 52.6625 97.5163C52.6516 97.5121 52.6416 97.5058 52.6332 97.4978C52.6247 97.4898 52.6179 97.4802 52.6131 97.4695C52.6084 97.4589 52.6058 97.4474 52.6055 97.4357ZM52.6295 97.6637H52.7639V98.4029H52.6295V97.6637Z" fill="#263238"/>
<path d="M52.9248 98.3261L52.9824 98.2181C53.0593 98.2688 53.1495 98.2955 53.2416 98.2949C53.3664 98.2949 53.4168 98.2589 53.4168 98.1965C53.4168 98.0285 52.9368 98.1725 52.9368 97.8797C52.9368 97.7453 53.0568 97.6565 53.2464 97.6565C53.3403 97.6556 53.4328 97.6787 53.5152 97.7237L53.4576 97.8293C53.3935 97.7898 53.3193 97.7698 53.244 97.7717C53.1264 97.7717 53.0712 97.8149 53.0712 97.8725C53.0712 98.0477 53.5512 97.9061 53.5512 98.1917C53.5512 98.3261 53.4288 98.4125 53.232 98.4125C53.1233 98.4147 53.0164 98.3847 52.9248 98.3261Z" fill="#263238"/>
<path d="M54.1344 98.3525C54.0884 98.3896 54.0303 98.4084 53.9712 98.4053C53.9386 98.4102 53.9052 98.4073 53.8739 98.397C53.8426 98.3866 53.8141 98.3691 53.7908 98.3458C53.7674 98.3224 53.7499 98.294 53.7395 98.2626C53.7292 98.2313 53.7263 98.198 53.7312 98.1653V97.7597H53.604V97.6493H53.7408V97.4885H53.8752V97.6493H54.0864V97.7597H53.8752V98.1605C53.8726 98.1767 53.8737 98.1932 53.8784 98.2089C53.8832 98.2245 53.8914 98.2389 53.9025 98.2509C53.9136 98.2629 53.9272 98.2723 53.9425 98.2782C53.9577 98.2842 53.9741 98.2866 53.9904 98.2853C54.0279 98.2852 54.0642 98.2725 54.0936 98.2493L54.1344 98.3525Z" fill="#263238"/>
<path d="M54.883 97.9566V98.403H54.7558V98.307C54.7273 98.3426 54.6905 98.3708 54.6487 98.3892C54.607 98.4076 54.5613 98.4156 54.5158 98.4126C54.3502 98.4126 54.2422 98.3238 54.2422 98.1942C54.2422 98.0646 54.319 97.9782 54.5398 97.9782H54.7534V97.9518C54.7534 97.839 54.6862 97.7718 54.5542 97.7718C54.4671 97.77 54.3822 97.7989 54.3142 97.8534L54.259 97.7526C54.3473 97.6862 54.4558 97.6523 54.5662 97.6566C54.6078 97.6501 54.6503 97.6533 54.6905 97.6658C54.7307 97.6784 54.7675 97.7 54.7981 97.7289C54.8287 97.7579 54.8522 97.7934 54.8669 97.8329C54.8817 97.8724 54.8871 97.9147 54.883 97.9566ZM54.7486 98.1774V98.0742H54.5422C54.4078 98.0742 54.3718 98.127 54.3718 98.1894C54.3718 98.2518 54.4318 98.3094 54.535 98.3094C54.58 98.3127 54.6249 98.3018 54.6632 98.2781C54.7016 98.2543 54.7315 98.2191 54.7486 98.1774Z" fill="#263238"/>
<path d="M55.831 97.9781V98.4029H55.699V97.9925C55.699 97.8485 55.6246 97.7765 55.4974 97.7765C55.4652 97.7735 55.4327 97.7777 55.4022 97.7887C55.3718 97.7997 55.3441 97.8173 55.3212 97.8402C55.2983 97.8631 55.2807 97.8908 55.2697 97.9213C55.2587 97.9517 55.2545 97.9842 55.2574 98.0165V98.3957H55.123V97.6565H55.2502V97.7693C55.2821 97.7292 55.3232 97.6973 55.37 97.6764C55.4168 97.6556 55.4679 97.6462 55.519 97.6493C55.5626 97.6447 55.6067 97.6502 55.6478 97.6653C55.6889 97.6805 55.726 97.7049 55.7562 97.7367C55.7863 97.7685 55.8088 97.8068 55.8217 97.8487C55.8347 97.8905 55.8379 97.9348 55.831 97.9781Z" fill="#263238"/>
<path d="M56.016 98.0332C56.0149 97.9822 56.0244 97.9315 56.0438 97.8843C56.0633 97.8372 56.0923 97.7946 56.1291 97.7592C56.1658 97.7238 56.2095 97.6964 56.2574 97.6787C56.3052 97.661 56.3562 97.6534 56.4072 97.6564C56.4672 97.6531 56.5269 97.6661 56.5801 97.694C56.6334 97.7219 56.6781 97.7636 56.7096 97.8148L56.6064 97.8796C56.5841 97.8467 56.5541 97.8198 56.5189 97.8014C56.4837 97.783 56.4445 97.7735 56.4048 97.774C56.34 97.7802 56.2799 97.8103 56.2362 97.8585C56.1924 97.9066 56.1682 97.9693 56.1682 98.0344C56.1682 98.0994 56.1924 98.1622 56.2362 98.2103C56.2799 98.2585 56.34 98.2886 56.4048 98.2948C56.4445 98.2953 56.4837 98.2858 56.5189 98.2674C56.5541 98.249 56.5841 98.2221 56.6064 98.1892L56.7096 98.2516C56.6782 98.303 56.6336 98.3451 56.5804 98.3734C56.5272 98.4017 56.4673 98.4152 56.4072 98.4124C56.3561 98.415 56.305 98.4071 56.2572 98.3892C56.2093 98.3712 56.1657 98.3436 56.129 98.308C56.0922 98.2724 56.0633 98.2297 56.0438 98.1824C56.0244 98.1351 56.0149 98.0843 56.016 98.0332Z" fill="#263238"/>
<path d="M57.535 98.0788H56.935C56.938 98.1108 56.9473 98.1419 56.9626 98.1703C56.9778 98.1986 56.9986 98.2236 57.0236 98.2438C57.0487 98.2639 57.0776 98.2788 57.1085 98.2876C57.1395 98.2963 57.1719 98.2988 57.2038 98.2948C57.2437 98.2962 57.2834 98.289 57.3202 98.2736C57.3571 98.2583 57.3902 98.2353 57.4174 98.206L57.4918 98.2924C57.4545 98.3323 57.409 98.3637 57.3585 98.3844C57.308 98.4051 57.2536 98.4147 57.199 98.4124C57.1473 98.4161 57.0955 98.409 57.0468 98.3915C56.9981 98.374 56.9535 98.3465 56.916 98.3108C56.8785 98.2751 56.8489 98.232 56.829 98.1842C56.8091 98.1364 56.7995 98.085 56.8006 98.0332C56.7986 97.9836 56.8068 97.9341 56.8247 97.8878C56.8427 97.8415 56.8699 97.7994 56.9048 97.7641C56.9397 97.7287 56.9815 97.701 57.0275 97.6824C57.0736 97.6639 57.123 97.6551 57.1726 97.6564C57.2223 97.6549 57.2718 97.6639 57.3179 97.6828C57.364 97.7017 57.4055 97.73 57.4399 97.766C57.4743 97.802 57.5008 97.8448 57.5176 97.8916C57.5344 97.9385 57.5411 97.9884 57.5374 98.038C57.5377 98.0517 57.5369 98.0653 57.535 98.0788ZM56.935 97.9828H57.415C57.415 97.9192 57.3897 97.8581 57.3447 97.8131C57.2997 97.7681 57.2386 97.7428 57.175 97.7428C57.1113 97.7428 57.0503 97.7681 57.0053 97.8131C56.9603 97.8581 56.935 97.9192 56.935 97.9828Z" fill="#263238"/>
<path d="M48.9646 99.4998V101.828H48.4246V99.9318H47.959V99.4998H48.9646Z" fill="#263238"/>
<path d="M49.999 101.53C49.9939 101.646 49.9636 101.759 49.9102 101.861L49.7182 102.341H49.3894L49.5358 101.813C49.4802 101.791 49.433 101.751 49.4008 101.7C49.3685 101.65 49.3528 101.59 49.3558 101.53C49.3558 101.445 49.3897 101.363 49.45 101.303C49.5103 101.242 49.5921 101.208 49.6774 101.208C49.7627 101.208 49.8445 101.242 49.9048 101.303C49.9651 101.363 49.999 101.445 49.999 101.53Z" fill="#263238"/>
<path d="M51.1006 99.4998V101.828H50.5486V99.9318H50.083V99.4998H51.1006Z" fill="#263238"/>
<path d="M51.4944 100.664C51.4944 99.8956 51.9192 99.4636 52.4928 99.4636C53.0664 99.4636 53.4912 99.9004 53.4912 100.664C53.4912 101.427 53.0688 101.864 52.4928 101.864C51.9168 101.864 51.4944 101.432 51.4944 100.664ZM52.9488 100.664C52.9488 100.136 52.7616 99.9148 52.4928 99.9148C52.224 99.9148 52.0392 100.136 52.0392 100.664C52.0392 101.192 52.2264 101.412 52.4928 101.412C52.7592 101.412 52.9488 101.194 52.9488 100.664Z" fill="#263238"/>
<path d="M53.7527 100.664C53.7527 99.8956 54.1799 99.4636 54.7535 99.4636C55.3271 99.4636 55.7519 99.9004 55.7519 100.664C55.7519 101.427 55.3295 101.864 54.7535 101.864C54.1775 101.864 53.7527 101.432 53.7527 100.664ZM55.2095 100.664C55.2095 100.136 55.0223 99.9148 54.7535 99.9148C54.4847 99.9148 54.2999 100.136 54.2999 100.664C54.2999 101.192 54.4871 101.412 54.7535 101.412C55.0199 101.412 55.2095 101.194 55.2095 100.664Z" fill="#263238"/>
<path d="M60.0911 100.803V101.828H59.5727V100.885C59.5727 100.594 59.4431 100.46 59.2319 100.46C59.0207 100.46 58.8359 100.611 58.8359 100.94V101.837H58.3175V100.894C58.3175 100.604 58.1951 100.469 57.9791 100.469C57.7631 100.469 57.5855 100.621 57.5855 100.949V101.847H57.0671V100.033H57.5615V100.239C57.6321 100.16 57.7192 100.097 57.8167 100.056C57.9142 100.014 58.0197 99.995 58.1255 99.999C58.2405 99.9929 58.355 100.017 58.4581 100.068C58.5611 100.119 58.6491 100.196 58.7135 100.292C58.7919 100.197 58.8907 100.122 59.0026 100.071C59.1144 100.02 59.2364 99.9956 59.3591 99.999C59.7863 100.011 60.0911 100.258 60.0911 100.803Z" fill="#263238"/>
<path d="M46.5274 99.7714C46.7814 98.6914 46.1117 97.61 45.0317 97.3561C43.9517 97.1022 42.8704 97.7719 42.6165 98.8519C42.3626 99.9319 43.0322 101.013 44.1122 101.267C45.1922 101.521 46.2735 100.851 46.5274 99.7714Z" fill="#7E57C2"/>
<path d="M43.7615 99.6821C43.9324 99.6575 44.105 99.6471 44.2775 99.6509C44.6063 99.6509 45.0767 99.6341 45.6383 99.6293L45.5975 99.7181C45.4367 99.5357 45.2663 99.3341 45.0839 99.1253L45.0527 99.0893L45.0839 99.0485L45.5903 98.4173L45.6383 98.5181H45.3983H43.7495L43.8071 98.4629C43.8071 99.0725 43.7927 99.5861 43.7831 99.9461C43.7871 100.136 43.7759 100.327 43.7495 100.515C43.7247 100.326 43.7135 100.136 43.7159 99.9461C43.7159 99.5861 43.6991 99.0725 43.6943 98.4629V98.4077H43.7495H45.3983H45.7559L45.6743 98.5085L45.1631 99.1397V99.0629L45.6671 99.6629L45.7439 99.7517H45.6263C45.0647 99.7517 44.5943 99.7373 44.2655 99.7301C44.0965 99.7286 43.9278 99.7126 43.7615 99.6821Z" fill="#FAFAFA"/>
<path d="M77.0734 95.8877H71.0014C70.6927 95.8877 70.3966 96.0103 70.1783 96.2286C69.96 96.4469 69.8374 96.743 69.8374 97.0517V101.832C69.838 102.141 69.9609 102.436 70.1792 102.654C70.3974 102.872 70.6931 102.994 71.0014 102.994H71.155V104.134L72.4774 102.994H77.0734C77.3817 102.994 77.6774 102.872 77.8956 102.654C78.1138 102.436 78.2368 102.141 78.2374 101.832V97.0517C78.2374 96.743 78.1148 96.4469 77.8965 96.2286C77.6782 96.0103 77.3821 95.8877 77.0734 95.8877Z" fill="#7E57C2"/>
<path d="M71.5798 98.0812V100.534C71.5798 100.559 71.5899 100.584 71.608 100.602C71.626 100.62 71.6504 100.63 71.6758 100.63H76.8166C76.8292 100.63 76.8417 100.627 76.8532 100.622C76.8647 100.617 76.8751 100.609 76.8838 100.6C76.8925 100.591 76.8993 100.58 76.9039 100.569C76.9084 100.557 76.9106 100.544 76.9102 100.532L76.8982 99.634C76.8986 99.6143 76.8927 99.595 76.8814 99.5788L76.1422 98.5924C76.1338 98.5806 76.1226 98.5709 76.1097 98.5642C76.0968 98.5575 76.0824 98.554 76.0678 98.554H75.2182C75.1932 98.554 75.1691 98.5443 75.1512 98.5268C75.1333 98.5093 75.1229 98.4855 75.1222 98.4604V98.0884C75.1226 98.0759 75.1204 98.0635 75.1158 98.0519C75.1113 98.0402 75.1044 98.0296 75.0957 98.0207C75.087 98.0117 75.0765 98.0046 75.065 97.9998C75.0535 97.9949 75.0411 97.9924 75.0286 97.9924H71.6686C71.6456 97.9941 71.624 98.004 71.6077 98.0203C71.5914 98.0366 71.5815 98.0582 71.5798 98.0812Z" fill="#FAFAFA"/>
<path d="M75.3624 98.763V99.5526C75.3624 99.5672 75.3682 99.5813 75.3785 99.5916C75.3889 99.602 75.4029 99.6078 75.4176 99.6078L76.5528 99.5886C76.5626 99.5882 76.5722 99.5851 76.5805 99.5798C76.5887 99.5744 76.5954 99.5669 76.5998 99.5581C76.6042 99.5493 76.6062 99.5395 76.6055 99.5296C76.6049 99.5198 76.6016 99.5103 76.596 99.5022L76.0608 98.715C76.056 98.7073 76.0493 98.7009 76.0413 98.6967C76.0332 98.6925 76.0242 98.6905 76.0152 98.691L75.4104 98.7078C75.3968 98.709 75.3842 98.7154 75.3753 98.7257C75.3663 98.736 75.3617 98.7494 75.3624 98.763Z" fill="#7E57C2"/>
<path d="M77.0136 100.705H71.4768V100.875H77.0136V100.705Z" fill="#FAFAFA"/>
<path d="M73.3079 100.769C73.3084 100.878 73.2765 100.985 73.2163 101.076C73.1561 101.166 73.0703 101.237 72.9698 101.279C72.8692 101.321 72.7585 101.332 72.6517 101.311C72.5449 101.29 72.4467 101.237 72.3697 101.16C72.2927 101.083 72.2403 100.985 72.2192 100.878C72.1981 100.772 72.2091 100.661 72.251 100.56C72.2929 100.46 72.3637 100.374 72.4545 100.314C72.5452 100.254 72.6518 100.222 72.7607 100.222C72.9059 100.222 73.045 100.28 73.1477 100.382C73.2503 100.485 73.3079 100.624 73.3079 100.769Z" fill="#7E57C2"/>
<path d="M73.0823 100.769C73.0828 100.834 73.0641 100.897 73.0287 100.95C72.9933 101.004 72.9427 101.046 72.8834 101.071C72.8241 101.095 72.7588 101.102 72.6957 101.09C72.6326 101.077 72.5747 101.046 72.5292 101.001C72.4838 100.955 72.4529 100.897 72.4404 100.834C72.428 100.771 72.4346 100.706 72.4594 100.647C72.4843 100.587 72.5262 100.537 72.5798 100.501C72.6335 100.466 72.6964 100.447 72.7607 100.448C72.846 100.448 72.9278 100.482 72.9881 100.542C73.0484 100.602 73.0823 100.684 73.0823 100.769Z" fill="#FAFAFA"/>
<path d="M75.1199 100.63C75.1055 100.63 75.0935 100.037 75.0935 99.3078C75.0935 98.5782 75.0935 97.9854 75.1199 97.9854C75.1463 97.9854 75.1439 98.5782 75.1439 99.3078C75.1439 100.037 75.1319 100.63 75.1199 100.63Z" fill="#7E57C2"/>
<path d="M76.3007 100.769C76.3007 100.878 76.2686 100.983 76.2085 101.073C76.1484 101.163 76.0629 101.233 75.9629 101.275C75.8629 101.316 75.7529 101.327 75.6468 101.306C75.5406 101.285 75.4431 101.233 75.3666 101.156C75.29 101.08 75.2379 100.982 75.2168 100.876C75.1957 100.77 75.2065 100.66 75.248 100.56C75.2894 100.46 75.3595 100.375 75.4495 100.314C75.5395 100.254 75.6453 100.222 75.7535 100.222C75.8986 100.222 76.0378 100.28 76.1404 100.382C76.2431 100.485 76.3007 100.624 76.3007 100.769Z" fill="#7E57C2"/>
<path d="M76.0606 100.769C76.0611 100.834 76.0425 100.896 76.0072 100.95C75.9718 101.004 75.9214 101.046 75.8622 101.07C75.8031 101.095 75.7379 101.102 75.6749 101.09C75.6119 101.078 75.5539 101.047 75.5084 101.002C75.4628 100.956 75.4317 100.899 75.419 100.836C75.4063 100.773 75.4126 100.708 75.437 100.648C75.4615 100.589 75.503 100.538 75.5563 100.503C75.6097 100.467 75.6724 100.448 75.7366 100.448C75.8221 100.448 75.9042 100.482 75.9648 100.542C76.0255 100.602 76.06 100.684 76.0606 100.769Z" fill="#FAFAFA"/>
<path d="M75.7464 99.7588C75.7464 99.7732 75.6672 99.7828 75.5712 99.7828C75.4752 99.7828 75.396 99.7828 75.396 99.7588C75.396 99.7348 75.4752 99.7324 75.5712 99.7324C75.6672 99.7324 75.7464 99.7444 75.7464 99.7588Z" fill="#7E57C2"/>
</svg>
